<?xml version="1.0" encoding="utf-8"?>
<svg xmlns="http://www.w3.org/2000/svg" xmlns:xlink="http://www.w3.org/1999/xlink" width="600" height="400" viewBox="0 0 2400 1600">
<defs>
  <clipPath id="clip440">
    <rect x="0" y="0" width="2400" height="1600"/>
  </clipPath>
</defs>
<path clip-path="url(#clip440)" d="
M0 1600 L2400 1600 L2400 0 L0 0  Z
  " fill="#ffffff" fill-rule="evenodd" fill-opacity="1"/>
<defs>
  <clipPath id="clip441">
    <rect x="480" y="0" width="1681" height="1600"/>
  </clipPath>
</defs>
<path clip-path="url(#clip440)" d="
M399.232 1410.9 L2352.76 1410.9 L2352.76 47.2441 L399.232 47.2441  Z
  " fill="#ffffff" fill-rule="evenodd" fill-opacity="1"/>
<defs>
  <clipPath id="clip442">
    <rect x="399" y="47" width="1955" height="1365"/>
  </clipPath>
</defs>
<polyline clip-path="url(#clip442)" style="stroke:#000000; stroke-linecap:butt; stroke-linejoin:round; stroke-width:2; stroke-opacity:0.1; fill:none" points="
  445.212,1410.9 445.212,47.2441 
  "/>
<polyline clip-path="url(#clip442)" style="stroke:#000000; stroke-linecap:butt; stroke-linejoin:round; stroke-width:2; stroke-opacity:0.1; fill:none" points="
  910.603,1410.9 910.603,47.2441 
  "/>
<polyline clip-path="url(#clip442)" style="stroke:#000000; stroke-linecap:butt; stroke-linejoin:round; stroke-width:2; stroke-opacity:0.1; fill:none" points="
  1375.99,1410.9 1375.99,47.2441 
  "/>
<polyline clip-path="url(#clip442)" style="stroke:#000000; stroke-linecap:butt; stroke-linejoin:round; stroke-width:2; stroke-opacity:0.1; fill:none" points="
  1841.38,1410.9 1841.38,47.2441 
  "/>
<polyline clip-path="url(#clip442)" style="stroke:#000000; stroke-linecap:butt; stroke-linejoin:round; stroke-width:2; stroke-opacity:0.1; fill:none" points="
  2306.78,1410.9 2306.78,47.2441 
  "/>
<polyline clip-path="url(#clip440)" style="stroke:#000000; stroke-linecap:butt; stroke-linejoin:round; stroke-width:4; stroke-opacity:1; fill:none" points="
  399.232,1410.9 2352.76,1410.9 
  "/>
<polyline clip-path="url(#clip440)" style="stroke:#000000; stroke-linecap:butt; stroke-linejoin:round; stroke-width:4; stroke-opacity:1; fill:none" points="
  445.212,1410.9 445.212,1392 
  "/>
<polyline clip-path="url(#clip440)" style="stroke:#000000; stroke-linecap:butt; stroke-linejoin:round; stroke-width:4; stroke-opacity:1; fill:none" points="
  910.603,1410.9 910.603,1392 
  "/>
<polyline clip-path="url(#clip440)" style="stroke:#000000; stroke-linecap:butt; stroke-linejoin:round; stroke-width:4; stroke-opacity:1; fill:none" points="
  1375.99,1410.9 1375.99,1392 
  "/>
<polyline clip-path="url(#clip440)" style="stroke:#000000; stroke-linecap:butt; stroke-linejoin:round; stroke-width:4; stroke-opacity:1; fill:none" points="
  1841.38,1410.9 1841.38,1392 
  "/>
<polyline clip-path="url(#clip440)" style="stroke:#000000; stroke-linecap:butt; stroke-linejoin:round; stroke-width:4; stroke-opacity:1; fill:none" points="
  2306.78,1410.9 2306.78,1392 
  "/>
<path clip-path="url(#clip440)" d="M445.212 1441.82 Q441.601 1441.82 439.772 1445.38 Q437.967 1448.92 437.967 1456.05 Q437.967 1463.16 439.772 1466.72 Q441.601 1470.26 445.212 1470.26 Q448.846 1470.26 450.652 1466.72 Q452.481 1463.16 452.481 1456.05 Q452.481 1448.92 450.652 1445.38 Q448.846 1441.82 445.212 1441.82 M445.212 1438.11 Q451.022 1438.11 454.078 1442.72 Q457.157 1447.3 457.157 1456.05 Q457.157 1464.78 454.078 1469.38 Q451.022 1473.97 445.212 1473.97 Q439.402 1473.97 436.323 1469.38 Q433.268 1464.78 433.268 1456.05 Q433.268 1447.3 436.323 1442.72 Q439.402 1438.11 445.212 1438.11 Z" fill="#000000" fill-rule="evenodd" fill-opacity="1" /><path clip-path="url(#clip440)" d="M795.429 1485.02 L811.748 1485.02 L811.748 1488.96 L789.804 1488.96 L789.804 1485.02 Q792.466 1482.27 797.049 1477.64 Q801.655 1472.98 802.836 1471.64 Q805.081 1469.12 805.961 1467.38 Q806.864 1465.62 806.864 1463.93 Q806.864 1461.18 804.919 1459.44 Q802.998 1457.71 799.896 1457.71 Q797.697 1457.71 795.243 1458.47 Q792.813 1459.23 790.035 1460.79 L790.035 1456.06 Q792.859 1454.93 795.313 1454.35 Q797.767 1453.77 799.804 1453.77 Q805.174 1453.77 808.368 1456.46 Q811.563 1459.14 811.563 1463.63 Q811.563 1465.76 810.753 1467.68 Q809.966 1469.58 807.859 1472.17 Q807.28 1472.85 804.179 1476.06 Q801.077 1479.26 795.429 1485.02 Z" fill="#000000" fill-rule="evenodd" fill-opacity="1" /><path clip-path="url(#clip440)" d="M821.563 1483.08 L826.447 1483.08 L826.447 1488.96 L821.563 1488.96 L821.563 1483.08 Z" fill="#000000" fill-rule="evenodd" fill-opacity="1" /><path clip-path="url(#clip440)" d="M836.678 1454.4 L855.035 1454.4 L855.035 1458.33 L840.961 1458.33 L840.961 1466.8 Q841.979 1466.46 842.998 1466.29 Q844.016 1466.11 845.035 1466.11 Q850.822 1466.11 854.201 1469.28 Q857.581 1472.45 857.581 1477.87 Q857.581 1483.45 854.109 1486.55 Q850.637 1489.63 844.317 1489.63 Q842.141 1489.63 839.873 1489.26 Q837.627 1488.89 835.22 1488.15 L835.22 1483.45 Q837.303 1484.58 839.526 1485.14 Q841.748 1485.69 844.225 1485.69 Q848.229 1485.69 850.567 1483.59 Q852.905 1481.48 852.905 1477.87 Q852.905 1474.26 850.567 1472.15 Q848.229 1470.04 844.225 1470.04 Q842.35 1470.04 840.475 1470.46 Q838.623 1470.88 836.678 1471.76 L836.678 1454.4 Z" fill="#000000" fill-rule="evenodd" fill-opacity="1" /><path clip-path="url(#clip440)" d="M876.794 1457.48 Q873.183 1457.48 871.354 1461.04 Q869.549 1464.58 869.549 1471.71 Q869.549 1478.82 871.354 1482.38 Q873.183 1485.92 876.794 1485.92 Q880.428 1485.92 882.234 1482.38 Q884.062 1478.82 884.062 1471.71 Q884.062 1464.58 882.234 1461.04 Q880.428 1457.48 876.794 1457.48 M876.794 1453.77 Q882.604 1453.77 885.66 1458.38 Q888.738 1462.96 888.738 1471.71 Q888.738 1480.44 885.66 1485.04 Q882.604 1489.63 876.794 1489.63 Q870.984 1489.63 867.905 1485.04 Q864.849 1480.44 864.849 1471.71 Q864.849 1462.96 867.905 1458.38 Q870.984 1453.77 876.794 1453.77 Z" fill="#000000" fill-rule="evenodd" fill-opacity="1" /><path clip-path="url(#clip440)" d="M925.127 1463.49 L914.548 1474.12 L925.127 1484.7 L922.372 1487.5 L911.747 1476.87 L901.122 1487.5 L898.391 1484.7 L908.946 1474.12 L898.391 1463.49 L901.122 1460.69 L911.747 1471.32 L922.372 1460.69 L925.127 1463.49 Z" fill="#000000" fill-rule="evenodd" fill-opacity="1" /><path clip-path="url(#clip440)" d="M937.488 1485.02 L945.127 1485.02 L945.127 1458.66 L936.817 1460.32 L936.817 1456.06 L945.081 1454.4 L949.756 1454.4 L949.756 1485.02 L957.395 1485.02 L957.395 1488.96 L937.488 1488.96 L937.488 1485.02 Z" fill="#000000" fill-rule="evenodd" fill-opacity="1" /><path clip-path="url(#clip440)" d="M976.84 1457.48 Q973.229 1457.48 971.4 1461.04 Q969.594 1464.58 969.594 1471.71 Q969.594 1478.82 971.4 1482.38 Q973.229 1485.92 976.84 1485.92 Q980.474 1485.92 982.279 1482.38 Q984.108 1478.82 984.108 1471.71 Q984.108 1464.58 982.279 1461.04 Q980.474 1457.48 976.84 1457.48 M976.84 1453.77 Q982.65 1453.77 985.705 1458.38 Q988.784 1462.96 988.784 1471.71 Q988.784 1480.44 985.705 1485.04 Q982.65 1489.63 976.84 1489.63 Q971.029 1489.63 967.951 1485.04 Q964.895 1480.44 964.895 1471.71 Q964.895 1462.96 967.951 1458.38 Q971.029 1453.77 976.84 1453.77 Z" fill="#000000" fill-rule="evenodd" fill-opacity="1" /><path clip-path="url(#clip440)" d="M989.329 1458.35 L995.536 1458.35 L995.536 1436.93 L988.784 1438.28 L988.784 1434.82 L995.498 1433.47 L999.298 1433.47 L999.298 1458.35 L1005.5 1458.35 L1005.5 1461.55 L989.329 1461.55 L989.329 1458.35 Z" fill="#000000" fill-rule="evenodd" fill-opacity="1" /><path clip-path="url(#clip440)" d="M1023.62 1436.78 L1014.02 1451.77 L1023.62 1451.77 L1023.62 1436.78 M1022.62 1433.47 L1027.4 1433.47 L1027.4 1451.77 L1031.4 1451.77 L1031.4 1454.93 L1027.4 1454.93 L1027.4 1461.55 L1023.62 1461.55 L1023.62 1454.93 L1010.94 1454.93 L1010.94 1451.26 L1022.62 1433.47 Z" fill="#000000" fill-rule="evenodd" fill-opacity="1" /><path clip-path="url(#clip440)" d="M1256.75 1454.4 L1275.1 1454.4 L1275.1 1458.33 L1261.03 1458.33 L1261.03 1466.8 Q1262.05 1466.46 1263.06 1466.29 Q1264.08 1466.11 1265.1 1466.11 Q1270.89 1466.11 1274.27 1469.28 Q1277.65 1472.45 1277.65 1477.87 Q1277.65 1483.45 1274.18 1486.55 Q1270.7 1489.63 1264.38 1489.63 Q1262.21 1489.63 1259.94 1489.26 Q1257.69 1488.89 1255.29 1488.15 L1255.29 1483.45 Q1257.37 1484.58 1259.59 1485.14 Q1261.81 1485.69 1264.29 1485.69 Q1268.3 1485.69 1270.63 1483.59 Q1272.97 1481.48 1272.97 1477.87 Q1272.97 1474.26 1270.63 1472.15 Q1268.3 1470.04 1264.29 1470.04 Q1262.42 1470.04 1260.54 1470.46 Q1258.69 1470.88 1256.75 1471.76 L1256.75 1454.4 Z" fill="#000000" fill-rule="evenodd" fill-opacity="1" /><path clip-path="url(#clip440)" d="M1286.86 1483.08 L1291.75 1483.08 L1291.75 1488.96 L1286.86 1488.96 L1286.86 1483.08 Z" fill="#000000" fill-rule="evenodd" fill-opacity="1" /><path clip-path="url(#clip440)" d="M1311.93 1457.48 Q1308.32 1457.48 1306.49 1461.04 Q1304.68 1464.58 1304.68 1471.71 Q1304.68 1478.82 1306.49 1482.38 Q1308.32 1485.92 1311.93 1485.92 Q1315.56 1485.92 1317.37 1482.38 Q1319.2 1478.82 1319.2 1471.71 Q1319.2 1464.58 1317.37 1461.04 Q1315.56 1457.48 1311.93 1457.48 M1311.93 1453.77 Q1317.74 1453.77 1320.8 1458.38 Q1323.87 1462.96 1323.87 1471.71 Q1323.87 1480.44 1320.8 1485.04 Q1317.74 1489.63 1311.93 1489.63 Q1306.12 1489.63 1303.04 1485.04 Q1299.99 1480.44 1299.99 1471.71 Q1299.99 1462.96 1303.04 1458.38 Q1306.12 1453.77 1311.93 1453.77 Z" fill="#000000" fill-rule="evenodd" fill-opacity="1" /><path clip-path="url(#clip440)" d="M1342.09 1457.48 Q1338.48 1457.48 1336.65 1461.04 Q1334.85 1464.58 1334.85 1471.71 Q1334.85 1478.82 1336.65 1482.38 Q1338.48 1485.92 1342.09 1485.92 Q1345.73 1485.92 1347.53 1482.38 Q1349.36 1478.82 1349.36 1471.71 Q1349.36 1464.58 1347.53 1461.04 Q1345.73 1457.48 1342.09 1457.48 M1342.09 1453.77 Q1347.9 1453.77 1350.96 1458.38 Q1354.04 1462.96 1354.04 1471.71 Q1354.04 1480.44 1350.96 1485.04 Q1347.9 1489.63 1342.09 1489.63 Q1336.28 1489.63 1333.2 1485.04 Q1330.15 1480.44 1330.15 1471.71 Q1330.15 1462.96 1333.2 1458.38 Q1336.28 1453.77 1342.09 1453.77 Z" fill="#000000" fill-rule="evenodd" fill-opacity="1" /><path clip-path="url(#clip440)" d="M1390.43 1463.49 L1379.85 1474.12 L1390.43 1484.7 L1387.67 1487.5 L1377.05 1476.87 L1366.42 1487.5 L1363.69 1484.7 L1374.24 1474.12 L1363.69 1463.49 L1366.42 1460.69 L1377.05 1471.32 L1387.67 1460.69 L1390.43 1463.49 Z" fill="#000000" fill-rule="evenodd" fill-opacity="1" /><path clip-path="url(#clip440)" d="M1402.79 1485.02 L1410.43 1485.02 L1410.43 1458.66 L1402.11 1460.32 L1402.11 1456.06 L1410.38 1454.4 L1415.05 1454.4 L1415.05 1485.02 L1422.69 1485.02 L1422.69 1488.96 L1402.79 1488.96 L1402.79 1485.02 Z" fill="#000000" fill-rule="evenodd" fill-opacity="1" /><path clip-path="url(#clip440)" d="M1442.14 1457.48 Q1438.53 1457.48 1436.7 1461.04 Q1434.89 1464.58 1434.89 1471.71 Q1434.89 1478.82 1436.7 1482.38 Q1438.53 1485.92 1442.14 1485.92 Q1445.77 1485.92 1447.58 1482.38 Q1449.41 1478.82 1449.41 1471.71 Q1449.41 1464.58 1447.58 1461.04 Q1445.77 1457.48 1442.14 1457.48 M1442.14 1453.77 Q1447.95 1453.77 1451 1458.38 Q1454.08 1462.96 1454.08 1471.71 Q1454.08 1480.44 1451 1485.04 Q1447.95 1489.63 1442.14 1489.63 Q1436.33 1489.63 1433.25 1485.04 Q1430.19 1480.44 1430.19 1471.71 Q1430.19 1462.96 1433.25 1458.38 Q1436.33 1453.77 1442.14 1453.77 Z" fill="#000000" fill-rule="evenodd" fill-opacity="1" /><path clip-path="url(#clip440)" d="M1454.63 1458.35 L1460.83 1458.35 L1460.83 1436.93 L1454.08 1438.28 L1454.08 1434.82 L1460.8 1433.47 L1464.6 1433.47 L1464.6 1458.35 L1470.8 1458.35 L1470.8 1461.55 L1454.63 1461.55 L1454.63 1458.35 Z" fill="#000000" fill-rule="evenodd" fill-opacity="1" /><path clip-path="url(#clip440)" d="M1488.91 1436.78 L1479.32 1451.77 L1488.91 1451.77 L1488.91 1436.78 M1487.92 1433.47 L1492.69 1433.47 L1492.69 1451.77 L1496.7 1451.77 L1496.7 1454.93 L1492.69 1454.93 L1492.69 1461.55 L1488.91 1461.55 L1488.91 1454.93 L1476.24 1454.93 L1476.24 1451.26 L1487.92 1433.47 Z" fill="#000000" fill-rule="evenodd" fill-opacity="1" /><path clip-path="url(#clip440)" d="M1720.79 1454.4 L1743.02 1454.4 L1743.02 1456.39 L1730.47 1488.96 L1725.59 1488.96 L1737.39 1458.33 L1720.79 1458.33 L1720.79 1454.4 Z" fill="#000000" fill-rule="evenodd" fill-opacity="1" /><path clip-path="url(#clip440)" d="M1752.14 1483.08 L1757.02 1483.08 L1757.02 1488.96 L1752.14 1488.96 L1752.14 1483.08 Z" fill="#000000" fill-rule="evenodd" fill-opacity="1" /><path clip-path="url(#clip440)" d="M1767.25 1454.4 L1785.61 1454.4 L1785.61 1458.33 L1771.53 1458.33 L1771.53 1466.8 Q1772.55 1466.46 1773.57 1466.29 Q1774.59 1466.11 1775.61 1466.11 Q1781.39 1466.11 1784.77 1469.28 Q1788.15 1472.45 1788.15 1477.87 Q1788.15 1483.45 1784.68 1486.55 Q1781.21 1489.63 1774.89 1489.63 Q1772.71 1489.63 1770.45 1489.26 Q1768.2 1488.89 1765.79 1488.15 L1765.79 1483.45 Q1767.88 1484.58 1770.1 1485.14 Q1772.32 1485.69 1774.8 1485.69 Q1778.8 1485.69 1781.14 1483.59 Q1783.48 1481.48 1783.48 1477.87 Q1783.48 1474.26 1781.14 1472.15 Q1778.8 1470.04 1774.8 1470.04 Q1772.92 1470.04 1771.05 1470.46 Q1769.2 1470.88 1767.25 1471.76 L1767.25 1454.4 Z" fill="#000000" fill-rule="evenodd" fill-opacity="1" /><path clip-path="url(#clip440)" d="M1807.37 1457.48 Q1803.76 1457.48 1801.93 1461.04 Q1800.12 1464.58 1800.12 1471.71 Q1800.12 1478.82 1801.93 1482.38 Q1803.76 1485.92 1807.37 1485.92 Q1811 1485.92 1812.81 1482.38 Q1814.64 1478.82 1814.64 1471.71 Q1814.64 1464.58 1812.81 1461.04 Q1811 1457.48 1807.37 1457.48 M1807.37 1453.77 Q1813.18 1453.77 1816.23 1458.38 Q1819.31 1462.96 1819.31 1471.71 Q1819.31 1480.44 1816.23 1485.04 Q1813.18 1489.63 1807.37 1489.63 Q1801.56 1489.63 1798.48 1485.04 Q1795.42 1480.44 1795.42 1471.71 Q1795.42 1462.96 1798.48 1458.38 Q1801.56 1453.77 1807.37 1453.77 Z" fill="#000000" fill-rule="evenodd" fill-opacity="1" /><path clip-path="url(#clip440)" d="M1855.7 1463.49 L1845.12 1474.12 L1855.7 1484.7 L1852.95 1487.5 L1842.32 1476.87 L1831.7 1487.5 L1828.96 1484.7 L1839.52 1474.12 L1828.96 1463.49 L1831.7 1460.69 L1842.32 1471.32 L1852.95 1460.69 L1855.7 1463.49 Z" fill="#000000" fill-rule="evenodd" fill-opacity="1" /><path clip-path="url(#clip440)" d="M1868.06 1485.02 L1875.7 1485.02 L1875.7 1458.66 L1867.39 1460.32 L1867.39 1456.06 L1875.65 1454.4 L1880.33 1454.4 L1880.33 1485.02 L1887.97 1485.02 L1887.97 1488.96 L1868.06 1488.96 L1868.06 1485.02 Z" fill="#000000" fill-rule="evenodd" fill-opacity="1" /><path clip-path="url(#clip440)" d="M1907.41 1457.48 Q1903.8 1457.48 1901.97 1461.04 Q1900.17 1464.58 1900.17 1471.71 Q1900.17 1478.82 1901.97 1482.38 Q1903.8 1485.92 1907.41 1485.92 Q1911.05 1485.92 1912.85 1482.38 Q1914.68 1478.82 1914.68 1471.71 Q1914.68 1464.58 1912.85 1461.04 Q1911.05 1457.48 1907.41 1457.48 M1907.41 1453.77 Q1913.22 1453.77 1916.28 1458.38 Q1919.36 1462.96 1919.36 1471.71 Q1919.36 1480.44 1916.28 1485.04 Q1913.22 1489.63 1907.41 1489.63 Q1901.6 1489.63 1898.52 1485.04 Q1895.47 1480.44 1895.47 1471.71 Q1895.47 1462.96 1898.52 1458.38 Q1901.6 1453.77 1907.41 1453.77 Z" fill="#000000" fill-rule="evenodd" fill-opacity="1" /><path clip-path="url(#clip440)" d="M1919.9 1458.35 L1926.11 1458.35 L1926.11 1436.93 L1919.36 1438.28 L1919.36 1434.82 L1926.07 1433.47 L1929.87 1433.47 L1929.87 1458.35 L1936.08 1458.35 L1936.08 1461.55 L1919.9 1461.55 L1919.9 1458.35 Z" fill="#000000" fill-rule="evenodd" fill-opacity="1" /><path clip-path="url(#clip440)" d="M1954.19 1436.78 L1944.6 1451.77 L1954.19 1451.77 L1954.19 1436.78 M1953.19 1433.47 L1957.97 1433.47 L1957.97 1451.77 L1961.98 1451.77 L1961.98 1454.93 L1957.97 1454.93 L1957.97 1461.55 L1954.19 1461.55 L1954.19 1454.93 L1941.51 1454.93 L1941.51 1451.26 L1953.19 1433.47 Z" fill="#000000" fill-rule="evenodd" fill-opacity="1" /><path clip-path="url(#clip440)" d="M2188.12 1485.02 L2195.76 1485.02 L2195.76 1458.66 L2187.45 1460.32 L2187.45 1456.06 L2195.71 1454.4 L2200.39 1454.4 L2200.39 1485.02 L2208.02 1485.02 L2208.02 1488.96 L2188.12 1488.96 L2188.12 1485.02 Z" fill="#000000" fill-rule="evenodd" fill-opacity="1" /><path clip-path="url(#clip440)" d="M2217.47 1483.08 L2222.35 1483.08 L2222.35 1488.96 L2217.47 1488.96 L2217.47 1483.08 Z" fill="#000000" fill-rule="evenodd" fill-opacity="1" /><path clip-path="url(#clip440)" d="M2242.54 1457.48 Q2238.93 1457.48 2237.1 1461.04 Q2235.29 1464.58 2235.29 1471.71 Q2235.29 1478.82 2237.1 1482.38 Q2238.93 1485.92 2242.54 1485.92 Q2246.17 1485.92 2247.98 1482.38 Q2249.81 1478.82 2249.81 1471.71 Q2249.81 1464.58 2247.98 1461.04 Q2246.17 1457.48 2242.54 1457.48 M2242.54 1453.77 Q2248.35 1453.77 2251.4 1458.38 Q2254.48 1462.96 2254.48 1471.71 Q2254.48 1480.44 2251.4 1485.04 Q2248.35 1489.63 2242.54 1489.63 Q2236.73 1489.63 2233.65 1485.04 Q2230.59 1480.44 2230.59 1471.71 Q2230.59 1462.96 2233.65 1458.38 Q2236.73 1453.77 2242.54 1453.77 Z" fill="#000000" fill-rule="evenodd" fill-opacity="1" /><path clip-path="url(#clip440)" d="M2272.7 1457.48 Q2269.09 1457.48 2267.26 1461.04 Q2265.45 1464.58 2265.45 1471.71 Q2265.45 1478.82 2267.26 1482.38 Q2269.09 1485.92 2272.7 1485.92 Q2276.33 1485.92 2278.14 1482.38 Q2279.97 1478.82 2279.97 1471.71 Q2279.97 1464.58 2278.14 1461.04 Q2276.33 1457.48 2272.7 1457.48 M2272.7 1453.77 Q2278.51 1453.77 2281.57 1458.38 Q2284.64 1462.96 2284.64 1471.71 Q2284.64 1480.44 2281.57 1485.04 Q2278.51 1489.63 2272.7 1489.63 Q2266.89 1489.63 2263.81 1485.04 Q2260.76 1480.44 2260.76 1471.71 Q2260.76 1462.96 2263.81 1458.38 Q2266.89 1453.77 2272.7 1453.77 Z" fill="#000000" fill-rule="evenodd" fill-opacity="1" /><path clip-path="url(#clip440)" d="M2321.03 1463.49 L2310.45 1474.12 L2321.03 1484.7 L2318.28 1487.5 L2307.65 1476.87 L2297.03 1487.5 L2294.3 1484.7 L2304.85 1474.12 L2294.3 1463.49 L2297.03 1460.69 L2307.65 1471.32 L2318.28 1460.69 L2321.03 1463.49 Z" fill="#000000" fill-rule="evenodd" fill-opacity="1" /><path clip-path="url(#clip440)" d="M2333.39 1485.02 L2341.03 1485.02 L2341.03 1458.66 L2332.72 1460.32 L2332.72 1456.06 L2340.99 1454.4 L2345.66 1454.4 L2345.66 1485.02 L2353.3 1485.02 L2353.3 1488.96 L2333.39 1488.96 L2333.39 1485.02 Z" fill="#000000" fill-rule="evenodd" fill-opacity="1" /><path clip-path="url(#clip440)" d="M2372.75 1457.48 Q2369.13 1457.48 2367.31 1461.04 Q2365.5 1464.58 2365.5 1471.71 Q2365.5 1478.82 2367.31 1482.38 Q2369.13 1485.92 2372.75 1485.92 Q2376.38 1485.92 2378.19 1482.38 Q2380.01 1478.82 2380.01 1471.71 Q2380.01 1464.58 2378.19 1461.04 Q2376.38 1457.48 2372.75 1457.48 M2372.75 1453.77 Q2378.56 1453.77 2381.61 1458.38 Q2384.69 1462.96 2384.69 1471.71 Q2384.69 1480.44 2381.61 1485.04 Q2378.56 1489.63 2372.75 1489.63 Q2366.94 1489.63 2363.86 1485.04 Q2360.8 1480.44 2360.8 1471.71 Q2360.8 1462.96 2363.86 1458.38 Q2366.94 1453.77 2372.75 1453.77 Z" fill="#000000" fill-rule="evenodd" fill-opacity="1" /><path clip-path="url(#clip440)" d="M2385.24 1458.35 L2391.44 1458.35 L2391.44 1436.93 L2384.69 1438.28 L2384.69 1434.82 L2391.4 1433.47 L2395.2 1433.47 L2395.2 1458.35 L2401.41 1458.35 L2401.41 1461.55 L2385.24 1461.55 L2385.24 1458.35 Z" fill="#000000" fill-rule="evenodd" fill-opacity="1" /><path clip-path="url(#clip440)" d="M2409.12 1433.47 L2424.04 1433.47 L2424.04 1436.66 L2412.6 1436.66 L2412.6 1443.55 Q2413.43 1443.27 2414.26 1443.13 Q2415.08 1442.98 2415.91 1442.98 Q2420.61 1442.98 2423.36 1445.56 Q2426.1 1448.14 2426.1 1452.54 Q2426.1 1457.07 2423.28 1459.59 Q2420.46 1462.09 2415.33 1462.09 Q2413.56 1462.09 2411.72 1461.79 Q2409.89 1461.49 2407.94 1460.89 L2407.94 1457.07 Q2409.63 1457.99 2411.43 1458.44 Q2413.24 1458.89 2415.25 1458.89 Q2418.51 1458.89 2420.41 1457.18 Q2422.31 1455.47 2422.31 1452.54 Q2422.31 1449.6 2420.41 1447.89 Q2418.51 1446.18 2415.25 1446.18 Q2413.73 1446.18 2412.21 1446.52 Q2410.7 1446.86 2409.12 1447.57 L2409.12 1433.47 Z" fill="#000000" fill-rule="evenodd" fill-opacity="1" /><path clip-path="url(#clip440)" d="M1136.21 1526.67 L1163.52 1526.67 L1163.52 1532.08 L1142.64 1532.08 L1142.64 1546.08 L1161.49 1546.08 L1161.49 1551.49 L1142.64 1551.49 L1142.64 1574.19 L1136.21 1574.19 L1136.21 1526.67 Z" fill="#000000" fill-rule="evenodd" fill-opacity="1" /><path clip-path="url(#clip440)" d="M1189.37 1544.01 Q1188.38 1543.44 1187.2 1543.18 Q1186.06 1542.9 1184.66 1542.9 Q1179.69 1542.9 1177.02 1546.14 Q1174.38 1549.36 1174.38 1555.41 L1174.38 1574.19 L1168.49 1574.19 L1168.49 1538.54 L1174.38 1538.54 L1174.38 1544.08 Q1176.22 1540.83 1179.18 1539.27 Q1182.14 1537.68 1186.38 1537.68 Q1186.98 1537.68 1187.71 1537.77 Q1188.44 1537.84 1189.34 1538 L1189.37 1544.01 Z" fill="#000000" fill-rule="evenodd" fill-opacity="1" /><path clip-path="url(#clip440)" d="M1224.57 1554.9 L1224.57 1557.76 L1197.64 1557.76 Q1198.02 1563.81 1201.27 1566.99 Q1204.55 1570.14 1210.37 1570.14 Q1213.75 1570.14 1216.9 1569.32 Q1220.08 1568.49 1223.2 1566.83 L1223.2 1572.37 Q1220.05 1573.71 1216.74 1574.41 Q1213.43 1575.11 1210.02 1575.11 Q1201.49 1575.11 1196.5 1570.14 Q1191.53 1565.18 1191.53 1556.71 Q1191.53 1547.96 1196.24 1542.83 Q1200.98 1537.68 1209.01 1537.68 Q1216.2 1537.68 1220.37 1542.33 Q1224.57 1546.94 1224.57 1554.9 M1218.71 1553.18 Q1218.65 1548.37 1216.01 1545.51 Q1213.4 1542.64 1209.07 1542.64 Q1204.17 1542.64 1201.21 1545.41 Q1198.28 1548.18 1197.83 1553.21 L1218.71 1553.18 Z" fill="#000000" fill-rule="evenodd" fill-opacity="1" /><path clip-path="url(#clip440)" d="M1237.68 1556.39 Q1237.68 1562.85 1240.32 1566.55 Q1243 1570.21 1247.65 1570.21 Q1252.29 1570.21 1254.97 1566.55 Q1257.64 1562.85 1257.64 1556.39 Q1257.64 1549.93 1254.97 1546.27 Q1252.29 1542.58 1247.65 1542.58 Q1243 1542.58 1240.32 1546.27 Q1237.68 1549.93 1237.68 1556.39 M1257.64 1568.84 Q1255.79 1572.02 1252.96 1573.58 Q1250.16 1575.11 1246.21 1575.11 Q1239.75 1575.11 1235.68 1569.95 Q1231.64 1564.8 1231.64 1556.39 Q1231.64 1547.99 1235.68 1542.83 Q1239.75 1537.68 1246.21 1537.68 Q1250.16 1537.68 1252.96 1539.24 Q1255.79 1540.77 1257.64 1543.95 L1257.64 1538.54 L1263.5 1538.54 L1263.5 1587.74 L1257.64 1587.74 L1257.64 1568.84 Z" fill="#000000" fill-rule="evenodd" fill-opacity="1" /><path clip-path="url(#clip440)" d="M1274.95 1560.12 L1274.95 1538.54 L1280.81 1538.54 L1280.81 1559.89 Q1280.81 1564.96 1282.78 1567.5 Q1284.76 1570.02 1288.7 1570.02 Q1293.45 1570.02 1296.18 1566.99 Q1298.95 1563.97 1298.95 1558.75 L1298.95 1538.54 L1304.81 1538.54 L1304.81 1574.19 L1298.95 1574.19 L1298.95 1568.71 Q1296.82 1571.96 1293.99 1573.55 Q1291.19 1575.11 1287.46 1575.11 Q1281.32 1575.11 1278.14 1571.29 Q1274.95 1567.47 1274.95 1560.12 M1289.69 1537.68 L1289.69 1537.68 Z" fill="#000000" fill-rule="evenodd" fill-opacity="1" /><path clip-path="url(#clip440)" d="M1347.36 1554.9 L1347.36 1557.76 L1320.44 1557.76 Q1320.82 1563.81 1324.07 1566.99 Q1327.34 1570.14 1333.17 1570.14 Q1336.54 1570.14 1339.69 1569.32 Q1342.88 1568.49 1346 1566.83 L1346 1572.37 Q1342.84 1573.71 1339.53 1574.41 Q1336.22 1575.11 1332.82 1575.11 Q1324.29 1575.11 1319.29 1570.14 Q1314.33 1565.18 1314.33 1556.71 Q1314.33 1547.96 1319.04 1542.83 Q1323.78 1537.68 1331.8 1537.68 Q1338.99 1537.68 1343.16 1542.33 Q1347.36 1546.94 1347.36 1554.9 M1341.51 1553.18 Q1341.44 1548.37 1338.8 1545.51 Q1336.19 1542.64 1331.86 1542.64 Q1326.96 1542.64 1324 1545.41 Q1321.07 1548.18 1320.63 1553.21 L1341.51 1553.18 Z" fill="#000000" fill-rule="evenodd" fill-opacity="1" /><path clip-path="url(#clip440)" d="M1386.61 1552.67 L1386.61 1574.19 L1380.75 1574.19 L1380.75 1552.86 Q1380.75 1547.8 1378.78 1545.29 Q1376.81 1542.77 1372.86 1542.77 Q1368.12 1542.77 1365.38 1545.79 Q1362.64 1548.82 1362.64 1554.04 L1362.64 1574.19 L1356.75 1574.19 L1356.75 1538.54 L1362.64 1538.54 L1362.64 1544.08 Q1364.74 1540.86 1367.58 1539.27 Q1370.44 1537.68 1374.16 1537.68 Q1380.31 1537.68 1383.46 1541.5 Q1386.61 1545.29 1386.61 1552.67 Z" fill="#000000" fill-rule="evenodd" fill-opacity="1" /><path clip-path="url(#clip440)" d="M1423.94 1539.91 L1423.94 1545.38 Q1421.46 1544.01 1418.95 1543.34 Q1416.46 1542.64 1413.92 1542.64 Q1408.22 1542.64 1405.07 1546.27 Q1401.92 1549.87 1401.92 1556.39 Q1401.92 1562.92 1405.07 1566.55 Q1408.22 1570.14 1413.92 1570.14 Q1416.46 1570.14 1418.95 1569.47 Q1421.46 1568.77 1423.94 1567.41 L1423.94 1572.82 Q1421.49 1573.96 1418.85 1574.54 Q1416.24 1575.11 1413.28 1575.11 Q1405.23 1575.11 1400.49 1570.05 Q1395.74 1564.99 1395.74 1556.39 Q1395.74 1547.67 1400.52 1542.68 Q1405.32 1537.68 1413.66 1537.68 Q1416.37 1537.68 1418.95 1538.25 Q1421.52 1538.79 1423.94 1539.91 Z" fill="#000000" fill-rule="evenodd" fill-opacity="1" /><path clip-path="url(#clip440)" d="M1448.96 1577.5 Q1446.48 1583.86 1444.12 1585.8 Q1441.77 1587.74 1437.82 1587.74 L1433.14 1587.74 L1433.14 1582.84 L1436.58 1582.84 Q1439 1582.84 1440.34 1581.7 Q1441.67 1580.55 1443.3 1576.29 L1444.35 1573.61 L1429.93 1538.54 L1436.13 1538.54 L1447.27 1566.42 L1458.41 1538.54 L1464.62 1538.54 L1448.96 1577.5 Z" fill="#000000" fill-rule="evenodd" fill-opacity="1" /><path clip-path="url(#clip440)" d="M1492.88 1524.66 L1506.38 1524.66 L1506.38 1529.21 L1498.74 1529.21 L1498.74 1578.23 L1506.38 1578.23 L1506.38 1582.78 L1492.88 1582.78 L1492.88 1524.66 Z" fill="#000000" fill-rule="evenodd" fill-opacity="1" /><path clip-path="url(#clip440)" d="M1519.11 1526.67 L1525.54 1526.67 L1525.54 1546.14 L1548.9 1546.14 L1548.9 1526.67 L1555.33 1526.67 L1555.33 1574.19 L1548.9 1574.19 L1548.9 1551.56 L1525.54 1551.56 L1525.54 1574.19 L1519.11 1574.19 L1519.11 1526.67 Z" fill="#000000" fill-rule="evenodd" fill-opacity="1" /><path clip-path="url(#clip440)" d="M1565.33 1538.54 L1593.14 1538.54 L1593.14 1543.88 L1571.12 1569.51 L1593.14 1569.51 L1593.14 1574.19 L1564.53 1574.19 L1564.53 1568.84 L1586.56 1543.22 L1565.33 1543.22 L1565.33 1538.54 Z" fill="#000000" fill-rule="evenodd" fill-opacity="1" /><path clip-path="url(#clip440)" d="M1615.77 1524.66 L1615.77 1582.78 L1602.28 1582.78 L1602.28 1578.23 L1609.89 1578.23 L1609.89 1529.21 L1602.28 1529.21 L1602.28 1524.66 L1615.77 1524.66 Z" fill="#000000" fill-rule="evenodd" fill-opacity="1" /><polyline clip-path="url(#clip442)" style="stroke:#000000; stroke-linecap:butt; stroke-linejoin:round; stroke-width:2; stroke-opacity:0.1; fill:none" points="
  399.232,1375.81 2352.76,1375.81 
  "/>
<polyline clip-path="url(#clip442)" style="stroke:#000000; stroke-linecap:butt; stroke-linejoin:round; stroke-width:2; stroke-opacity:0.1; fill:none" points="
  399.232,1064.96 2352.76,1064.96 
  "/>
<polyline clip-path="url(#clip442)" style="stroke:#000000; stroke-linecap:butt; stroke-linejoin:round; stroke-width:2; stroke-opacity:0.1; fill:none" points="
  399.232,754.11 2352.76,754.11 
  "/>
<polyline clip-path="url(#clip442)" style="stroke:#000000; stroke-linecap:butt; stroke-linejoin:round; stroke-width:2; stroke-opacity:0.1; fill:none" points="
  399.232,443.259 2352.76,443.259 
  "/>
<polyline clip-path="url(#clip442)" style="stroke:#000000; stroke-linecap:butt; stroke-linejoin:round; stroke-width:2; stroke-opacity:0.1; fill:none" points="
  399.232,132.408 2352.76,132.408 
  "/>
<polyline clip-path="url(#clip440)" style="stroke:#000000; stroke-linecap:butt; stroke-linejoin:round; stroke-width:4; stroke-opacity:1; fill:none" points="
  399.232,1410.9 399.232,47.2441 
  "/>
<polyline clip-path="url(#clip440)" style="stroke:#000000; stroke-linecap:butt; stroke-linejoin:round; stroke-width:4; stroke-opacity:1; fill:none" points="
  399.232,1375.81 418.129,1375.81 
  "/>
<polyline clip-path="url(#clip440)" style="stroke:#000000; stroke-linecap:butt; stroke-linejoin:round; stroke-width:4; stroke-opacity:1; fill:none" points="
  399.232,1064.96 418.129,1064.96 
  "/>
<polyline clip-path="url(#clip440)" style="stroke:#000000; stroke-linecap:butt; stroke-linejoin:round; stroke-width:4; stroke-opacity:1; fill:none" points="
  399.232,754.11 418.129,754.11 
  "/>
<polyline clip-path="url(#clip440)" style="stroke:#000000; stroke-linecap:butt; stroke-linejoin:round; stroke-width:4; stroke-opacity:1; fill:none" points="
  399.232,443.259 418.129,443.259 
  "/>
<polyline clip-path="url(#clip440)" style="stroke:#000000; stroke-linecap:butt; stroke-linejoin:round; stroke-width:4; stroke-opacity:1; fill:none" points="
  399.232,132.408 418.129,132.408 
  "/>
<path clip-path="url(#clip440)" d="M351.287 1361.61 Q347.676 1361.61 345.847 1365.18 Q344.042 1368.72 344.042 1375.85 Q344.042 1382.95 345.847 1386.52 Q347.676 1390.06 351.287 1390.06 Q354.921 1390.06 356.727 1386.52 Q358.556 1382.95 358.556 1375.85 Q358.556 1368.72 356.727 1365.18 Q354.921 1361.61 351.287 1361.61 M351.287 1357.91 Q357.097 1357.91 360.153 1362.51 Q363.232 1367.1 363.232 1375.85 Q363.232 1384.57 360.153 1389.18 Q357.097 1393.76 351.287 1393.76 Q345.477 1393.76 342.398 1389.18 Q339.343 1384.57 339.343 1375.85 Q339.343 1367.1 342.398 1362.51 Q345.477 1357.91 351.287 1357.91 Z" fill="#000000" fill-rule="evenodd" fill-opacity="1" /><path clip-path="url(#clip440)" d="M119.885 1084.75 L136.204 1084.75 L136.204 1088.69 L114.26 1088.69 L114.26 1084.75 Q116.922 1082 121.505 1077.37 Q126.112 1072.72 127.292 1071.37 Q129.538 1068.85 130.417 1067.11 Q131.32 1065.36 131.32 1063.67 Q131.32 1060.91 129.376 1059.17 Q127.455 1057.44 124.353 1057.44 Q122.154 1057.44 119.7 1058.2 Q117.269 1058.97 114.492 1060.52 L114.492 1055.8 Q117.316 1054.66 119.769 1054.08 Q122.223 1053.5 124.26 1053.5 Q129.63 1053.5 132.825 1056.19 Q136.019 1058.87 136.019 1063.36 Q136.019 1065.49 135.209 1067.42 Q134.422 1069.31 132.316 1071.91 Q131.737 1072.58 128.635 1075.8 Q125.533 1078.99 119.885 1084.75 Z" fill="#000000" fill-rule="evenodd" fill-opacity="1" /><path clip-path="url(#clip440)" d="M146.019 1082.81 L150.903 1082.81 L150.903 1088.69 L146.019 1088.69 L146.019 1082.81 Z" fill="#000000" fill-rule="evenodd" fill-opacity="1" /><path clip-path="url(#clip440)" d="M161.135 1054.13 L179.491 1054.13 L179.491 1058.06 L165.417 1058.06 L165.417 1066.54 Q166.436 1066.19 167.454 1066.03 Q168.473 1065.84 169.491 1065.84 Q175.278 1065.84 178.658 1069.01 Q182.038 1072.18 182.038 1077.6 Q182.038 1083.18 178.565 1086.28 Q175.093 1089.36 168.774 1089.36 Q166.598 1089.36 164.329 1088.99 Q162.084 1088.62 159.677 1087.88 L159.677 1083.18 Q161.76 1084.31 163.982 1084.87 Q166.204 1085.42 168.681 1085.42 Q172.686 1085.42 175.024 1083.32 Q177.362 1081.21 177.362 1077.6 Q177.362 1073.99 175.024 1071.88 Q172.686 1069.78 168.681 1069.78 Q166.806 1069.78 164.931 1070.19 Q163.079 1070.61 161.135 1071.49 L161.135 1054.13 Z" fill="#000000" fill-rule="evenodd" fill-opacity="1" /><path clip-path="url(#clip440)" d="M201.25 1057.21 Q197.639 1057.21 195.811 1060.77 Q194.005 1064.31 194.005 1071.44 Q194.005 1078.55 195.811 1082.11 Q197.639 1085.66 201.25 1085.66 Q204.885 1085.66 206.69 1082.11 Q208.519 1078.55 208.519 1071.44 Q208.519 1064.31 206.69 1060.77 Q204.885 1057.21 201.25 1057.21 M201.25 1053.5 Q207.061 1053.5 210.116 1058.11 Q213.195 1062.69 213.195 1071.44 Q213.195 1080.17 210.116 1084.78 Q207.061 1089.36 201.25 1089.36 Q195.44 1089.36 192.362 1084.78 Q189.306 1080.17 189.306 1071.44 Q189.306 1062.69 192.362 1058.11 Q195.44 1053.5 201.25 1053.5 Z" fill="#000000" fill-rule="evenodd" fill-opacity="1" /><path clip-path="url(#clip440)" d="M249.584 1063.23 L239.005 1073.85 L249.584 1084.43 L246.829 1087.23 L236.204 1076.61 L225.579 1087.23 L222.848 1084.43 L233.403 1073.85 L222.848 1063.23 L225.579 1060.42 L236.204 1071.05 L246.829 1060.42 L249.584 1063.23 Z" fill="#000000" fill-rule="evenodd" fill-opacity="1" /><path clip-path="url(#clip440)" d="M261.945 1084.75 L269.583 1084.75 L269.583 1058.39 L261.273 1060.05 L261.273 1055.8 L269.537 1054.13 L274.213 1054.13 L274.213 1084.75 L281.852 1084.75 L281.852 1088.69 L261.945 1088.69 L261.945 1084.75 Z" fill="#000000" fill-rule="evenodd" fill-opacity="1" /><path clip-path="url(#clip440)" d="M301.296 1057.21 Q297.685 1057.21 295.856 1060.77 Q294.051 1064.31 294.051 1071.44 Q294.051 1078.55 295.856 1082.11 Q297.685 1085.66 301.296 1085.66 Q304.93 1085.66 306.736 1082.11 Q308.565 1078.55 308.565 1071.44 Q308.565 1064.31 306.736 1060.77 Q304.93 1057.21 301.296 1057.21 M301.296 1053.5 Q307.106 1053.5 310.162 1058.11 Q313.241 1062.69 313.241 1071.44 Q313.241 1080.17 310.162 1084.78 Q307.106 1089.36 301.296 1089.36 Q295.486 1089.36 292.407 1084.78 Q289.352 1080.17 289.352 1071.44 Q289.352 1062.69 292.407 1058.11 Q295.486 1053.5 301.296 1053.5 Z" fill="#000000" fill-rule="evenodd" fill-opacity="1" /><path clip-path="url(#clip440)" d="M313.241 1047.6 L337.352 1047.6 L337.352 1050.8 L313.241 1050.8 L313.241 1047.6 Z" fill="#000000" fill-rule="evenodd" fill-opacity="1" /><path clip-path="url(#clip440)" d="M345.665 1060.7 L345.665 1057.23 Q347.095 1057.91 348.562 1058.27 Q350.029 1058.63 351.439 1058.63 Q355.201 1058.63 357.176 1056.11 Q359.169 1053.57 359.451 1048.41 Q358.36 1050.03 356.687 1050.9 Q355.013 1051.76 352.981 1051.76 Q348.768 1051.76 346.305 1049.22 Q343.86 1046.66 343.86 1042.24 Q343.86 1037.92 346.417 1035.3 Q348.975 1032.69 353.226 1032.69 Q358.097 1032.69 360.655 1036.43 Q363.232 1040.16 363.232 1047.27 Q363.232 1053.91 360.072 1057.87 Q356.931 1061.82 351.608 1061.82 Q350.179 1061.82 348.712 1061.54 Q347.245 1061.26 345.665 1060.7 M353.226 1048.79 Q355.784 1048.79 357.27 1047.04 Q358.774 1045.29 358.774 1042.24 Q358.774 1039.22 357.27 1037.47 Q355.784 1035.7 353.226 1035.7 Q350.668 1035.7 349.163 1037.47 Q347.678 1039.22 347.678 1042.24 Q347.678 1045.29 349.163 1047.04 Q350.668 1048.79 353.226 1048.79 Z" fill="#000000" fill-rule="evenodd" fill-opacity="1" /><path clip-path="url(#clip440)" d="M115.904 743.278 L134.26 743.278 L134.26 747.213 L120.186 747.213 L120.186 755.685 Q121.205 755.338 122.223 755.176 Q123.242 754.991 124.26 754.991 Q130.047 754.991 133.427 758.162 Q136.806 761.333 136.806 766.75 Q136.806 772.329 133.334 775.43 Q129.862 778.509 123.543 778.509 Q121.367 778.509 119.098 778.139 Q116.853 777.768 114.445 777.028 L114.445 772.329 Q116.529 773.463 118.751 774.018 Q120.973 774.574 123.45 774.574 Q127.455 774.574 129.792 772.467 Q132.13 770.361 132.13 766.75 Q132.13 763.139 129.792 761.032 Q127.455 758.926 123.45 758.926 Q121.575 758.926 119.7 759.342 Q117.848 759.759 115.904 760.639 L115.904 743.278 Z" fill="#000000" fill-rule="evenodd" fill-opacity="1" /><path clip-path="url(#clip440)" d="M146.019 771.958 L150.903 771.958 L150.903 777.838 L146.019 777.838 L146.019 771.958 Z" fill="#000000" fill-rule="evenodd" fill-opacity="1" /><path clip-path="url(#clip440)" d="M171.089 746.356 Q167.477 746.356 165.649 749.921 Q163.843 753.463 163.843 760.592 Q163.843 767.699 165.649 771.264 Q167.477 774.805 171.089 774.805 Q174.723 774.805 176.528 771.264 Q178.357 767.699 178.357 760.592 Q178.357 753.463 176.528 749.921 Q174.723 746.356 171.089 746.356 M171.089 742.653 Q176.899 742.653 179.954 747.259 Q183.033 751.843 183.033 760.592 Q183.033 769.319 179.954 773.926 Q176.899 778.509 171.089 778.509 Q165.278 778.509 162.2 773.926 Q159.144 769.319 159.144 760.592 Q159.144 751.843 162.2 747.259 Q165.278 742.653 171.089 742.653 Z" fill="#000000" fill-rule="evenodd" fill-opacity="1" /><path clip-path="url(#clip440)" d="M201.25 746.356 Q197.639 746.356 195.811 749.921 Q194.005 753.463 194.005 760.592 Q194.005 767.699 195.811 771.264 Q197.639 774.805 201.25 774.805 Q204.885 774.805 206.69 771.264 Q208.519 767.699 208.519 760.592 Q208.519 753.463 206.69 749.921 Q204.885 746.356 201.25 746.356 M201.25 742.653 Q207.061 742.653 210.116 747.259 Q213.195 751.843 213.195 760.592 Q213.195 769.319 210.116 773.926 Q207.061 778.509 201.25 778.509 Q195.44 778.509 192.362 773.926 Q189.306 769.319 189.306 760.592 Q189.306 751.843 192.362 747.259 Q195.44 742.653 201.25 742.653 Z" fill="#000000" fill-rule="evenodd" fill-opacity="1" /><path clip-path="url(#clip440)" d="M249.584 752.375 L239.005 763 L249.584 773.579 L246.829 776.379 L236.204 765.754 L225.579 776.379 L222.848 773.579 L233.403 763 L222.848 752.375 L225.579 749.574 L236.204 760.199 L246.829 749.574 L249.584 752.375 Z" fill="#000000" fill-rule="evenodd" fill-opacity="1" /><path clip-path="url(#clip440)" d="M261.945 773.903 L269.583 773.903 L269.583 747.537 L261.273 749.204 L261.273 744.944 L269.537 743.278 L274.213 743.278 L274.213 773.903 L281.852 773.903 L281.852 777.838 L261.945 777.838 L261.945 773.903 Z" fill="#000000" fill-rule="evenodd" fill-opacity="1" /><path clip-path="url(#clip440)" d="M301.296 746.356 Q297.685 746.356 295.856 749.921 Q294.051 753.463 294.051 760.592 Q294.051 767.699 295.856 771.264 Q297.685 774.805 301.296 774.805 Q304.93 774.805 306.736 771.264 Q308.565 767.699 308.565 760.592 Q308.565 753.463 306.736 749.921 Q304.93 746.356 301.296 746.356 M301.296 742.653 Q307.106 742.653 310.162 747.259 Q313.241 751.843 313.241 760.592 Q313.241 769.319 310.162 773.926 Q307.106 778.509 301.296 778.509 Q295.486 778.509 292.407 773.926 Q289.352 769.319 289.352 760.592 Q289.352 751.843 292.407 747.259 Q295.486 742.653 301.296 742.653 Z" fill="#000000" fill-rule="evenodd" fill-opacity="1" /><path clip-path="url(#clip440)" d="M313.241 736.754 L337.352 736.754 L337.352 739.951 L313.241 739.951 L313.241 736.754 Z" fill="#000000" fill-rule="evenodd" fill-opacity="1" /><path clip-path="url(#clip440)" d="M345.665 749.844 L345.665 746.384 Q347.095 747.061 348.562 747.418 Q350.029 747.775 351.439 747.775 Q355.201 747.775 357.176 745.255 Q359.169 742.716 359.451 737.563 Q358.36 739.18 356.687 740.045 Q355.013 740.911 352.981 740.911 Q348.768 740.911 346.305 738.372 Q343.86 735.814 343.86 731.394 Q343.86 727.068 346.417 724.454 Q348.975 721.84 353.226 721.84 Q358.097 721.84 360.655 725.582 Q363.232 729.306 363.232 736.416 Q363.232 743.055 360.072 747.023 Q356.931 750.973 351.608 750.973 Q350.179 750.973 348.712 750.691 Q347.245 750.409 345.665 749.844 M353.226 737.939 Q355.784 737.939 357.27 736.19 Q358.774 734.441 358.774 731.394 Q358.774 728.366 357.27 726.617 Q355.784 724.849 353.226 724.849 Q350.668 724.849 349.163 726.617 Q347.678 728.366 347.678 731.394 Q347.678 734.441 349.163 736.19 Q350.668 737.939 353.226 737.939 Z" fill="#000000" fill-rule="evenodd" fill-opacity="1" /><path clip-path="url(#clip440)" d="M114.677 432.427 L136.899 432.427 L136.899 434.418 L124.353 466.987 L119.468 466.987 L131.274 436.362 L114.677 436.362 L114.677 432.427 Z" fill="#000000" fill-rule="evenodd" fill-opacity="1" /><path clip-path="url(#clip440)" d="M146.019 461.107 L150.903 461.107 L150.903 466.987 L146.019 466.987 L146.019 461.107 Z" fill="#000000" fill-rule="evenodd" fill-opacity="1" /><path clip-path="url(#clip440)" d="M161.135 432.427 L179.491 432.427 L179.491 436.362 L165.417 436.362 L165.417 444.834 Q166.436 444.487 167.454 444.325 Q168.473 444.14 169.491 444.14 Q175.278 444.14 178.658 447.311 Q182.038 450.482 182.038 455.899 Q182.038 461.478 178.565 464.579 Q175.093 467.658 168.774 467.658 Q166.598 467.658 164.329 467.288 Q162.084 466.917 159.677 466.177 L159.677 461.478 Q161.76 462.612 163.982 463.167 Q166.204 463.723 168.681 463.723 Q172.686 463.723 175.024 461.617 Q177.362 459.51 177.362 455.899 Q177.362 452.288 175.024 450.181 Q172.686 448.075 168.681 448.075 Q166.806 448.075 164.931 448.492 Q163.079 448.908 161.135 449.788 L161.135 432.427 Z" fill="#000000" fill-rule="evenodd" fill-opacity="1" /><path clip-path="url(#clip440)" d="M201.25 435.506 Q197.639 435.506 195.811 439.07 Q194.005 442.612 194.005 449.742 Q194.005 456.848 195.811 460.413 Q197.639 463.954 201.25 463.954 Q204.885 463.954 206.69 460.413 Q208.519 456.848 208.519 449.742 Q208.519 442.612 206.69 439.07 Q204.885 435.506 201.25 435.506 M201.25 431.802 Q207.061 431.802 210.116 436.408 Q213.195 440.992 213.195 449.742 Q213.195 458.468 210.116 463.075 Q207.061 467.658 201.25 467.658 Q195.44 467.658 192.362 463.075 Q189.306 458.468 189.306 449.742 Q189.306 440.992 192.362 436.408 Q195.44 431.802 201.25 431.802 Z" fill="#000000" fill-rule="evenodd" fill-opacity="1" /><path clip-path="url(#clip440)" d="M249.584 441.524 L239.005 452.149 L249.584 462.728 L246.829 465.529 L236.204 454.904 L225.579 465.529 L222.848 462.728 L233.403 452.149 L222.848 441.524 L225.579 438.723 L236.204 449.348 L246.829 438.723 L249.584 441.524 Z" fill="#000000" fill-rule="evenodd" fill-opacity="1" /><path clip-path="url(#clip440)" d="M261.945 463.052 L269.583 463.052 L269.583 436.686 L261.273 438.353 L261.273 434.094 L269.537 432.427 L274.213 432.427 L274.213 463.052 L281.852 463.052 L281.852 466.987 L261.945 466.987 L261.945 463.052 Z" fill="#000000" fill-rule="evenodd" fill-opacity="1" /><path clip-path="url(#clip440)" d="M301.296 435.506 Q297.685 435.506 295.856 439.07 Q294.051 442.612 294.051 449.742 Q294.051 456.848 295.856 460.413 Q297.685 463.954 301.296 463.954 Q304.93 463.954 306.736 460.413 Q308.565 456.848 308.565 449.742 Q308.565 442.612 306.736 439.07 Q304.93 435.506 301.296 435.506 M301.296 431.802 Q307.106 431.802 310.162 436.408 Q313.241 440.992 313.241 449.742 Q313.241 458.468 310.162 463.075 Q307.106 467.658 301.296 467.658 Q295.486 467.658 292.407 463.075 Q289.352 458.468 289.352 449.742 Q289.352 440.992 292.407 436.408 Q295.486 431.802 301.296 431.802 Z" fill="#000000" fill-rule="evenodd" fill-opacity="1" /><path clip-path="url(#clip440)" d="M313.241 425.903 L337.352 425.903 L337.352 429.101 L313.241 429.101 L313.241 425.903 Z" fill="#000000" fill-rule="evenodd" fill-opacity="1" /><path clip-path="url(#clip440)" d="M345.665 438.993 L345.665 435.533 Q347.095 436.21 348.562 436.567 Q350.029 436.925 351.439 436.925 Q355.201 436.925 357.176 434.404 Q359.169 431.865 359.451 426.712 Q358.36 428.329 356.687 429.195 Q355.013 430.06 352.981 430.06 Q348.768 430.06 346.305 427.521 Q343.86 424.963 343.86 420.543 Q343.86 416.217 346.417 413.603 Q348.975 410.989 353.226 410.989 Q358.097 410.989 360.655 414.731 Q363.232 418.455 363.232 425.565 Q363.232 432.204 360.072 436.172 Q356.931 440.122 351.608 440.122 Q350.179 440.122 348.712 439.84 Q347.245 439.558 345.665 438.993 M353.226 427.088 Q355.784 427.088 357.27 425.339 Q358.774 423.59 358.774 420.543 Q358.774 417.515 357.27 415.766 Q355.784 413.998 353.226 413.998 Q350.668 413.998 349.163 415.766 Q347.678 417.515 347.678 420.543 Q347.678 423.59 349.163 425.339 Q350.668 427.088 353.226 427.088 Z" fill="#000000" fill-rule="evenodd" fill-opacity="1" /><path clip-path="url(#clip440)" d="M116.592 152.201 L124.231 152.201 L124.231 125.835 L115.921 127.502 L115.921 123.243 L124.185 121.576 L128.861 121.576 L128.861 152.201 L136.5 152.201 L136.5 156.136 L116.592 156.136 L116.592 152.201 Z" fill="#000000" fill-rule="evenodd" fill-opacity="1" /><path clip-path="url(#clip440)" d="M145.944 150.256 L150.828 150.256 L150.828 156.136 L145.944 156.136 L145.944 150.256 Z" fill="#000000" fill-rule="evenodd" fill-opacity="1" /><path clip-path="url(#clip440)" d="M171.013 124.655 Q167.402 124.655 165.574 128.219 Q163.768 131.761 163.768 138.891 Q163.768 145.997 165.574 149.562 Q167.402 153.104 171.013 153.104 Q174.648 153.104 176.453 149.562 Q178.282 145.997 178.282 138.891 Q178.282 131.761 176.453 128.219 Q174.648 124.655 171.013 124.655 M171.013 120.951 Q176.823 120.951 179.879 125.557 Q182.958 130.141 182.958 138.891 Q182.958 147.617 179.879 152.224 Q176.823 156.807 171.013 156.807 Q165.203 156.807 162.124 152.224 Q159.069 147.617 159.069 138.891 Q159.069 130.141 162.124 125.557 Q165.203 120.951 171.013 120.951 Z" fill="#000000" fill-rule="evenodd" fill-opacity="1" /><path clip-path="url(#clip440)" d="M201.175 124.655 Q197.564 124.655 195.735 128.219 Q193.93 131.761 193.93 138.891 Q193.93 145.997 195.735 149.562 Q197.564 153.104 201.175 153.104 Q204.809 153.104 206.615 149.562 Q208.444 145.997 208.444 138.891 Q208.444 131.761 206.615 128.219 Q204.809 124.655 201.175 124.655 M201.175 120.951 Q206.985 120.951 210.041 125.557 Q213.12 130.141 213.12 138.891 Q213.12 147.617 210.041 152.224 Q206.985 156.807 201.175 156.807 Q195.365 156.807 192.286 152.224 Q189.231 147.617 189.231 138.891 Q189.231 130.141 192.286 125.557 Q195.365 120.951 201.175 120.951 Z" fill="#000000" fill-rule="evenodd" fill-opacity="1" /><path clip-path="url(#clip440)" d="M249.508 130.673 L238.93 141.298 L249.508 151.877 L246.754 154.678 L236.129 144.053 L225.504 154.678 L222.772 151.877 L233.328 141.298 L222.772 130.673 L225.504 127.872 L236.129 138.497 L246.754 127.872 L249.508 130.673 Z" fill="#000000" fill-rule="evenodd" fill-opacity="1" /><path clip-path="url(#clip440)" d="M261.869 152.201 L269.508 152.201 L269.508 125.835 L261.198 127.502 L261.198 123.243 L269.462 121.576 L274.138 121.576 L274.138 152.201 L281.777 152.201 L281.777 156.136 L261.869 156.136 L261.869 152.201 Z" fill="#000000" fill-rule="evenodd" fill-opacity="1" /><path clip-path="url(#clip440)" d="M301.221 124.655 Q297.61 124.655 295.781 128.219 Q293.976 131.761 293.976 138.891 Q293.976 145.997 295.781 149.562 Q297.61 153.104 301.221 153.104 Q304.855 153.104 306.661 149.562 Q308.489 145.997 308.489 138.891 Q308.489 131.761 306.661 128.219 Q304.855 124.655 301.221 124.655 M301.221 120.951 Q307.031 120.951 310.087 125.557 Q313.165 130.141 313.165 138.891 Q313.165 147.617 310.087 152.224 Q307.031 156.807 301.221 156.807 Q295.411 156.807 292.332 152.224 Q289.277 147.617 289.277 138.891 Q289.277 130.141 292.332 125.557 Q295.411 120.951 301.221 120.951 Z" fill="#000000" fill-rule="evenodd" fill-opacity="1" /><path clip-path="url(#clip440)" d="M313.165 115.052 L337.277 115.052 L337.277 118.25 L313.165 118.25 L313.165 115.052 Z" fill="#000000" fill-rule="evenodd" fill-opacity="1" /><path clip-path="url(#clip440)" d="M353.602 115.391 Q350.894 115.391 349.333 116.839 Q347.79 118.287 347.79 120.826 Q347.79 123.365 349.333 124.814 Q350.894 126.262 353.602 126.262 Q356.31 126.262 357.871 124.814 Q359.432 123.347 359.432 120.826 Q359.432 118.287 357.871 116.839 Q356.329 115.391 353.602 115.391 M349.803 113.773 Q347.358 113.172 345.985 111.498 Q344.631 109.824 344.631 107.416 Q344.631 104.05 347.019 102.094 Q349.427 100.138 353.602 100.138 Q357.796 100.138 360.185 102.094 Q362.573 104.05 362.573 107.416 Q362.573 109.824 361.2 111.498 Q359.846 113.172 357.42 113.773 Q360.166 114.413 361.689 116.275 Q363.232 118.137 363.232 120.826 Q363.232 124.908 360.73 127.089 Q358.248 129.271 353.602 129.271 Q348.957 129.271 346.455 127.089 Q343.972 124.908 343.972 120.826 Q343.972 118.137 345.515 116.275 Q347.057 114.413 349.803 113.773 M348.411 107.774 Q348.411 109.955 349.765 111.178 Q351.138 112.4 353.602 112.4 Q356.047 112.4 357.42 111.178 Q358.812 109.955 358.812 107.774 Q358.812 105.592 357.42 104.37 Q356.047 103.147 353.602 103.147 Q351.138 103.147 349.765 104.37 Q348.411 105.592 348.411 107.774 Z" fill="#000000" fill-rule="evenodd" fill-opacity="1" /><path clip-path="url(#clip440)" d="M18.0438 1197.94 L24.314 1197.94 Q22.5634 1201.6 21.704 1204.84 Q20.8447 1208.09 20.8447 1211.11 Q20.8447 1216.37 22.8817 1219.23 Q24.9187 1222.06 28.6745 1222.06 Q31.8255 1222.06 33.4488 1220.18 Q35.0402 1218.27 36.0269 1212.99 L36.8226 1209.11 Q38.1912 1201.92 41.6605 1198.51 Q45.098 1195.07 50.8908 1195.07 Q57.7976 1195.07 61.3624 1199.72 Q64.9272 1204.33 64.9272 1213.28 Q64.9272 1216.65 64.1633 1220.47 Q63.3994 1224.26 61.9035 1228.33 L55.2831 1228.33 Q57.4793 1224.42 58.5933 1220.66 Q59.7073 1216.91 59.7073 1213.28 Q59.7073 1207.77 57.543 1204.78 Q55.3786 1201.79 51.3682 1201.79 Q47.8671 1201.79 45.8937 1203.95 Q43.9204 1206.08 42.9337 1210.99 L42.1698 1214.9 Q40.7375 1222.09 37.682 1225.31 Q34.6264 1228.52 29.1837 1228.52 Q22.8817 1228.52 19.2532 1224.1 Q15.6248 1219.64 15.6248 1211.85 Q15.6248 1208.5 16.2295 1205.03 Q16.8343 1201.56 18.0438 1197.94 Z" fill="#000000" fill-rule="evenodd" fill-opacity="1" /><path clip-path="url(#clip440)" d="M58.657 1179.64 L77.5631 1179.64 L77.5631 1185.52 L28.3562 1185.52 L28.3562 1179.64 L33.7671 1179.64 Q30.5842 1177.79 29.0564 1174.99 Q27.4968 1172.16 27.4968 1168.24 Q27.4968 1161.75 32.6531 1157.71 Q37.8093 1153.63 46.212 1153.63 Q54.6147 1153.63 59.771 1157.71 Q64.9272 1161.75 64.9272 1168.24 Q64.9272 1172.16 63.3994 1174.99 Q61.8398 1177.79 58.657 1179.64 M46.212 1159.71 Q39.7508 1159.71 36.0905 1162.38 Q32.3984 1165.03 32.3984 1169.67 Q32.3984 1174.32 36.0905 1176.99 Q39.7508 1179.64 46.212 1179.64 Q52.6732 1179.64 56.3653 1176.99 Q60.0256 1174.32 60.0256 1169.67 Q60.0256 1165.03 56.3653 1162.38 Q52.6732 1159.71 46.212 1159.71 Z" fill="#000000" fill-rule="evenodd" fill-opacity="1" /><path clip-path="url(#clip440)" d="M44.7161 1113.43 L47.5806 1113.43 L47.5806 1140.36 Q53.6281 1139.98 56.8109 1136.73 Q59.9619 1133.45 59.9619 1127.63 Q59.9619 1124.25 59.1344 1121.1 Q58.3069 1117.92 56.6518 1114.8 L62.1899 1114.8 Q63.5267 1117.95 64.227 1121.26 Q64.9272 1124.57 64.9272 1127.98 Q64.9272 1136.51 59.9619 1141.5 Q54.9967 1146.47 46.5303 1146.47 Q37.7774 1146.47 32.6531 1141.76 Q27.4968 1137.02 27.4968 1129 Q27.4968 1121.8 32.1438 1117.63 Q36.7589 1113.43 44.7161 1113.43 M42.9973 1119.29 Q38.1912 1119.35 35.3266 1121.99 Q32.4621 1124.6 32.4621 1128.93 Q32.4621 1133.83 35.2312 1136.79 Q38.0002 1139.72 43.0292 1140.17 L42.9973 1119.29 Z" fill="#000000" fill-rule="evenodd" fill-opacity="1" /><path clip-path="url(#clip440)" d="M29.7248 1078.17 L35.1993 1078.17 Q33.8307 1080.65 33.1623 1083.16 Q32.4621 1085.65 32.4621 1088.19 Q32.4621 1093.89 36.0905 1097.04 Q39.6872 1100.19 46.212 1100.19 Q52.7369 1100.19 56.3653 1097.04 Q59.9619 1093.89 59.9619 1088.19 Q59.9619 1085.65 59.2935 1083.16 Q58.5933 1080.65 57.2247 1078.17 L62.6355 1078.17 Q63.7814 1080.62 64.3543 1083.26 Q64.9272 1085.87 64.9272 1088.83 Q64.9272 1096.88 59.8664 1101.62 Q54.8057 1106.37 46.212 1106.37 Q37.491 1106.37 32.4939 1101.59 Q27.4968 1096.79 27.4968 1088.45 Q27.4968 1085.74 28.0697 1083.16 Q28.6108 1080.58 29.7248 1078.17 Z" fill="#000000" fill-rule="evenodd" fill-opacity="1" /><path clip-path="url(#clip440)" d="M18.2347 1062.19 L28.3562 1062.19 L28.3562 1050.12 L32.9077 1050.12 L32.9077 1062.19 L52.2594 1062.19 Q56.6199 1062.19 57.8613 1061.01 Q59.1026 1059.8 59.1026 1056.14 L59.1026 1050.12 L64.0042 1050.12 L64.0042 1056.14 Q64.0042 1062.92 61.4897 1065.5 Q58.9434 1068.08 52.2594 1068.08 L32.9077 1068.08 L32.9077 1072.37 L28.3562 1072.37 L28.3562 1068.08 L18.2347 1068.08 L18.2347 1062.19 Z" fill="#000000" fill-rule="evenodd" fill-opacity="1" /><path clip-path="url(#clip440)" d="M33.8307 1021.77 Q33.2578 1022.75 33.0032 1023.93 Q32.7167 1025.08 32.7167 1026.48 Q32.7167 1031.44 35.9632 1034.12 Q39.1779 1036.76 45.2253 1036.76 L64.0042 1036.76 L64.0042 1042.65 L28.3562 1042.65 L28.3562 1036.76 L33.8944 1036.76 Q30.6479 1034.91 29.0883 1031.95 Q27.4968 1028.99 27.4968 1024.76 Q27.4968 1024.15 27.5923 1023.42 Q27.656 1022.69 27.8151 1021.8 L33.8307 1021.77 Z" fill="#000000" fill-rule="evenodd" fill-opacity="1" /><path clip-path="url(#clip440)" d="M46.0847 999.422 Q46.0847 1006.52 47.7079 1009.26 Q49.3312 1011.99 53.2461 1011.99 Q56.3653 1011.99 58.2114 1009.96 Q60.0256 1007.89 60.0256 1004.36 Q60.0256 999.486 56.5881 996.557 Q53.1188 993.597 47.3897 993.597 L46.0847 993.597 L46.0847 999.422 M43.6657 987.741 L64.0042 987.741 L64.0042 993.597 L58.5933 993.597 Q61.8398 995.603 63.3994 998.594 Q64.9272 1001.59 64.9272 1005.91 Q64.9272 1011.39 61.8716 1014.64 Q58.7843 1017.85 53.6281 1017.85 Q47.6125 1017.85 44.5569 1013.84 Q41.5014 1009.8 41.5014 1001.81 L41.5014 993.597 L40.9285 993.597 Q36.8862 993.597 34.6901 996.271 Q32.4621 998.913 32.4621 1003.72 Q32.4621 1006.77 33.1941 1009.67 Q33.9262 1012.57 35.3903 1015.24 L29.9795 1015.24 Q28.7381 1012.03 28.1334 1009 Q27.4968 1005.98 27.4968 1003.11 Q27.4968 995.38 31.5072 991.56 Q35.5176 987.741 43.6657 987.741 Z" fill="#000000" fill-rule="evenodd" fill-opacity="1" /><path clip-path="url(#clip440)" d="M14.479 975.678 L14.479 969.821 L64.0042 969.821 L64.0042 975.678 L14.479 975.678 Z" fill="#000000" fill-rule="evenodd" fill-opacity="1" /><path clip-path="url(#clip440)" d="M33.8307 916.19 Q33.2578 917.177 33.0032 918.355 Q32.7167 919.5 32.7167 920.901 Q32.7167 925.866 35.9632 928.54 Q39.1779 931.182 45.2253 931.182 L64.0042 931.182 L64.0042 937.07 L28.3562 937.07 L28.3562 931.182 L33.8944 931.182 Q30.6479 929.335 29.0883 926.375 Q27.4968 923.415 27.4968 919.182 Q27.4968 918.577 27.5923 917.845 Q27.656 917.113 27.8151 916.222 L33.8307 916.19 Z" fill="#000000" fill-rule="evenodd" fill-opacity="1" /><path clip-path="url(#clip440)" d="M46.0847 893.847 Q46.0847 900.944 47.7079 903.682 Q49.3312 906.419 53.2461 906.419 Q56.3653 906.419 58.2114 904.382 Q60.0256 902.313 60.0256 898.78 Q60.0256 893.91 56.5881 890.982 Q53.1188 888.022 47.3897 888.022 L46.0847 888.022 L46.0847 893.847 M43.6657 882.166 L64.0042 882.166 L64.0042 888.022 L58.5933 888.022 Q61.8398 890.027 63.3994 893.019 Q64.9272 896.011 64.9272 900.34 Q64.9272 905.814 61.8716 909.061 Q58.7843 912.275 53.6281 912.275 Q47.6125 912.275 44.5569 908.265 Q41.5014 904.223 41.5014 896.234 L41.5014 888.022 L40.9285 888.022 Q36.8862 888.022 34.6901 890.696 Q32.4621 893.337 32.4621 898.144 Q32.4621 901.199 33.1941 904.095 Q33.9262 906.992 35.3903 909.665 L29.9795 909.665 Q28.7381 906.451 28.1334 903.427 Q27.4968 900.403 27.4968 897.539 Q27.4968 889.804 31.5072 885.985 Q35.5176 882.166 43.6657 882.166 Z" fill="#000000" fill-rule="evenodd" fill-opacity="1" /><path clip-path="url(#clip440)" d="M33.7671 846.645 L14.479 846.645 L14.479 840.789 L64.0042 840.789 L64.0042 846.645 L58.657 846.645 Q61.8398 848.491 63.3994 851.324 Q64.9272 854.125 64.9272 858.071 Q64.9272 864.533 59.771 868.607 Q54.6147 872.649 46.212 872.649 Q37.8093 872.649 32.6531 868.607 Q27.4968 864.533 27.4968 858.071 Q27.4968 854.125 29.0564 851.324 Q30.5842 848.491 33.7671 846.645 M46.212 866.601 Q52.6732 866.601 56.3653 863.96 Q60.0256 861.286 60.0256 856.639 Q60.0256 851.992 56.3653 849.319 Q52.6732 846.645 46.212 846.645 Q39.7508 846.645 36.0905 849.319 Q32.3984 851.992 32.3984 856.639 Q32.3984 861.286 36.0905 863.96 Q39.7508 866.601 46.212 866.601 Z" fill="#000000" fill-rule="evenodd" fill-opacity="1" /><path clip-path="url(#clip440)" d="M28.3562 828.726 L28.3562 822.869 L64.0042 822.869 L64.0042 828.726 L28.3562 828.726 M14.479 828.726 L14.479 822.869 L21.895 822.869 L21.895 828.726 L14.479 828.726 Z" fill="#000000" fill-rule="evenodd" fill-opacity="1" /><path clip-path="url(#clip440)" d="M46.0847 794.414 Q46.0847 801.512 47.7079 804.249 Q49.3312 806.987 53.2461 806.987 Q56.3653 806.987 58.2114 804.95 Q60.0256 802.881 60.0256 799.348 Q60.0256 794.478 56.5881 791.55 Q53.1188 788.59 47.3897 788.59 L46.0847 788.59 L46.0847 794.414 M43.6657 782.733 L64.0042 782.733 L64.0042 788.59 L58.5933 788.59 Q61.8398 790.595 63.3994 793.587 Q64.9272 796.579 64.9272 800.907 Q64.9272 806.382 61.8716 809.628 Q58.7843 812.843 53.6281 812.843 Q47.6125 812.843 44.5569 808.833 Q41.5014 804.79 41.5014 796.801 L41.5014 788.59 L40.9285 788.59 Q36.8862 788.59 34.6901 791.263 Q32.4621 793.905 32.4621 798.711 Q32.4621 801.767 33.1941 804.663 Q33.9262 807.56 35.3903 810.233 L29.9795 810.233 Q28.7381 807.018 28.1334 803.995 Q27.4968 800.971 27.4968 798.106 Q27.4968 790.372 31.5072 786.553 Q35.5176 782.733 43.6657 782.733 Z" fill="#000000" fill-rule="evenodd" fill-opacity="1" /><path clip-path="url(#clip440)" d="M42.4881 741.038 L64.0042 741.038 L64.0042 746.894 L42.679 746.894 Q37.6183 746.894 35.1038 748.868 Q32.5894 750.841 32.5894 754.788 Q32.5894 759.53 35.6131 762.268 Q38.6368 765.005 43.8567 765.005 L64.0042 765.005 L64.0042 770.893 L28.3562 770.893 L28.3562 765.005 L33.8944 765.005 Q30.6797 762.904 29.0883 760.071 Q27.4968 757.207 27.4968 753.483 Q27.4968 747.34 31.3163 744.189 Q35.1038 741.038 42.4881 741.038 Z" fill="#000000" fill-rule="evenodd" fill-opacity="1" /><path clip-path="url(#clip440)" d="M29.7248 703.703 L35.1993 703.703 Q33.8307 706.186 33.1623 708.7 Q32.4621 711.183 32.4621 713.729 Q32.4621 719.426 36.0905 722.577 Q39.6872 725.728 46.212 725.728 Q52.7369 725.728 56.3653 722.577 Q59.9619 719.426 59.9619 713.729 Q59.9619 711.183 59.2935 708.7 Q58.5933 706.186 57.2247 703.703 L62.6355 703.703 Q63.7814 706.154 64.3543 708.796 Q64.9272 711.406 64.9272 714.366 Q64.9272 722.418 59.8664 727.161 Q54.8057 731.903 46.212 731.903 Q37.491 731.903 32.4939 727.129 Q27.4968 722.323 27.4968 713.984 Q27.4968 711.278 28.0697 708.7 Q28.6108 706.122 29.7248 703.703 Z" fill="#000000" fill-rule="evenodd" fill-opacity="1" /><path clip-path="url(#clip440)" d="M44.7161 663.026 L47.5806 663.026 L47.5806 689.953 Q53.6281 689.571 56.8109 686.325 Q59.9619 683.046 59.9619 677.222 Q59.9619 673.848 59.1344 670.697 Q58.3069 667.514 56.6518 664.395 L62.1899 664.395 Q63.5267 667.546 64.227 670.856 Q64.9272 674.166 64.9272 677.572 Q64.9272 686.102 59.9619 691.099 Q54.9967 696.064 46.5303 696.064 Q37.7774 696.064 32.6531 691.354 Q27.4968 686.611 27.4968 678.59 Q27.4968 671.397 32.1438 667.228 Q36.7589 663.026 44.7161 663.026 M42.9973 668.883 Q38.1912 668.946 35.3266 671.588 Q32.4621 674.198 32.4621 678.527 Q32.4621 683.428 35.2312 686.388 Q38.0002 689.317 43.0292 689.762 L42.9973 668.883 Z" fill="#000000" fill-rule="evenodd" fill-opacity="1" /><path clip-path="url(#clip440)" d="M14.479 633.235 L14.479 619.739 L19.0304 619.739 L19.0304 627.378 L68.0464 627.378 L68.0464 619.739 L72.5979 619.739 L72.5979 633.235 L14.479 633.235 Z" fill="#000000" fill-rule="evenodd" fill-opacity="1" /><path clip-path="url(#clip440)" d="M16.4842 611.241 L16.4842 604.748 L56.6518 594.754 L16.4842 584.792 L16.4842 577.567 L56.6518 567.572 L16.4842 557.61 L16.4842 551.085 L64.0042 563.021 L64.0042 571.105 L22.7544 581.131 L64.0042 591.253 L64.0042 599.337 L16.4842 611.241 Z" fill="#000000" fill-rule="evenodd" fill-opacity="1" /><path clip-path="url(#clip440)" d="M16.4842 532.402 L16.4842 526.991 L70.0516 543.542 L70.0516 548.953 L16.4842 532.402 Z" fill="#000000" fill-rule="evenodd" fill-opacity="1" /><path clip-path="url(#clip440)" d="M29.4065 498.123 L34.9447 498.123 Q33.6716 500.605 33.035 503.279 Q32.3984 505.952 32.3984 508.817 Q32.3984 513.177 33.7352 515.374 Q35.072 517.538 37.7456 517.538 Q39.7826 517.538 40.9603 515.978 Q42.1061 514.419 43.1565 509.708 L43.6021 507.703 Q44.9389 501.465 47.3897 498.855 Q49.8086 496.213 54.1691 496.213 Q59.1344 496.213 62.0308 500.16 Q64.9272 504.074 64.9272 510.949 Q64.9272 513.814 64.3543 516.933 Q63.8132 520.021 62.6992 523.458 L56.6518 523.458 Q58.3387 520.212 59.198 517.061 Q60.0256 513.909 60.0256 510.822 Q60.0256 506.684 58.6251 504.456 Q57.1929 502.228 54.6147 502.228 Q52.2276 502.228 50.9545 503.852 Q49.6813 505.443 48.5037 510.886 L48.0262 512.923 Q46.8804 518.365 44.5251 520.784 Q42.138 523.203 38.0002 523.203 Q32.9713 523.203 30.2341 519.639 Q27.4968 516.074 27.4968 509.517 Q27.4968 506.271 27.9743 503.406 Q28.4517 500.542 29.4065 498.123 Z" fill="#000000" fill-rule="evenodd" fill-opacity="1" /><path clip-path="url(#clip440)" d="M33.8307 466.23 Q33.2578 467.217 33.0032 468.395 Q32.7167 469.541 32.7167 470.941 Q32.7167 475.906 35.9632 478.58 Q39.1779 481.222 45.2253 481.222 L64.0042 481.222 L64.0042 487.11 L28.3562 487.11 L28.3562 481.222 L33.8944 481.222 Q30.6479 479.376 29.0883 476.415 Q27.4968 473.455 27.4968 469.222 Q27.4968 468.617 27.5923 467.885 Q27.656 467.153 27.8151 466.262 L33.8307 466.23 Z" fill="#000000" fill-rule="evenodd" fill-opacity="1" /><path clip-path="url(#clip440)" d="M16.4842 449.68 L16.4842 444.269 L70.0516 460.819 L70.0516 466.23 L16.4842 449.68 Z" fill="#000000" fill-rule="evenodd" fill-opacity="1" /><path clip-path="url(#clip440)" d="M35.1993 410.371 Q31.2526 408.175 29.3747 405.12 Q27.4968 402.064 27.4968 397.926 Q27.4968 392.356 31.4117 389.333 Q35.2948 386.309 42.4881 386.309 L64.0042 386.309 L64.0042 392.197 L42.679 392.197 Q37.5546 392.197 35.072 394.011 Q32.5894 395.826 32.5894 399.55 Q32.5894 404.101 35.6131 406.743 Q38.6368 409.385 43.8567 409.385 L64.0042 409.385 L64.0042 415.273 L42.679 415.273 Q37.5228 415.273 35.072 417.087 Q32.5894 418.901 32.5894 422.689 Q32.5894 427.177 35.6449 429.818 Q38.6686 432.46 43.8567 432.46 L64.0042 432.46 L64.0042 438.349 L28.3562 438.349 L28.3562 432.46 L33.8944 432.46 Q30.616 430.455 29.0564 427.654 Q27.4968 424.853 27.4968 421.002 Q27.4968 417.119 29.4702 414.413 Q31.4436 411.676 35.1993 410.371 Z" fill="#000000" fill-rule="evenodd" fill-opacity="1" /><path clip-path="url(#clip440)" d="M39.1142 372.241 L39.1142 358.745 L42.7427 358.745 L42.7427 377.779 L39.2416 377.779 Q38.2549 376.697 36.4725 374.691 Q26.7648 363.742 23.7729 363.742 Q21.6722 363.742 20.3991 365.398 Q19.0941 367.053 19.0941 369.758 Q19.0941 371.413 19.667 373.355 Q20.2081 375.296 21.3221 377.588 L17.4072 377.588 Q16.516 375.137 16.0704 373.036 Q15.6248 370.904 15.6248 369.09 Q15.6248 364.475 17.7255 361.705 Q19.8262 358.936 23.2636 358.936 Q27.6878 358.936 36.7271 369.472 Q38.2549 371.254 39.1142 372.241 Z" fill="#000000" fill-rule="evenodd" fill-opacity="1" /><path clip-path="url(#clip440)" d="M16.4842 338.089 L16.4842 332.678 L70.0516 349.229 L70.0516 354.64 L16.4842 338.089 Z" fill="#000000" fill-rule="evenodd" fill-opacity="1" /><path clip-path="url(#clip440)" d="M16.4842 326.28 L16.4842 319.851 L35.9632 319.851 L35.9632 296.489 L16.4842 296.489 L16.4842 290.059 L64.0042 290.059 L64.0042 296.489 L41.3741 296.489 L41.3741 319.851 L64.0042 319.851 L64.0042 326.28 L16.4842 326.28 Z" fill="#000000" fill-rule="evenodd" fill-opacity="1" /><path clip-path="url(#clip440)" d="M28.3562 280.065 L28.3562 252.247 L33.7034 252.247 L59.3254 274.272 L59.3254 252.247 L64.0042 252.247 L64.0042 280.861 L58.657 280.861 L33.035 258.836 L33.035 280.065 L28.3562 280.065 Z" fill="#000000" fill-rule="evenodd" fill-opacity="1" /><path clip-path="url(#clip440)" d="M14.479 229.617 L72.5979 229.617 L72.5979 243.112 L68.0464 243.112 L68.0464 235.505 L19.0304 235.505 L19.0304 243.112 L14.479 243.112 L14.479 229.617 Z" fill="#000000" fill-rule="evenodd" fill-opacity="1" /><polyline clip-path="url(#clip442)" style="stroke:#009af9; stroke-linecap:butt; stroke-linejoin:round; stroke-width:4; stroke-opacity:1; fill:none" points="
  454.52,1372.3 473.136,1346.2 491.751,1298.8 510.367,1234.68 528.983,1157.95 547.598,1072.3 566.214,980.984 584.829,886.852 603.445,792.359 622.061,699.594 
  640.676,610.301 659.292,525.906 677.908,447.537 696.523,376.058 715.139,312.09 733.755,256.04 752.37,208.125 770.986,168.398 789.601,136.773 808.217,113.044 
  826.833,96.9089 845.448,87.987 864.064,85.838 882.68,89.9772 901.295,99.8896 919.911,115.042 938.526,134.896 957.142,158.913 975.758,186.566 994.373,217.343 
  1012.99,250.755 1031.6,286.338 1050.22,323.656 1068.84,362.304 1087.45,401.906 1106.07,442.122 1124.68,482.642 1143.3,523.188 1161.91,563.512 1180.53,603.398 
  1199.15,642.656 1217.76,681.124 1236.38,718.663 1254.99,755.158 1273.61,790.517 1292.22,824.666 1310.84,857.547 1329.45,889.12 1348.07,919.359 1366.69,948.25 
  1385.3,975.791 1403.92,1001.99 1422.53,1026.85 1441.15,1050.41 1459.76,1072.7 1478.38,1093.73 1497,1113.56 1515.61,1132.22 1534.23,1149.76 1552.84,1166.21 
  1571.46,1181.63 1590.07,1196.07 1608.69,1209.56 1627.3,1222.15 1645.92,1233.9 1664.54,1244.84 1683.15,1255.02 1701.77,1264.49 1720.38,1273.28 1739,1281.43 
  1757.61,1289 1776.23,1296 1794.85,1302.48 1813.46,1308.47 1832.08,1314.01 1850.69,1319.13 1869.31,1323.84 1887.92,1328.19 1906.54,1332.2 1925.15,1335.89 
  1943.77,1339.28 1962.39,1342.4 1981,1345.27 1999.62,1347.91 2018.23,1350.33 2036.85,1352.54 2055.46,1354.58 2074.08,1356.44 2092.7,1358.15 2111.31,1359.71 
  2129.93,1361.14 2148.54,1362.45 2167.16,1363.65 2185.77,1364.74 2204.39,1365.74 2223,1366.65 2241.62,1367.48 2260.24,1368.24 2278.85,1368.93 2297.47,1369.56 
  
  "/>
</svg>
