<?xml version="1.0" encoding="UTF-8" standalone="no"?>
<!-- Created with Inkscape (http://www.inkscape.org/) -->

<svg
   width="78.607529mm"
   height="68.988342mm"
   viewBox="0 0 78.607529 68.988342"
   version="1.1"
   id="svg5"
   inkscape:version="1.1.1 (3bf5ae0d25, 2021-09-20)"
   sodipodi:docname="CV-Vel-two-reference-stars.svg"
   xmlns:inkscape="http://www.inkscape.org/namespaces/inkscape"
   xmlns:sodipodi="http://sodipodi.sourceforge.net/DTD/sodipodi-0.dtd"
   xmlns="http://www.w3.org/2000/svg"
   xmlns:svg="http://www.w3.org/2000/svg">
  <sodipodi:namedview
     id="namedview7"
     pagecolor="#ffffff"
     bordercolor="#666666"
     borderopacity="1.0"
     inkscape:pageshadow="2"
     inkscape:pageopacity="0.0"
     inkscape:pagecheckerboard="0"
     inkscape:document-units="mm"
     showgrid="false"
     fit-margin-top="0"
     fit-margin-left="0"
     fit-margin-right="0"
     fit-margin-bottom="0"
     inkscape:zoom="2.2449495"
     inkscape:cx="84.188976"
     inkscape:cy="122.71991"
     inkscape:window-width="1920"
     inkscape:window-height="995"
     inkscape:window-x="0"
     inkscape:window-y="48"
     inkscape:window-maximized="1"
     inkscape:current-layer="layer1" />
  <defs
     id="defs2" />
  <g
     inkscape:label="Layer 1"
     inkscape:groupmode="layer"
     id="layer1"
     transform="translate(-26.470185,-126.71415)">
    <rect
       style="fill:#f2f2f2;stroke:#000000;stroke-width:0.264583"
       id="rect31"
       width="78.342949"
       height="68.723763"
       x="26.602476"
       y="126.84644" />
    <path
       sodipodi:type="star"
       style="fill:#ffff00;stroke:#000000"
       id="path77"
       inkscape:flatsided="false"
       sodipodi:sides="5"
       sodipodi:cx="140.21831"
       sodipodi:cy="520.8667"
       sodipodi:r1="7.6710038"
       sodipodi:r2="3.8355019"
       sodipodi:arg1="0.0047067483"
       sodipodi:arg2="0.63302528"
       inkscape:rounded="0"
       inkscape:randomized="0"
       d="m 147.88923,520.9028 -4.57858,2.23293 -0.75624,5.0376 -3.53849,-3.66447 -5.02474,0.83748 2.39167,-4.49769 -2.34922,-4.52001 5.01662,0.88474 3.57284,-3.631 0.70878,5.0445 z"
       transform="matrix(0.26458333,0,0,0.26458333,3.7041668,-3.7041668)"
       inkscape:transform-center-x="-0.1910013"
       inkscape:transform-center-y="0.0029502641" />
    <path
       sodipodi:type="star"
       style="fill:#ffff00;stroke:#000000"
       id="path77-3"
       inkscape:flatsided="false"
       sodipodi:sides="5"
       sodipodi:cx="140.21831"
       sodipodi:cy="520.8667"
       sodipodi:r1="7.6710038"
       sodipodi:r2="3.8355019"
       sodipodi:arg1="0.0047067483"
       sodipodi:arg2="0.63302528"
       inkscape:rounded="0"
       inkscape:randomized="0"
       transform="matrix(0.26458333,0,0,0.26458333,19.488584,22.705396)"
       inkscape:transform-center-x="-0.1910013"
       inkscape:transform-center-y="0.0029502641"
       d="m 147.88923,520.9028 -4.57858,2.23293 -0.75624,5.0376 -3.53849,-3.66447 -5.02474,0.83748 2.39167,-4.49769 -2.34922,-4.52001 5.01662,0.88474 3.57284,-3.631 0.70878,5.0445 z" />
    <path
       sodipodi:type="star"
       style="fill:#ffff00;stroke:#000000"
       id="path77-6"
       inkscape:flatsided="false"
       sodipodi:sides="5"
       sodipodi:cx="140.21831"
       sodipodi:cy="520.8667"
       sodipodi:r1="7.6710038"
       sodipodi:r2="3.8355019"
       sodipodi:arg1="0.0047067483"
       sodipodi:arg2="0.63302528"
       inkscape:rounded="0"
       inkscape:randomized="0"
       transform="matrix(0.26458333,0,0,0.26458333,36.57787,6.3232533)"
       inkscape:transform-center-x="-0.1910013"
       inkscape:transform-center-y="0.0029502641"
       d="m 147.88923,520.9028 -4.57858,2.23293 -0.75624,5.0376 -3.53849,-3.66447 -5.02474,0.83748 2.39167,-4.49769 -2.34922,-4.52001 5.01662,0.88474 3.57284,-3.631 0.70878,5.0445 z" />
    <path
       sodipodi:type="star"
       style="fill:#ffff00;stroke:#000000"
       id="path77-7"
       inkscape:flatsided="false"
       sodipodi:sides="5"
       sodipodi:cx="140.21831"
       sodipodi:cy="520.8667"
       sodipodi:r1="7.6710038"
       sodipodi:r2="3.8355019"
       sodipodi:arg1="0.0047067483"
       sodipodi:arg2="0.63302528"
       inkscape:rounded="0"
       inkscape:randomized="0"
       transform="matrix(0.26458333,0,0,0.26458333,46.47787,27.301825)"
       inkscape:transform-center-x="-0.1910013"
       inkscape:transform-center-y="0.0029502641"
       d="m 147.88923,520.9028 -4.57858,2.23293 -0.75624,5.0376 -3.53849,-3.66447 -5.02474,0.83748 2.39167,-4.49769 -2.34922,-4.52001 5.01662,0.88474 3.57284,-3.631 0.70878,5.0445 z" />
    <path
       sodipodi:type="star"
       style="fill:#ffff00;stroke:#000000"
       id="path77-5"
       inkscape:flatsided="false"
       sodipodi:sides="5"
       sodipodi:cx="140.21831"
       sodipodi:cy="520.8667"
       sodipodi:r1="7.6710038"
       sodipodi:r2="3.8355019"
       sodipodi:arg1="0.0047067483"
       sodipodi:arg2="0.63302528"
       inkscape:rounded="0"
       inkscape:randomized="0"
       transform="matrix(0.26458333,0,0,0.26458333,1.3385839,39.441111)"
       inkscape:transform-center-x="-0.1910013"
       inkscape:transform-center-y="0.0029502641"
       d="m 147.88923,520.9028 -4.57858,2.23293 -0.75624,5.0376 -3.53849,-3.66447 -5.02474,0.83748 2.39167,-4.49769 -2.34922,-4.52001 5.01662,0.88474 3.57284,-3.631 0.70878,5.0445 z" />
    <path
       sodipodi:type="star"
       style="fill:#ffff00;stroke:#000000"
       id="path77-35"
       inkscape:flatsided="false"
       sodipodi:sides="5"
       sodipodi:cx="140.21831"
       sodipodi:cy="520.8667"
       sodipodi:r1="7.6710038"
       sodipodi:r2="3.8355019"
       sodipodi:arg1="0.0047067483"
       sodipodi:arg2="0.63302528"
       inkscape:rounded="0"
       inkscape:randomized="0"
       transform="matrix(0.26458333,0,0,0.26458333,57.792155,-0.15888953)"
       inkscape:transform-center-x="-0.1910013"
       inkscape:transform-center-y="0.0029502641"
       d="m 147.88923,520.9028 -4.57858,2.23293 -0.75624,5.0376 -3.53849,-3.66447 -5.02474,0.83748 2.39167,-4.49769 -2.34922,-4.52001 5.01662,0.88474 3.57284,-3.631 0.70878,5.0445 z" />
    <path
       sodipodi:type="star"
       style="fill:#ffff00;stroke:#000000"
       id="path77-62"
       inkscape:flatsided="false"
       sodipodi:sides="5"
       sodipodi:cx="140.21831"
       sodipodi:cy="520.8667"
       sodipodi:r1="7.6710038"
       sodipodi:r2="3.8355019"
       sodipodi:arg1="0.0047067483"
       sodipodi:arg2="0.63302528"
       inkscape:rounded="0"
       inkscape:randomized="0"
       transform="matrix(0.26458333,0,0,0.26458333,53.175607,47.655273)"
       inkscape:transform-center-x="-0.1910013"
       inkscape:transform-center-y="0.0029502641"
       d="m 147.88923,520.9028 -4.57858,2.23293 -0.75624,5.0376 -3.53849,-3.66447 -5.02474,0.83748 2.39167,-4.49769 -2.34922,-4.52001 5.01662,0.88474 3.57284,-3.631 0.70878,5.0445 z" />
    <path
       sodipodi:type="star"
       style="fill:#ffff00;stroke:#000000"
       id="path77-9"
       inkscape:flatsided="false"
       sodipodi:sides="5"
       sodipodi:cx="140.21831"
       sodipodi:cy="520.8667"
       sodipodi:r1="7.6710038"
       sodipodi:r2="3.8355019"
       sodipodi:arg1="0.0047067483"
       sodipodi:arg2="0.63302528"
       inkscape:rounded="0"
       inkscape:randomized="0"
       transform="matrix(0.26458333,0,0,0.26458333,23.37787,41.326825)"
       inkscape:transform-center-x="-0.1910013"
       inkscape:transform-center-y="0.0029502641"
       d="m 147.88923,520.9028 -4.57858,2.23293 -0.75624,5.0376 -3.53849,-3.66447 -5.02474,0.83748 2.39167,-4.49769 -2.34922,-4.52001 5.01662,0.88474 3.57284,-3.631 0.70878,5.0445 z" />
    <path
       sodipodi:type="star"
       style="fill:#ffff00;stroke:#000000"
       id="path77-1"
       inkscape:flatsided="false"
       sodipodi:sides="5"
       sodipodi:cx="140.21831"
       sodipodi:cy="520.8667"
       sodipodi:r1="7.6710038"
       sodipodi:r2="3.8355019"
       sodipodi:arg1="0.0047067483"
       sodipodi:arg2="0.63302528"
       inkscape:rounded="0"
       inkscape:randomized="0"
       transform="matrix(0.26458333,0,0,0.26458333,18.310012,5.3803962)"
       inkscape:transform-center-x="-0.1910013"
       inkscape:transform-center-y="0.0029502641"
       d="m 147.88923,520.9028 -4.57858,2.23293 -0.75624,5.0376 -3.53849,-3.66447 -5.02474,0.83748 2.39167,-4.49769 -2.34922,-4.52001 5.01662,0.88474 3.57284,-3.631 0.70878,5.0445 z" />
    <circle
       style="fill:#ffb380;stroke:#000000;stroke-width:0.264583"
       id="path321"
       cx="66.037857"
       cy="162.6935"
       r="1.7037852" />
    <text
       xml:space="preserve"
       style="font-style:normal;font-weight:normal;font-size:4.23333px;line-height:1.25;font-family:sans-serif;fill:#000000;fill-opacity:1;stroke:none;stroke-width:0.264583"
       x="59.501827"
       y="169.02696"
       id="text2231"><tspan
         sodipodi:role="line"
         id="tspan2229"
         style="font-size:4.23333px;stroke-width:0.264583"
         x="59.501827"
         y="169.02696">CV-Vel</tspan></text>
    <text
       xml:space="preserve"
       style="font-style:normal;font-weight:normal;font-size:4.23333px;line-height:1.25;font-family:sans-serif;fill:#000000;fill-opacity:1;stroke:none;stroke-width:0.264583"
       x="28.502573"
       y="139.53836"
       id="text2231-2"><tspan
         sodipodi:role="line"
         id="tspan2229-7"
         style="font-size:4.23333px;stroke-width:0.264583"
         x="28.502573"
         y="139.53836">Ref. star #1</tspan></text>
    <text
       xml:space="preserve"
       style="font-style:normal;font-weight:normal;font-size:4.23333px;line-height:1.25;font-family:sans-serif;fill:#000000;fill-opacity:1;stroke:none;stroke-width:0.264583"
       x="77.990547"
       y="191.3306"
       id="text2231-0"><tspan
         sodipodi:role="line"
         id="tspan2229-9"
         style="font-size:4.23333px;stroke-width:0.264583"
         x="77.990547"
         y="191.3306">Ref. star #2</tspan></text>
  </g>
</svg>
