<?xml version="1.0" encoding="utf-8"?>
<svg xmlns="http://www.w3.org/2000/svg" xmlns:xlink="http://www.w3.org/1999/xlink" width="600" height="400" viewBox="0 0 2400 1600">
<defs>
  <clipPath id="clip470">
    <rect x="0" y="0" width="2400" height="1600"/>
  </clipPath>
</defs>
<path clip-path="url(#clip470)" d="
M0 1600 L2400 1600 L2400 0 L0 0  Z
  " fill="#ffffff" fill-rule="evenodd" fill-opacity="1"/>
<defs>
  <clipPath id="clip471">
    <rect x="480" y="0" width="1681" height="1600"/>
  </clipPath>
</defs>
<path clip-path="url(#clip470)" d="
M186.274 1423.18 L2352.76 1423.18 L2352.76 47.2441 L186.274 47.2441  Z
  " fill="#ffffff" fill-rule="evenodd" fill-opacity="1"/>
<defs>
  <clipPath id="clip472">
    <rect x="186" y="47" width="2167" height="1377"/>
  </clipPath>
</defs>
<polyline clip-path="url(#clip472)" style="stroke:#000000; stroke-linecap:butt; stroke-linejoin:round; stroke-width:2; stroke-opacity:0.1; fill:none" points="
  243.503,1423.18 243.503,47.2441 
  "/>
<polyline clip-path="url(#clip472)" style="stroke:#000000; stroke-linecap:butt; stroke-linejoin:round; stroke-width:2; stroke-opacity:0.1; fill:none" points="
  653.374,1423.18 653.374,47.2441 
  "/>
<polyline clip-path="url(#clip472)" style="stroke:#000000; stroke-linecap:butt; stroke-linejoin:round; stroke-width:2; stroke-opacity:0.1; fill:none" points="
  1063.25,1423.18 1063.25,47.2441 
  "/>
<polyline clip-path="url(#clip472)" style="stroke:#000000; stroke-linecap:butt; stroke-linejoin:round; stroke-width:2; stroke-opacity:0.1; fill:none" points="
  1473.12,1423.18 1473.12,47.2441 
  "/>
<polyline clip-path="url(#clip472)" style="stroke:#000000; stroke-linecap:butt; stroke-linejoin:round; stroke-width:2; stroke-opacity:0.1; fill:none" points="
  1882.99,1423.18 1882.99,47.2441 
  "/>
<polyline clip-path="url(#clip472)" style="stroke:#000000; stroke-linecap:butt; stroke-linejoin:round; stroke-width:2; stroke-opacity:0.1; fill:none" points="
  2292.86,1423.18 2292.86,47.2441 
  "/>
<polyline clip-path="url(#clip470)" style="stroke:#000000; stroke-linecap:butt; stroke-linejoin:round; stroke-width:4; stroke-opacity:1; fill:none" points="
  186.274,1423.18 2352.76,1423.18 
  "/>
<polyline clip-path="url(#clip470)" style="stroke:#000000; stroke-linecap:butt; stroke-linejoin:round; stroke-width:4; stroke-opacity:1; fill:none" points="
  243.503,1423.18 243.503,1404.28 
  "/>
<polyline clip-path="url(#clip470)" style="stroke:#000000; stroke-linecap:butt; stroke-linejoin:round; stroke-width:4; stroke-opacity:1; fill:none" points="
  653.374,1423.18 653.374,1404.28 
  "/>
<polyline clip-path="url(#clip470)" style="stroke:#000000; stroke-linecap:butt; stroke-linejoin:round; stroke-width:4; stroke-opacity:1; fill:none" points="
  1063.25,1423.18 1063.25,1404.28 
  "/>
<polyline clip-path="url(#clip470)" style="stroke:#000000; stroke-linecap:butt; stroke-linejoin:round; stroke-width:4; stroke-opacity:1; fill:none" points="
  1473.12,1423.18 1473.12,1404.28 
  "/>
<polyline clip-path="url(#clip470)" style="stroke:#000000; stroke-linecap:butt; stroke-linejoin:round; stroke-width:4; stroke-opacity:1; fill:none" points="
  1882.99,1423.18 1882.99,1404.28 
  "/>
<polyline clip-path="url(#clip470)" style="stroke:#000000; stroke-linecap:butt; stroke-linejoin:round; stroke-width:4; stroke-opacity:1; fill:none" points="
  2292.86,1423.18 2292.86,1404.28 
  "/>
<path clip-path="url(#clip470)" d="M175.645 1454.1 Q172.034 1454.1 170.205 1457.66 Q168.399 1461.2 168.399 1468.33 Q168.399 1475.44 170.205 1479.01 Q172.034 1482.55 175.645 1482.55 Q179.279 1482.55 181.084 1479.01 Q182.913 1475.44 182.913 1468.33 Q182.913 1461.2 181.084 1457.66 Q179.279 1454.1 175.645 1454.1 M175.645 1450.39 Q181.455 1450.39 184.51 1455 Q187.589 1459.58 187.589 1468.33 Q187.589 1477.06 184.51 1481.67 Q181.455 1486.25 175.645 1486.25 Q169.835 1486.25 166.756 1481.67 Q163.7 1477.06 163.7 1468.33 Q163.7 1459.58 166.756 1455 Q169.835 1450.39 175.645 1450.39 Z" fill="#000000" fill-rule="evenodd" fill-opacity="1" /><path clip-path="url(#clip470)" d="M195.807 1479.7 L200.691 1479.7 L200.691 1485.58 L195.807 1485.58 L195.807 1479.7 Z" fill="#000000" fill-rule="evenodd" fill-opacity="1" /><path clip-path="url(#clip470)" d="M220.876 1454.1 Q217.265 1454.1 215.436 1457.66 Q213.631 1461.2 213.631 1468.33 Q213.631 1475.44 215.436 1479.01 Q217.265 1482.55 220.876 1482.55 Q224.51 1482.55 226.316 1479.01 Q228.144 1475.44 228.144 1468.33 Q228.144 1461.2 226.316 1457.66 Q224.51 1454.1 220.876 1454.1 M220.876 1450.39 Q226.686 1450.39 229.742 1455 Q232.82 1459.58 232.82 1468.33 Q232.82 1477.06 229.742 1481.67 Q226.686 1486.25 220.876 1486.25 Q215.066 1486.25 211.987 1481.67 Q208.932 1477.06 208.932 1468.33 Q208.932 1459.58 211.987 1455 Q215.066 1450.39 220.876 1450.39 Z" fill="#000000" fill-rule="evenodd" fill-opacity="1" /><path clip-path="url(#clip470)" d="M251.038 1454.1 Q247.427 1454.1 245.598 1457.66 Q243.792 1461.2 243.792 1468.33 Q243.792 1475.44 245.598 1479.01 Q247.427 1482.55 251.038 1482.55 Q254.672 1482.55 256.478 1479.01 Q258.306 1475.44 258.306 1468.33 Q258.306 1461.2 256.478 1457.66 Q254.672 1454.1 251.038 1454.1 M251.038 1450.39 Q256.848 1450.39 259.903 1455 Q262.982 1459.58 262.982 1468.33 Q262.982 1477.06 259.903 1481.67 Q256.848 1486.25 251.038 1486.25 Q245.228 1486.25 242.149 1481.67 Q239.093 1477.06 239.093 1468.33 Q239.093 1459.58 242.149 1455 Q245.228 1450.39 251.038 1450.39 Z" fill="#000000" fill-rule="evenodd" fill-opacity="1" /><path clip-path="url(#clip470)" d="M281.2 1454.1 Q277.589 1454.1 275.76 1457.66 Q273.954 1461.2 273.954 1468.33 Q273.954 1475.44 275.76 1479.01 Q277.589 1482.55 281.2 1482.55 Q284.834 1482.55 286.639 1479.01 Q288.468 1475.44 288.468 1468.33 Q288.468 1461.2 286.639 1457.66 Q284.834 1454.1 281.2 1454.1 M281.2 1450.39 Q287.01 1450.39 290.065 1455 Q293.144 1459.58 293.144 1468.33 Q293.144 1477.06 290.065 1481.67 Q287.01 1486.25 281.2 1486.25 Q275.39 1486.25 272.311 1481.67 Q269.255 1477.06 269.255 1468.33 Q269.255 1459.58 272.311 1455 Q275.39 1450.39 281.2 1450.39 Z" fill="#000000" fill-rule="evenodd" fill-opacity="1" /><path clip-path="url(#clip470)" d="M311.362 1454.1 Q307.75 1454.1 305.922 1457.66 Q304.116 1461.2 304.116 1468.33 Q304.116 1475.44 305.922 1479.01 Q307.75 1482.55 311.362 1482.55 Q314.996 1482.55 316.801 1479.01 Q318.63 1475.44 318.63 1468.33 Q318.63 1461.2 316.801 1457.66 Q314.996 1454.1 311.362 1454.1 M311.362 1450.39 Q317.172 1450.39 320.227 1455 Q323.306 1459.58 323.306 1468.33 Q323.306 1477.06 320.227 1481.67 Q317.172 1486.25 311.362 1486.25 Q305.551 1486.25 302.473 1481.67 Q299.417 1477.06 299.417 1468.33 Q299.417 1459.58 302.473 1455 Q305.551 1450.39 311.362 1450.39 Z" fill="#000000" fill-rule="evenodd" fill-opacity="1" /><path clip-path="url(#clip470)" d="M586.129 1454.1 Q582.518 1454.1 580.689 1457.66 Q578.884 1461.2 578.884 1468.33 Q578.884 1475.44 580.689 1479.01 Q582.518 1482.55 586.129 1482.55 Q589.763 1482.55 591.569 1479.01 Q593.398 1475.44 593.398 1468.33 Q593.398 1461.2 591.569 1457.66 Q589.763 1454.1 586.129 1454.1 M586.129 1450.39 Q591.939 1450.39 594.995 1455 Q598.074 1459.58 598.074 1468.33 Q598.074 1477.06 594.995 1481.67 Q591.939 1486.25 586.129 1486.25 Q580.319 1486.25 577.24 1481.67 Q574.185 1477.06 574.185 1468.33 Q574.185 1459.58 577.24 1455 Q580.319 1450.39 586.129 1450.39 Z" fill="#000000" fill-rule="evenodd" fill-opacity="1" /><path clip-path="url(#clip470)" d="M606.291 1479.7 L611.175 1479.7 L611.175 1485.58 L606.291 1485.58 L606.291 1479.7 Z" fill="#000000" fill-rule="evenodd" fill-opacity="1" /><path clip-path="url(#clip470)" d="M631.36 1454.1 Q627.749 1454.1 625.921 1457.66 Q624.115 1461.2 624.115 1468.33 Q624.115 1475.44 625.921 1479.01 Q627.749 1482.55 631.36 1482.55 Q634.995 1482.55 636.8 1479.01 Q638.629 1475.44 638.629 1468.33 Q638.629 1461.2 636.8 1457.66 Q634.995 1454.1 631.36 1454.1 M631.36 1450.39 Q637.171 1450.39 640.226 1455 Q643.305 1459.58 643.305 1468.33 Q643.305 1477.06 640.226 1481.67 Q637.171 1486.25 631.36 1486.25 Q625.55 1486.25 622.472 1481.67 Q619.416 1477.06 619.416 1468.33 Q619.416 1459.58 622.472 1455 Q625.55 1450.39 631.36 1450.39 Z" fill="#000000" fill-rule="evenodd" fill-opacity="1" /><path clip-path="url(#clip470)" d="M661.522 1454.1 Q657.911 1454.1 656.083 1457.66 Q654.277 1461.2 654.277 1468.33 Q654.277 1475.44 656.083 1479.01 Q657.911 1482.55 661.522 1482.55 Q665.157 1482.55 666.962 1479.01 Q668.791 1475.44 668.791 1468.33 Q668.791 1461.2 666.962 1457.66 Q665.157 1454.1 661.522 1454.1 M661.522 1450.39 Q667.332 1450.39 670.388 1455 Q673.467 1459.58 673.467 1468.33 Q673.467 1477.06 670.388 1481.67 Q667.332 1486.25 661.522 1486.25 Q655.712 1486.25 652.633 1481.67 Q649.578 1477.06 649.578 1468.33 Q649.578 1459.58 652.633 1455 Q655.712 1450.39 661.522 1450.39 Z" fill="#000000" fill-rule="evenodd" fill-opacity="1" /><path clip-path="url(#clip470)" d="M691.684 1454.1 Q688.073 1454.1 686.244 1457.66 Q684.439 1461.2 684.439 1468.33 Q684.439 1475.44 686.244 1479.01 Q688.073 1482.55 691.684 1482.55 Q695.318 1482.55 697.124 1479.01 Q698.953 1475.44 698.953 1468.33 Q698.953 1461.2 697.124 1457.66 Q695.318 1454.1 691.684 1454.1 M691.684 1450.39 Q697.494 1450.39 700.55 1455 Q703.629 1459.58 703.629 1468.33 Q703.629 1477.06 700.55 1481.67 Q697.494 1486.25 691.684 1486.25 Q685.874 1486.25 682.795 1481.67 Q679.74 1477.06 679.74 1468.33 Q679.74 1459.58 682.795 1455 Q685.874 1450.39 691.684 1450.39 Z" fill="#000000" fill-rule="evenodd" fill-opacity="1" /><path clip-path="url(#clip470)" d="M712.656 1481.64 L720.295 1481.64 L720.295 1455.28 L711.985 1456.95 L711.985 1452.69 L720.249 1451.02 L724.925 1451.02 L724.925 1481.64 L732.564 1481.64 L732.564 1485.58 L712.656 1485.58 L712.656 1481.64 Z" fill="#000000" fill-rule="evenodd" fill-opacity="1" /><path clip-path="url(#clip470)" d="M996.185 1454.1 Q992.574 1454.1 990.746 1457.66 Q988.94 1461.2 988.94 1468.33 Q988.94 1475.44 990.746 1479.01 Q992.574 1482.55 996.185 1482.55 Q999.82 1482.55 1001.63 1479.01 Q1003.45 1475.44 1003.45 1468.33 Q1003.45 1461.2 1001.63 1457.66 Q999.82 1454.1 996.185 1454.1 M996.185 1450.39 Q1002 1450.39 1005.05 1455 Q1008.13 1459.58 1008.13 1468.33 Q1008.13 1477.06 1005.05 1481.67 Q1002 1486.25 996.185 1486.25 Q990.375 1486.25 987.297 1481.67 Q984.241 1477.06 984.241 1468.33 Q984.241 1459.58 987.297 1455 Q990.375 1450.39 996.185 1450.39 Z" fill="#000000" fill-rule="evenodd" fill-opacity="1" /><path clip-path="url(#clip470)" d="M1016.35 1479.7 L1021.23 1479.7 L1021.23 1485.58 L1016.35 1485.58 L1016.35 1479.7 Z" fill="#000000" fill-rule="evenodd" fill-opacity="1" /><path clip-path="url(#clip470)" d="M1041.42 1454.1 Q1037.81 1454.1 1035.98 1457.66 Q1034.17 1461.2 1034.17 1468.33 Q1034.17 1475.44 1035.98 1479.01 Q1037.81 1482.55 1041.42 1482.55 Q1045.05 1482.55 1046.86 1479.01 Q1048.69 1475.44 1048.69 1468.33 Q1048.69 1461.2 1046.86 1457.66 Q1045.05 1454.1 1041.42 1454.1 M1041.42 1450.39 Q1047.23 1450.39 1050.28 1455 Q1053.36 1459.58 1053.36 1468.33 Q1053.36 1477.06 1050.28 1481.67 Q1047.23 1486.25 1041.42 1486.25 Q1035.61 1486.25 1032.53 1481.67 Q1029.47 1477.06 1029.47 1468.33 Q1029.47 1459.58 1032.53 1455 Q1035.61 1450.39 1041.42 1450.39 Z" fill="#000000" fill-rule="evenodd" fill-opacity="1" /><path clip-path="url(#clip470)" d="M1071.58 1454.1 Q1067.97 1454.1 1066.14 1457.66 Q1064.33 1461.2 1064.33 1468.33 Q1064.33 1475.44 1066.14 1479.01 Q1067.97 1482.55 1071.58 1482.55 Q1075.21 1482.55 1077.02 1479.01 Q1078.85 1475.44 1078.85 1468.33 Q1078.85 1461.2 1077.02 1457.66 Q1075.21 1454.1 1071.58 1454.1 M1071.58 1450.39 Q1077.39 1450.39 1080.44 1455 Q1083.52 1459.58 1083.52 1468.33 Q1083.52 1477.06 1080.44 1481.67 Q1077.39 1486.25 1071.58 1486.25 Q1065.77 1486.25 1062.69 1481.67 Q1059.63 1477.06 1059.63 1468.33 Q1059.63 1459.58 1062.69 1455 Q1065.77 1450.39 1071.58 1450.39 Z" fill="#000000" fill-rule="evenodd" fill-opacity="1" /><path clip-path="url(#clip470)" d="M1101.74 1454.1 Q1098.13 1454.1 1096.3 1457.66 Q1094.5 1461.2 1094.5 1468.33 Q1094.5 1475.44 1096.3 1479.01 Q1098.13 1482.55 1101.74 1482.55 Q1105.37 1482.55 1107.18 1479.01 Q1109.01 1475.44 1109.01 1468.33 Q1109.01 1461.2 1107.18 1457.66 Q1105.37 1454.1 1101.74 1454.1 M1101.74 1450.39 Q1107.55 1450.39 1110.61 1455 Q1113.68 1459.58 1113.68 1468.33 Q1113.68 1477.06 1110.61 1481.67 Q1107.55 1486.25 1101.74 1486.25 Q1095.93 1486.25 1092.85 1481.67 Q1089.8 1477.06 1089.8 1468.33 Q1089.8 1459.58 1092.85 1455 Q1095.93 1450.39 1101.74 1450.39 Z" fill="#000000" fill-rule="evenodd" fill-opacity="1" /><path clip-path="url(#clip470)" d="M1125.93 1481.64 L1142.25 1481.64 L1142.25 1485.58 L1120.31 1485.58 L1120.31 1481.64 Q1122.97 1478.89 1127.55 1474.26 Q1132.16 1469.61 1133.34 1468.27 Q1135.58 1465.74 1136.46 1464.01 Q1137.37 1462.25 1137.37 1460.56 Q1137.37 1457.8 1135.42 1456.07 Q1133.5 1454.33 1130.4 1454.33 Q1128.2 1454.33 1125.74 1455.09 Q1123.31 1455.86 1120.54 1457.41 L1120.54 1452.69 Q1123.36 1451.55 1125.81 1450.97 Q1128.27 1450.39 1130.31 1450.39 Q1135.68 1450.39 1138.87 1453.08 Q1142.06 1455.77 1142.06 1460.26 Q1142.06 1462.39 1141.25 1464.31 Q1140.47 1466.2 1138.36 1468.8 Q1137.78 1469.47 1134.68 1472.69 Q1131.58 1475.88 1125.93 1481.64 Z" fill="#000000" fill-rule="evenodd" fill-opacity="1" /><path clip-path="url(#clip470)" d="M1405.58 1454.1 Q1401.97 1454.1 1400.14 1457.66 Q1398.34 1461.2 1398.34 1468.33 Q1398.34 1475.44 1400.14 1479.01 Q1401.97 1482.55 1405.58 1482.55 Q1409.22 1482.55 1411.02 1479.01 Q1412.85 1475.44 1412.85 1468.33 Q1412.85 1461.2 1411.02 1457.66 Q1409.22 1454.1 1405.58 1454.1 M1405.58 1450.39 Q1411.39 1450.39 1414.45 1455 Q1417.53 1459.58 1417.53 1468.33 Q1417.53 1477.06 1414.45 1481.67 Q1411.39 1486.25 1405.58 1486.25 Q1399.77 1486.25 1396.69 1481.67 Q1393.64 1477.06 1393.64 1468.33 Q1393.64 1459.58 1396.69 1455 Q1399.77 1450.39 1405.58 1450.39 Z" fill="#000000" fill-rule="evenodd" fill-opacity="1" /><path clip-path="url(#clip470)" d="M1425.74 1479.7 L1430.63 1479.7 L1430.63 1485.58 L1425.74 1485.58 L1425.74 1479.7 Z" fill="#000000" fill-rule="evenodd" fill-opacity="1" /><path clip-path="url(#clip470)" d="M1450.81 1454.1 Q1447.2 1454.1 1445.37 1457.66 Q1443.57 1461.2 1443.57 1468.33 Q1443.57 1475.44 1445.37 1479.01 Q1447.2 1482.55 1450.81 1482.55 Q1454.45 1482.55 1456.25 1479.01 Q1458.08 1475.44 1458.08 1468.33 Q1458.08 1461.2 1456.25 1457.66 Q1454.45 1454.1 1450.81 1454.1 M1450.81 1450.39 Q1456.62 1450.39 1459.68 1455 Q1462.76 1459.58 1462.76 1468.33 Q1462.76 1477.06 1459.68 1481.67 Q1456.62 1486.25 1450.81 1486.25 Q1445 1486.25 1441.92 1481.67 Q1438.87 1477.06 1438.87 1468.33 Q1438.87 1459.58 1441.92 1455 Q1445 1450.39 1450.81 1450.39 Z" fill="#000000" fill-rule="evenodd" fill-opacity="1" /><path clip-path="url(#clip470)" d="M1480.98 1454.1 Q1477.36 1454.1 1475.54 1457.66 Q1473.73 1461.2 1473.73 1468.33 Q1473.73 1475.44 1475.54 1479.01 Q1477.36 1482.55 1480.98 1482.55 Q1484.61 1482.55 1486.41 1479.01 Q1488.24 1475.44 1488.24 1468.33 Q1488.24 1461.2 1486.41 1457.66 Q1484.61 1454.1 1480.98 1454.1 M1480.98 1450.39 Q1486.79 1450.39 1489.84 1455 Q1492.92 1459.58 1492.92 1468.33 Q1492.92 1477.06 1489.84 1481.67 Q1486.79 1486.25 1480.98 1486.25 Q1475.16 1486.25 1472.09 1481.67 Q1469.03 1477.06 1469.03 1468.33 Q1469.03 1459.58 1472.09 1455 Q1475.16 1450.39 1480.98 1450.39 Z" fill="#000000" fill-rule="evenodd" fill-opacity="1" /><path clip-path="url(#clip470)" d="M1511.14 1454.1 Q1507.53 1454.1 1505.7 1457.66 Q1503.89 1461.2 1503.89 1468.33 Q1503.89 1475.44 1505.7 1479.01 Q1507.53 1482.55 1511.14 1482.55 Q1514.77 1482.55 1516.58 1479.01 Q1518.41 1475.44 1518.41 1468.33 Q1518.41 1461.2 1516.58 1457.66 Q1514.77 1454.1 1511.14 1454.1 M1511.14 1450.39 Q1516.95 1450.39 1520 1455 Q1523.08 1459.58 1523.08 1468.33 Q1523.08 1477.06 1520 1481.67 Q1516.95 1486.25 1511.14 1486.25 Q1505.33 1486.25 1502.25 1481.67 Q1499.19 1477.06 1499.19 1468.33 Q1499.19 1459.58 1502.25 1455 Q1505.33 1450.39 1511.14 1450.39 Z" fill="#000000" fill-rule="evenodd" fill-opacity="1" /><path clip-path="url(#clip470)" d="M1545.47 1466.95 Q1548.82 1467.66 1550.7 1469.93 Q1552.6 1472.2 1552.6 1475.53 Q1552.6 1480.65 1549.08 1483.45 Q1545.56 1486.25 1539.08 1486.25 Q1536.9 1486.25 1534.59 1485.81 Q1532.29 1485.39 1529.84 1484.54 L1529.84 1480.02 Q1531.79 1481.16 1534.1 1481.74 Q1536.41 1482.32 1538.94 1482.32 Q1543.34 1482.32 1545.63 1480.58 Q1547.94 1478.84 1547.94 1475.53 Q1547.94 1472.48 1545.79 1470.77 Q1543.66 1469.03 1539.84 1469.03 L1535.81 1469.03 L1535.81 1465.19 L1540.03 1465.19 Q1543.47 1465.19 1545.3 1463.82 Q1547.13 1462.43 1547.13 1459.84 Q1547.13 1457.18 1545.23 1455.77 Q1543.36 1454.33 1539.84 1454.33 Q1537.92 1454.33 1535.72 1454.75 Q1533.52 1455.16 1530.88 1456.04 L1530.88 1451.88 Q1533.54 1451.14 1535.86 1450.77 Q1538.2 1450.39 1540.26 1450.39 Q1545.58 1450.39 1548.68 1452.83 Q1551.78 1455.23 1551.78 1459.35 Q1551.78 1462.22 1550.14 1464.21 Q1548.5 1466.18 1545.47 1466.95 Z" fill="#000000" fill-rule="evenodd" fill-opacity="1" /><path clip-path="url(#clip470)" d="M1814.89 1454.1 Q1811.27 1454.1 1809.45 1457.66 Q1807.64 1461.2 1807.64 1468.33 Q1807.64 1475.44 1809.45 1479.01 Q1811.27 1482.55 1814.89 1482.55 Q1818.52 1482.55 1820.33 1479.01 Q1822.15 1475.44 1822.15 1468.33 Q1822.15 1461.2 1820.33 1457.66 Q1818.52 1454.1 1814.89 1454.1 M1814.89 1450.39 Q1820.7 1450.39 1823.75 1455 Q1826.83 1459.58 1826.83 1468.33 Q1826.83 1477.06 1823.75 1481.67 Q1820.7 1486.25 1814.89 1486.25 Q1809.08 1486.25 1806 1481.67 Q1802.94 1477.06 1802.94 1468.33 Q1802.94 1459.58 1806 1455 Q1809.08 1450.39 1814.89 1450.39 Z" fill="#000000" fill-rule="evenodd" fill-opacity="1" /><path clip-path="url(#clip470)" d="M1835.05 1479.7 L1839.93 1479.7 L1839.93 1485.58 L1835.05 1485.58 L1835.05 1479.7 Z" fill="#000000" fill-rule="evenodd" fill-opacity="1" /><path clip-path="url(#clip470)" d="M1860.12 1454.1 Q1856.51 1454.1 1854.68 1457.66 Q1852.87 1461.2 1852.87 1468.33 Q1852.87 1475.44 1854.68 1479.01 Q1856.51 1482.55 1860.12 1482.55 Q1863.75 1482.55 1865.56 1479.01 Q1867.39 1475.44 1867.39 1468.33 Q1867.39 1461.2 1865.56 1457.66 Q1863.75 1454.1 1860.12 1454.1 M1860.12 1450.39 Q1865.93 1450.39 1868.98 1455 Q1872.06 1459.58 1872.06 1468.33 Q1872.06 1477.06 1868.98 1481.67 Q1865.93 1486.25 1860.12 1486.25 Q1854.31 1486.25 1851.23 1481.67 Q1848.17 1477.06 1848.17 1468.33 Q1848.17 1459.58 1851.23 1455 Q1854.31 1450.39 1860.12 1450.39 Z" fill="#000000" fill-rule="evenodd" fill-opacity="1" /><path clip-path="url(#clip470)" d="M1890.28 1454.1 Q1886.67 1454.1 1884.84 1457.66 Q1883.03 1461.2 1883.03 1468.33 Q1883.03 1475.44 1884.84 1479.01 Q1886.67 1482.55 1890.28 1482.55 Q1893.91 1482.55 1895.72 1479.01 Q1897.55 1475.44 1897.55 1468.33 Q1897.55 1461.2 1895.72 1457.66 Q1893.91 1454.1 1890.28 1454.1 M1890.28 1450.39 Q1896.09 1450.39 1899.14 1455 Q1902.22 1459.58 1902.22 1468.33 Q1902.22 1477.06 1899.14 1481.67 Q1896.09 1486.25 1890.28 1486.25 Q1884.47 1486.25 1881.39 1481.67 Q1878.33 1477.06 1878.33 1468.33 Q1878.33 1459.58 1881.39 1455 Q1884.47 1450.39 1890.28 1450.39 Z" fill="#000000" fill-rule="evenodd" fill-opacity="1" /><path clip-path="url(#clip470)" d="M1920.44 1454.1 Q1916.83 1454.1 1915 1457.66 Q1913.2 1461.2 1913.2 1468.33 Q1913.2 1475.44 1915 1479.01 Q1916.83 1482.55 1920.44 1482.55 Q1924.08 1482.55 1925.88 1479.01 Q1927.71 1475.44 1927.71 1468.33 Q1927.71 1461.2 1925.88 1457.66 Q1924.08 1454.1 1920.44 1454.1 M1920.44 1450.39 Q1926.25 1450.39 1929.31 1455 Q1932.39 1459.58 1932.39 1468.33 Q1932.39 1477.06 1929.31 1481.67 Q1926.25 1486.25 1920.44 1486.25 Q1914.63 1486.25 1911.55 1481.67 Q1908.5 1477.06 1908.5 1468.33 Q1908.5 1459.58 1911.55 1455 Q1914.63 1450.39 1920.44 1450.39 Z" fill="#000000" fill-rule="evenodd" fill-opacity="1" /><path clip-path="url(#clip470)" d="M1953.45 1455.09 L1941.64 1473.54 L1953.45 1473.54 L1953.45 1455.09 M1952.22 1451.02 L1958.1 1451.02 L1958.1 1473.54 L1963.03 1473.54 L1963.03 1477.43 L1958.1 1477.43 L1958.1 1485.58 L1953.45 1485.58 L1953.45 1477.43 L1937.85 1477.43 L1937.85 1472.92 L1952.22 1451.02 Z" fill="#000000" fill-rule="evenodd" fill-opacity="1" /><path clip-path="url(#clip470)" d="M2225.5 1454.1 Q2221.89 1454.1 2220.06 1457.66 Q2218.25 1461.2 2218.25 1468.33 Q2218.25 1475.44 2220.06 1479.01 Q2221.89 1482.55 2225.5 1482.55 Q2229.13 1482.55 2230.94 1479.01 Q2232.77 1475.44 2232.77 1468.33 Q2232.77 1461.2 2230.94 1457.66 Q2229.13 1454.1 2225.5 1454.1 M2225.5 1450.39 Q2231.31 1450.39 2234.36 1455 Q2237.44 1459.58 2237.44 1468.33 Q2237.44 1477.06 2234.36 1481.67 Q2231.31 1486.25 2225.5 1486.25 Q2219.69 1486.25 2216.61 1481.67 Q2213.55 1477.06 2213.55 1468.33 Q2213.55 1459.58 2216.61 1455 Q2219.69 1450.39 2225.5 1450.39 Z" fill="#000000" fill-rule="evenodd" fill-opacity="1" /><path clip-path="url(#clip470)" d="M2245.66 1479.7 L2250.54 1479.7 L2250.54 1485.58 L2245.66 1485.58 L2245.66 1479.7 Z" fill="#000000" fill-rule="evenodd" fill-opacity="1" /><path clip-path="url(#clip470)" d="M2270.73 1454.1 Q2267.12 1454.1 2265.29 1457.66 Q2263.48 1461.2 2263.48 1468.33 Q2263.48 1475.44 2265.29 1479.01 Q2267.12 1482.55 2270.73 1482.55 Q2274.36 1482.55 2276.17 1479.01 Q2278 1475.44 2278 1468.33 Q2278 1461.2 2276.17 1457.66 Q2274.36 1454.1 2270.73 1454.1 M2270.73 1450.39 Q2276.54 1450.39 2279.59 1455 Q2282.67 1459.58 2282.67 1468.33 Q2282.67 1477.06 2279.59 1481.67 Q2276.54 1486.25 2270.73 1486.25 Q2264.92 1486.25 2261.84 1481.67 Q2258.78 1477.06 2258.78 1468.33 Q2258.78 1459.58 2261.84 1455 Q2264.92 1450.39 2270.73 1450.39 Z" fill="#000000" fill-rule="evenodd" fill-opacity="1" /><path clip-path="url(#clip470)" d="M2300.89 1454.1 Q2297.28 1454.1 2295.45 1457.66 Q2293.65 1461.2 2293.65 1468.33 Q2293.65 1475.44 2295.45 1479.01 Q2297.28 1482.55 2300.89 1482.55 Q2304.53 1482.55 2306.33 1479.01 Q2308.16 1475.44 2308.16 1468.33 Q2308.16 1461.2 2306.33 1457.66 Q2304.53 1454.1 2300.89 1454.1 M2300.89 1450.39 Q2306.7 1450.39 2309.76 1455 Q2312.84 1459.58 2312.84 1468.33 Q2312.84 1477.06 2309.76 1481.67 Q2306.7 1486.25 2300.89 1486.25 Q2295.08 1486.25 2292 1481.67 Q2288.95 1477.06 2288.95 1468.33 Q2288.95 1459.58 2292 1455 Q2295.08 1450.39 2300.89 1450.39 Z" fill="#000000" fill-rule="evenodd" fill-opacity="1" /><path clip-path="url(#clip470)" d="M2331.05 1454.1 Q2327.44 1454.1 2325.61 1457.66 Q2323.81 1461.2 2323.81 1468.33 Q2323.81 1475.44 2325.61 1479.01 Q2327.44 1482.55 2331.05 1482.55 Q2334.69 1482.55 2336.49 1479.01 Q2338.32 1475.44 2338.32 1468.33 Q2338.32 1461.2 2336.49 1457.66 Q2334.69 1454.1 2331.05 1454.1 M2331.05 1450.39 Q2336.86 1450.39 2339.92 1455 Q2343 1459.58 2343 1468.33 Q2343 1477.06 2339.92 1481.67 Q2336.86 1486.25 2331.05 1486.25 Q2325.24 1486.25 2322.16 1481.67 Q2319.11 1477.06 2319.11 1468.33 Q2319.11 1459.58 2322.16 1455 Q2325.24 1450.39 2331.05 1450.39 Z" fill="#000000" fill-rule="evenodd" fill-opacity="1" /><path clip-path="url(#clip470)" d="M2351.26 1451.02 L2369.62 1451.02 L2369.62 1454.96 L2355.54 1454.96 L2355.54 1463.43 Q2356.56 1463.08 2357.58 1462.92 Q2358.6 1462.73 2359.62 1462.73 Q2365.4 1462.73 2368.78 1465.9 Q2372.16 1469.08 2372.16 1474.49 Q2372.16 1480.07 2368.69 1483.17 Q2365.22 1486.25 2358.9 1486.25 Q2356.72 1486.25 2354.46 1485.88 Q2352.21 1485.51 2349.8 1484.77 L2349.8 1480.07 Q2351.89 1481.2 2354.11 1481.76 Q2356.33 1482.32 2358.81 1482.32 Q2362.81 1482.32 2365.15 1480.21 Q2367.49 1478.1 2367.49 1474.49 Q2367.49 1470.88 2365.15 1468.77 Q2362.81 1466.67 2358.81 1466.67 Q2356.93 1466.67 2355.06 1467.08 Q2353.21 1467.5 2351.26 1468.38 L2351.26 1451.02 Z" fill="#000000" fill-rule="evenodd" fill-opacity="1" /><path clip-path="url(#clip470)" d="M1012.52 1520.52 L1019.01 1520.52 L1029 1560.69 L1038.96 1520.52 L1046.19 1520.52 L1056.18 1560.69 L1066.15 1520.52 L1072.67 1520.52 L1060.74 1568.04 L1052.65 1568.04 L1042.63 1526.79 L1032.5 1568.04 L1024.42 1568.04 L1012.52 1520.52 Z" fill="#000000" fill-rule="evenodd" fill-opacity="1" /><path clip-path="url(#clip470)" d="M1092.98 1550.12 Q1085.88 1550.12 1083.14 1551.75 Q1080.41 1553.37 1080.41 1557.29 Q1080.41 1560.4 1082.44 1562.25 Q1084.51 1564.07 1088.04 1564.07 Q1092.91 1564.07 1095.84 1560.63 Q1098.8 1557.16 1098.8 1551.43 L1098.8 1550.12 L1092.98 1550.12 M1104.66 1547.71 L1104.66 1568.04 L1098.8 1568.04 L1098.8 1562.63 Q1096.8 1565.88 1093.81 1567.44 Q1090.81 1568.97 1086.48 1568.97 Q1081.01 1568.97 1077.76 1565.91 Q1074.55 1562.82 1074.55 1557.67 Q1074.55 1551.65 1078.56 1548.6 Q1082.6 1545.54 1090.59 1545.54 L1098.8 1545.54 L1098.8 1544.97 Q1098.8 1540.93 1096.13 1538.73 Q1093.49 1536.5 1088.68 1536.5 Q1085.63 1536.5 1082.73 1537.23 Q1079.83 1537.97 1077.16 1539.43 L1077.16 1534.02 Q1080.37 1532.78 1083.4 1532.17 Q1086.42 1531.54 1089.29 1531.54 Q1097.02 1531.54 1100.84 1535.55 Q1104.66 1539.56 1104.66 1547.71 Z" fill="#000000" fill-rule="evenodd" fill-opacity="1" /><path clip-path="url(#clip470)" d="M1112.52 1532.4 L1118.73 1532.4 L1129.87 1562.31 L1141.01 1532.4 L1147.21 1532.4 L1133.85 1568.04 L1125.89 1568.04 L1112.52 1532.4 Z" fill="#000000" fill-rule="evenodd" fill-opacity="1" /><path clip-path="url(#clip470)" d="M1185.79 1548.76 L1185.79 1551.62 L1158.86 1551.62 Q1159.25 1557.67 1162.49 1560.85 Q1165.77 1564 1171.59 1564 Q1174.97 1564 1178.12 1563.17 Q1181.3 1562.35 1184.42 1560.69 L1184.42 1566.23 Q1181.27 1567.57 1177.96 1568.27 Q1174.65 1568.97 1171.24 1568.97 Q1162.71 1568.97 1157.72 1564 Q1152.75 1559.04 1152.75 1550.57 Q1152.75 1541.82 1157.46 1536.69 Q1162.21 1531.54 1170.23 1531.54 Q1177.42 1531.54 1181.59 1536.18 Q1185.79 1540.8 1185.79 1548.76 M1179.93 1547.04 Q1179.87 1542.23 1177.23 1539.37 Q1174.62 1536.5 1170.29 1536.5 Q1165.39 1536.5 1162.43 1539.27 Q1159.5 1542.04 1159.05 1547.07 L1179.93 1547.04 Z" fill="#000000" fill-rule="evenodd" fill-opacity="1" /><path clip-path="url(#clip470)" d="M1195.4 1518.52 L1201.26 1518.52 L1201.26 1568.04 L1195.4 1568.04 L1195.4 1518.52 Z" fill="#000000" fill-rule="evenodd" fill-opacity="1" /><path clip-path="url(#clip470)" d="M1244 1548.76 L1244 1551.62 L1217.08 1551.62 Q1217.46 1557.67 1220.71 1560.85 Q1223.98 1564 1229.81 1564 Q1233.18 1564 1236.33 1563.17 Q1239.52 1562.35 1242.64 1560.69 L1242.64 1566.23 Q1239.48 1567.57 1236.17 1568.27 Q1232.86 1568.97 1229.46 1568.97 Q1220.93 1568.97 1215.93 1564 Q1210.97 1559.04 1210.97 1550.57 Q1210.97 1541.82 1215.68 1536.69 Q1220.42 1531.54 1228.44 1531.54 Q1235.63 1531.54 1239.8 1536.18 Q1244 1540.8 1244 1548.76 M1238.15 1547.04 Q1238.08 1542.23 1235.44 1539.37 Q1232.83 1536.5 1228.5 1536.5 Q1223.6 1536.5 1220.64 1539.27 Q1217.71 1542.04 1217.27 1547.07 L1238.15 1547.04 Z" fill="#000000" fill-rule="evenodd" fill-opacity="1" /><path clip-path="url(#clip470)" d="M1283.25 1546.53 L1283.25 1568.04 L1277.39 1568.04 L1277.39 1546.72 Q1277.39 1541.66 1275.42 1539.14 Q1273.45 1536.63 1269.5 1536.63 Q1264.76 1536.63 1262.02 1539.65 Q1259.28 1542.68 1259.28 1547.9 L1259.28 1568.04 L1253.39 1568.04 L1253.39 1532.4 L1259.28 1532.4 L1259.28 1537.93 Q1261.38 1534.72 1264.22 1533.13 Q1267.08 1531.54 1270.8 1531.54 Q1276.95 1531.54 1280.1 1535.36 Q1283.25 1539.14 1283.25 1546.53 Z" fill="#000000" fill-rule="evenodd" fill-opacity="1" /><path clip-path="url(#clip470)" d="M1318.39 1549.81 Q1318.39 1543.44 1315.75 1539.94 Q1313.14 1536.44 1308.39 1536.44 Q1303.68 1536.44 1301.04 1539.94 Q1298.43 1543.44 1298.43 1549.81 Q1298.43 1556.14 1301.04 1559.64 Q1303.68 1563.14 1308.39 1563.14 Q1313.14 1563.14 1315.75 1559.64 Q1318.39 1556.14 1318.39 1549.81 M1324.24 1563.62 Q1324.24 1572.72 1320.2 1577.15 Q1316.16 1581.6 1307.82 1581.6 Q1304.73 1581.6 1302 1581.13 Q1299.26 1580.68 1296.68 1579.72 L1296.68 1574.03 Q1299.26 1575.43 1301.77 1576.1 Q1304.29 1576.76 1306.9 1576.76 Q1312.66 1576.76 1315.52 1573.74 Q1318.39 1570.75 1318.39 1564.67 L1318.39 1561.77 Q1316.57 1564.92 1313.74 1566.48 Q1310.91 1568.04 1306.96 1568.04 Q1300.4 1568.04 1296.39 1563.05 Q1292.38 1558.05 1292.38 1549.81 Q1292.38 1541.53 1296.39 1536.53 Q1300.4 1531.54 1306.96 1531.54 Q1310.91 1531.54 1313.74 1533.1 Q1316.57 1534.66 1318.39 1537.81 L1318.39 1532.4 L1324.24 1532.4 L1324.24 1563.62 Z" fill="#000000" fill-rule="evenodd" fill-opacity="1" /><path clip-path="url(#clip470)" d="M1342.1 1522.27 L1342.1 1532.4 L1354.16 1532.4 L1354.16 1536.95 L1342.1 1536.95 L1342.1 1556.3 Q1342.1 1560.66 1343.28 1561.9 Q1344.49 1563.14 1348.15 1563.14 L1354.16 1563.14 L1354.16 1568.04 L1348.15 1568.04 Q1341.37 1568.04 1338.79 1565.53 Q1336.21 1562.98 1336.21 1556.3 L1336.21 1536.95 L1331.91 1536.95 L1331.91 1532.4 L1336.21 1532.4 L1336.21 1522.27 L1342.1 1522.27 Z" fill="#000000" fill-rule="evenodd" fill-opacity="1" /><path clip-path="url(#clip470)" d="M1391.5 1546.53 L1391.5 1568.04 L1385.64 1568.04 L1385.64 1546.72 Q1385.64 1541.66 1383.67 1539.14 Q1381.69 1536.63 1377.75 1536.63 Q1373.01 1536.63 1370.27 1539.65 Q1367.53 1542.68 1367.53 1547.9 L1367.53 1568.04 L1361.64 1568.04 L1361.64 1518.52 L1367.53 1518.52 L1367.53 1537.93 Q1369.63 1534.72 1372.46 1533.13 Q1375.33 1531.54 1379.05 1531.54 Q1385.2 1531.54 1388.35 1535.36 Q1391.5 1539.14 1391.5 1546.53 Z" fill="#000000" fill-rule="evenodd" fill-opacity="1" /><path clip-path="url(#clip470)" d="M1423.36 1518.52 L1436.85 1518.52 L1436.85 1523.07 L1429.21 1523.07 L1429.21 1572.09 L1436.85 1572.09 L1436.85 1576.64 L1423.36 1576.64 L1423.36 1518.52 Z" fill="#000000" fill-rule="evenodd" fill-opacity="1" /><path clip-path="url(#clip470)" d="M1477.08 1539.24 Q1479.28 1535.29 1482.34 1533.41 Q1485.39 1531.54 1489.53 1531.54 Q1495.1 1531.54 1498.12 1535.45 Q1501.15 1539.33 1501.15 1546.53 L1501.15 1568.04 L1495.26 1568.04 L1495.26 1546.72 Q1495.26 1541.59 1493.44 1539.11 Q1491.63 1536.63 1487.91 1536.63 Q1483.35 1536.63 1480.71 1539.65 Q1478.07 1542.68 1478.07 1547.9 L1478.07 1568.04 L1472.18 1568.04 L1472.18 1546.72 Q1472.18 1541.56 1470.37 1539.11 Q1468.55 1536.63 1464.77 1536.63 Q1460.28 1536.63 1457.64 1539.68 Q1455 1542.71 1455 1547.9 L1455 1568.04 L1449.11 1568.04 L1449.11 1532.4 L1455 1532.4 L1455 1537.93 Q1457 1534.66 1459.8 1533.1 Q1462.6 1531.54 1466.45 1531.54 Q1470.34 1531.54 1473.04 1533.51 Q1475.78 1535.48 1477.08 1539.24 Z" fill="#000000" fill-rule="evenodd" fill-opacity="1" /><path clip-path="url(#clip470)" d="M1526.51 1518.52 L1526.51 1576.64 L1513.02 1576.64 L1513.02 1572.09 L1520.63 1572.09 L1520.63 1523.07 L1513.02 1523.07 L1513.02 1518.52 L1526.51 1518.52 Z" fill="#000000" fill-rule="evenodd" fill-opacity="1" /><polyline clip-path="url(#clip472)" style="stroke:#000000; stroke-linecap:butt; stroke-linejoin:round; stroke-width:2; stroke-opacity:0.1; fill:none" points="
  186.274,1384.24 2352.76,1384.24 
  "/>
<polyline clip-path="url(#clip472)" style="stroke:#000000; stroke-linecap:butt; stroke-linejoin:round; stroke-width:2; stroke-opacity:0.1; fill:none" points="
  186.274,1059.73 2352.76,1059.73 
  "/>
<polyline clip-path="url(#clip472)" style="stroke:#000000; stroke-linecap:butt; stroke-linejoin:round; stroke-width:2; stroke-opacity:0.1; fill:none" points="
  186.274,735.212 2352.76,735.212 
  "/>
<polyline clip-path="url(#clip472)" style="stroke:#000000; stroke-linecap:butt; stroke-linejoin:round; stroke-width:2; stroke-opacity:0.1; fill:none" points="
  186.274,410.699 2352.76,410.699 
  "/>
<polyline clip-path="url(#clip472)" style="stroke:#000000; stroke-linecap:butt; stroke-linejoin:round; stroke-width:2; stroke-opacity:0.1; fill:none" points="
  186.274,86.1857 2352.76,86.1857 
  "/>
<polyline clip-path="url(#clip470)" style="stroke:#000000; stroke-linecap:butt; stroke-linejoin:round; stroke-width:4; stroke-opacity:1; fill:none" points="
  186.274,1423.18 186.274,47.2441 
  "/>
<polyline clip-path="url(#clip470)" style="stroke:#000000; stroke-linecap:butt; stroke-linejoin:round; stroke-width:4; stroke-opacity:1; fill:none" points="
  186.274,1384.24 205.172,1384.24 
  "/>
<polyline clip-path="url(#clip470)" style="stroke:#000000; stroke-linecap:butt; stroke-linejoin:round; stroke-width:4; stroke-opacity:1; fill:none" points="
  186.274,1059.73 205.172,1059.73 
  "/>
<polyline clip-path="url(#clip470)" style="stroke:#000000; stroke-linecap:butt; stroke-linejoin:round; stroke-width:4; stroke-opacity:1; fill:none" points="
  186.274,735.212 205.172,735.212 
  "/>
<polyline clip-path="url(#clip470)" style="stroke:#000000; stroke-linecap:butt; stroke-linejoin:round; stroke-width:4; stroke-opacity:1; fill:none" points="
  186.274,410.699 205.172,410.699 
  "/>
<polyline clip-path="url(#clip470)" style="stroke:#000000; stroke-linecap:butt; stroke-linejoin:round; stroke-width:4; stroke-opacity:1; fill:none" points="
  186.274,86.1857 205.172,86.1857 
  "/>
<path clip-path="url(#clip470)" d="M62.9365 1370.04 Q59.3254 1370.04 57.4967 1373.6 Q55.6912 1377.14 55.6912 1384.27 Q55.6912 1391.38 57.4967 1394.94 Q59.3254 1398.49 62.9365 1398.49 Q66.5707 1398.49 68.3763 1394.94 Q70.205 1391.38 70.205 1384.27 Q70.205 1377.14 68.3763 1373.6 Q66.5707 1370.04 62.9365 1370.04 M62.9365 1366.33 Q68.7467 1366.33 71.8022 1370.94 Q74.8809 1375.52 74.8809 1384.27 Q74.8809 1393 71.8022 1397.61 Q68.7467 1402.19 62.9365 1402.19 Q57.1264 1402.19 54.0477 1397.61 Q50.9921 1393 50.9921 1384.27 Q50.9921 1375.52 54.0477 1370.94 Q57.1264 1366.33 62.9365 1366.33 Z" fill="#000000" fill-rule="evenodd" fill-opacity="1" /><path clip-path="url(#clip470)" d="M83.0984 1395.64 L87.9827 1395.64 L87.9827 1401.52 L83.0984 1401.52 L83.0984 1395.64 Z" fill="#000000" fill-rule="evenodd" fill-opacity="1" /><path clip-path="url(#clip470)" d="M108.168 1370.04 Q104.557 1370.04 102.728 1373.6 Q100.922 1377.14 100.922 1384.27 Q100.922 1391.38 102.728 1394.94 Q104.557 1398.49 108.168 1398.49 Q111.802 1398.49 113.608 1394.94 Q115.436 1391.38 115.436 1384.27 Q115.436 1377.14 113.608 1373.6 Q111.802 1370.04 108.168 1370.04 M108.168 1366.33 Q113.978 1366.33 117.033 1370.94 Q120.112 1375.52 120.112 1384.27 Q120.112 1393 117.033 1397.61 Q113.978 1402.19 108.168 1402.19 Q102.358 1402.19 99.2789 1397.61 Q96.2234 1393 96.2234 1384.27 Q96.2234 1375.52 99.2789 1370.94 Q102.358 1366.33 108.168 1366.33 Z" fill="#000000" fill-rule="evenodd" fill-opacity="1" /><path clip-path="url(#clip470)" d="M138.33 1370.04 Q134.719 1370.04 132.89 1373.6 Q131.084 1377.14 131.084 1384.27 Q131.084 1391.38 132.89 1394.94 Q134.719 1398.49 138.33 1398.49 Q141.964 1398.49 143.769 1394.94 Q145.598 1391.38 145.598 1384.27 Q145.598 1377.14 143.769 1373.6 Q141.964 1370.04 138.33 1370.04 M138.33 1366.33 Q144.14 1366.33 147.195 1370.94 Q150.274 1375.52 150.274 1384.27 Q150.274 1393 147.195 1397.61 Q144.14 1402.19 138.33 1402.19 Q132.519 1402.19 129.441 1397.61 Q126.385 1393 126.385 1384.27 Q126.385 1375.52 129.441 1370.94 Q132.519 1366.33 138.33 1366.33 Z" fill="#000000" fill-rule="evenodd" fill-opacity="1" /><path clip-path="url(#clip470)" d="M63.9319 1045.52 Q60.3208 1045.52 58.4921 1049.09 Q56.6865 1052.63 56.6865 1059.76 Q56.6865 1066.87 58.4921 1070.43 Q60.3208 1073.97 63.9319 1073.97 Q67.5661 1073.97 69.3717 1070.43 Q71.2004 1066.87 71.2004 1059.76 Q71.2004 1052.63 69.3717 1049.09 Q67.5661 1045.52 63.9319 1045.52 M63.9319 1041.82 Q69.742 1041.82 72.7976 1046.43 Q75.8763 1051.01 75.8763 1059.76 Q75.8763 1068.49 72.7976 1073.09 Q69.742 1077.68 63.9319 1077.68 Q58.1217 1077.68 55.043 1073.09 Q51.9875 1068.49 51.9875 1059.76 Q51.9875 1051.01 55.043 1046.43 Q58.1217 1041.82 63.9319 1041.82 Z" fill="#000000" fill-rule="evenodd" fill-opacity="1" /><path clip-path="url(#clip470)" d="M84.0938 1071.13 L88.978 1071.13 L88.978 1077.01 L84.0938 1077.01 L84.0938 1071.13 Z" fill="#000000" fill-rule="evenodd" fill-opacity="1" /><path clip-path="url(#clip470)" d="M103.191 1073.07 L119.51 1073.07 L119.51 1077.01 L97.566 1077.01 L97.566 1073.07 Q100.228 1070.32 104.811 1065.69 Q109.418 1061.03 110.598 1059.69 Q112.844 1057.17 113.723 1055.43 Q114.626 1053.67 114.626 1051.98 Q114.626 1049.23 112.682 1047.49 Q110.76 1045.76 107.658 1045.76 Q105.459 1045.76 103.006 1046.52 Q100.575 1047.28 97.7974 1048.83 L97.7974 1044.11 Q100.621 1042.98 103.075 1042.4 Q105.529 1041.82 107.566 1041.82 Q112.936 1041.82 116.131 1044.51 Q119.325 1047.19 119.325 1051.68 Q119.325 1053.81 118.515 1055.73 Q117.728 1057.63 115.621 1060.22 Q115.043 1060.89 111.941 1064.11 Q108.839 1067.31 103.191 1073.07 Z" fill="#000000" fill-rule="evenodd" fill-opacity="1" /><path clip-path="url(#clip470)" d="M129.371 1042.45 L147.728 1042.45 L147.728 1046.38 L133.654 1046.38 L133.654 1054.85 Q134.672 1054.51 135.691 1054.34 Q136.709 1054.16 137.728 1054.16 Q143.515 1054.16 146.894 1057.33 Q150.274 1060.5 150.274 1065.92 Q150.274 1071.5 146.802 1074.6 Q143.33 1077.68 137.01 1077.68 Q134.834 1077.68 132.566 1077.31 Q130.32 1076.94 127.913 1076.19 L127.913 1071.5 Q129.996 1072.63 132.219 1073.19 Q134.441 1073.74 136.918 1073.74 Q140.922 1073.74 143.26 1071.63 Q145.598 1069.53 145.598 1065.92 Q145.598 1062.31 143.26 1060.2 Q140.922 1058.09 136.918 1058.09 Q135.043 1058.09 133.168 1058.51 Q131.316 1058.93 129.371 1059.81 L129.371 1042.45 Z" fill="#000000" fill-rule="evenodd" fill-opacity="1" /><path clip-path="url(#clip470)" d="M62.9365 721.011 Q59.3254 721.011 57.4967 724.575 Q55.6912 728.117 55.6912 735.247 Q55.6912 742.353 57.4967 745.918 Q59.3254 749.46 62.9365 749.46 Q66.5707 749.46 68.3763 745.918 Q70.205 742.353 70.205 735.247 Q70.205 728.117 68.3763 724.575 Q66.5707 721.011 62.9365 721.011 M62.9365 717.307 Q68.7467 717.307 71.8022 721.913 Q74.8809 726.497 74.8809 735.247 Q74.8809 743.973 71.8022 748.58 Q68.7467 753.163 62.9365 753.163 Q57.1264 753.163 54.0477 748.58 Q50.9921 743.973 50.9921 735.247 Q50.9921 726.497 54.0477 721.913 Q57.1264 717.307 62.9365 717.307 Z" fill="#000000" fill-rule="evenodd" fill-opacity="1" /><path clip-path="url(#clip470)" d="M83.0984 746.612 L87.9827 746.612 L87.9827 752.492 L83.0984 752.492 L83.0984 746.612 Z" fill="#000000" fill-rule="evenodd" fill-opacity="1" /><path clip-path="url(#clip470)" d="M98.2141 717.932 L116.57 717.932 L116.57 721.867 L102.496 721.867 L102.496 730.339 Q103.515 729.992 104.534 729.83 Q105.552 729.645 106.571 729.645 Q112.358 729.645 115.737 732.816 Q119.117 735.987 119.117 741.404 Q119.117 746.983 115.645 750.085 Q112.172 753.163 105.853 753.163 Q103.677 753.163 101.409 752.793 Q99.1632 752.423 96.7558 751.682 L96.7558 746.983 Q98.8391 748.117 101.061 748.673 Q103.284 749.228 105.76 749.228 Q109.765 749.228 112.103 747.122 Q114.441 745.015 114.441 741.404 Q114.441 737.793 112.103 735.687 Q109.765 733.58 105.76 733.58 Q103.885 733.58 102.01 733.997 Q100.159 734.413 98.2141 735.293 L98.2141 717.932 Z" fill="#000000" fill-rule="evenodd" fill-opacity="1" /><path clip-path="url(#clip470)" d="M138.33 721.011 Q134.719 721.011 132.89 724.575 Q131.084 728.117 131.084 735.247 Q131.084 742.353 132.89 745.918 Q134.719 749.46 138.33 749.46 Q141.964 749.46 143.769 745.918 Q145.598 742.353 145.598 735.247 Q145.598 728.117 143.769 724.575 Q141.964 721.011 138.33 721.011 M138.33 717.307 Q144.14 717.307 147.195 721.913 Q150.274 726.497 150.274 735.247 Q150.274 743.973 147.195 748.58 Q144.14 753.163 138.33 753.163 Q132.519 753.163 129.441 748.58 Q126.385 743.973 126.385 735.247 Q126.385 726.497 129.441 721.913 Q132.519 717.307 138.33 717.307 Z" fill="#000000" fill-rule="evenodd" fill-opacity="1" /><path clip-path="url(#clip470)" d="M63.9319 396.498 Q60.3208 396.498 58.4921 400.062 Q56.6865 403.604 56.6865 410.734 Q56.6865 417.84 58.4921 421.405 Q60.3208 424.946 63.9319 424.946 Q67.5661 424.946 69.3717 421.405 Q71.2004 417.84 71.2004 410.734 Q71.2004 403.604 69.3717 400.062 Q67.5661 396.498 63.9319 396.498 M63.9319 392.794 Q69.742 392.794 72.7976 397.4 Q75.8763 401.984 75.8763 410.734 Q75.8763 419.46 72.7976 424.067 Q69.742 428.65 63.9319 428.65 Q58.1217 428.65 55.043 424.067 Q51.9875 419.46 51.9875 410.734 Q51.9875 401.984 55.043 397.4 Q58.1217 392.794 63.9319 392.794 Z" fill="#000000" fill-rule="evenodd" fill-opacity="1" /><path clip-path="url(#clip470)" d="M84.0938 422.099 L88.978 422.099 L88.978 427.979 L84.0938 427.979 L84.0938 422.099 Z" fill="#000000" fill-rule="evenodd" fill-opacity="1" /><path clip-path="url(#clip470)" d="M97.9826 393.419 L120.205 393.419 L120.205 395.41 L107.658 427.979 L102.774 427.979 L114.58 397.354 L97.9826 397.354 L97.9826 393.419 Z" fill="#000000" fill-rule="evenodd" fill-opacity="1" /><path clip-path="url(#clip470)" d="M129.371 393.419 L147.728 393.419 L147.728 397.354 L133.654 397.354 L133.654 405.826 Q134.672 405.479 135.691 405.317 Q136.709 405.132 137.728 405.132 Q143.515 405.132 146.894 408.303 Q150.274 411.474 150.274 416.891 Q150.274 422.47 146.802 425.571 Q143.33 428.65 137.01 428.65 Q134.834 428.65 132.566 428.28 Q130.32 427.909 127.913 427.169 L127.913 422.47 Q129.996 423.604 132.219 424.159 Q134.441 424.715 136.918 424.715 Q140.922 424.715 143.26 422.608 Q145.598 420.502 145.598 416.891 Q145.598 413.28 143.26 411.173 Q140.922 409.067 136.918 409.067 Q135.043 409.067 133.168 409.484 Q131.316 409.9 129.371 410.78 L129.371 393.419 Z" fill="#000000" fill-rule="evenodd" fill-opacity="1" /><path clip-path="url(#clip470)" d="M53.7467 99.5305 L61.3856 99.5305 L61.3856 73.1649 L53.0754 74.8316 L53.0754 70.5723 L61.3393 68.9057 L66.0152 68.9057 L66.0152 99.5305 L73.654 99.5305 L73.654 103.466 L53.7467 103.466 L53.7467 99.5305 Z" fill="#000000" fill-rule="evenodd" fill-opacity="1" /><path clip-path="url(#clip470)" d="M83.0984 97.5861 L87.9827 97.5861 L87.9827 103.466 L83.0984 103.466 L83.0984 97.5861 Z" fill="#000000" fill-rule="evenodd" fill-opacity="1" /><path clip-path="url(#clip470)" d="M108.168 71.9844 Q104.557 71.9844 102.728 75.5492 Q100.922 79.0908 100.922 86.2204 Q100.922 93.3268 102.728 96.8916 Q104.557 100.433 108.168 100.433 Q111.802 100.433 113.608 96.8916 Q115.436 93.3268 115.436 86.2204 Q115.436 79.0908 113.608 75.5492 Q111.802 71.9844 108.168 71.9844 M108.168 68.2807 Q113.978 68.2807 117.033 72.8871 Q120.112 77.4704 120.112 86.2204 Q120.112 94.9472 117.033 99.5537 Q113.978 104.137 108.168 104.137 Q102.358 104.137 99.2789 99.5537 Q96.2234 94.9472 96.2234 86.2204 Q96.2234 77.4704 99.2789 72.8871 Q102.358 68.2807 108.168 68.2807 Z" fill="#000000" fill-rule="evenodd" fill-opacity="1" /><path clip-path="url(#clip470)" d="M138.33 71.9844 Q134.719 71.9844 132.89 75.5492 Q131.084 79.0908 131.084 86.2204 Q131.084 93.3268 132.89 96.8916 Q134.719 100.433 138.33 100.433 Q141.964 100.433 143.769 96.8916 Q145.598 93.3268 145.598 86.2204 Q145.598 79.0908 143.769 75.5492 Q141.964 71.9844 138.33 71.9844 M138.33 68.2807 Q144.14 68.2807 147.195 72.8871 Q150.274 77.4704 150.274 86.2204 Q150.274 94.9472 147.195 99.5537 Q144.14 104.137 138.33 104.137 Q132.519 104.137 129.441 99.5537 Q126.385 94.9472 126.385 86.2204 Q126.385 77.4704 129.441 72.8871 Q132.519 68.2807 138.33 68.2807 Z" fill="#000000" fill-rule="evenodd" fill-opacity="1" /><polyline clip-path="url(#clip472)" style="stroke:#009af9; stroke-linecap:butt; stroke-linejoin:round; stroke-width:4; stroke-opacity:1; fill:none" points="
  247.59,1384.24 247.622,1384.24 247.655,1384.24 247.684,1384.24 247.717,1384.24 247.749,1384.24 247.786,1384.24 247.819,1384.24 247.852,1384.24 247.885,1384.24 
  247.922,1384.24 247.954,1384.24 247.991,1384.24 248.024,1384.24 248.061,1384.24 248.094,1384.24 248.131,1384.24 248.167,1384.24 248.204,1384.24 248.241,1384.24 
  248.278,1384.24 248.315,1384.24 248.352,1384.24 248.389,1384.24 248.43,1384.24 248.467,1384.24 248.504,1384.24 248.545,1384.24 248.586,1384.24 248.622,1384.24 
  248.663,1384.24 248.704,1384.24 248.745,1384.24 248.786,1384.24 248.827,1384.24 248.868,1384.24 248.909,1384.24 248.954,1384.24 248.995,1384.24 249.036,1384.24 
  249.081,1384.24 249.127,1384.24 249.168,1384.24 249.213,1384.24 249.258,1384.24 249.303,1384.24 249.348,1384.24 249.393,1384.24 249.438,1384.24 249.487,1384.24 
  249.532,1384.24 249.582,1384.24 249.627,1384.24 249.676,1384.24 249.725,1384.24 249.77,1384.24 249.819,1384.24 249.868,1384.24 249.922,1384.24 249.971,1384.24 
  250.02,1384.24 250.073,1384.24 250.123,1384.24 250.176,1384.24 250.225,1384.24 250.278,1384.24 250.332,1384.24 250.385,1384.24 250.438,1384.24 250.491,1384.24 
  250.549,1384.24 250.602,1384.24 250.659,1384.24 250.713,1384.24 250.77,1384.24 250.828,1384.24 250.885,1384.24 250.942,1384.24 251,1384.24 251.057,1384.24 
  251.119,1384.24 251.176,1384.24 251.237,1384.24 251.299,1384.24 251.36,1384.24 251.422,1384.24 251.483,1371.26 251.545,1358.28 251.606,1332.32 251.672,1306.36 
  251.733,1241.45 251.799,1007.8 251.864,696.27 251.93,462.621 251.996,164.069 252.061,138.108 252.127,138.108 252.196,151.088 252.262,164.069 252.332,177.049 
  252.401,190.03 252.471,190.03 252.541,203.01 252.61,177.049 252.68,151.088 252.754,138.108 252.824,112.147 252.897,99.1662 252.971,86.1857 253.045,86.1857 
  253.119,86.1857 253.197,86.1857 253.27,164.069 253.348,514.543 253.422,1033.76 253.5,1228.47 253.578,1332.32 253.66,1358.28 253.738,1371.26 253.82,1371.26 
  253.897,1384.24 253.979,1384.24 254.061,1384.24 254.143,1384.24 254.225,1384.24 254.311,1384.24 254.393,1384.24 254.479,1384.24 254.566,1384.24 254.652,1384.24 
  254.738,1384.24 254.828,1384.24 254.914,1384.24 255.004,1384.24 255.094,1384.24 255.184,1384.24 255.275,1384.24 255.369,1384.24 255.459,1384.24 255.553,1384.24 
  255.648,1384.24 255.742,1384.24 255.84,1384.24 255.935,1384.24 256.033,1384.24 256.131,1384.24 256.23,1384.24 256.328,1384.24 256.43,1384.24 256.529,1384.24 
  256.631,1384.24 256.734,1384.24 256.836,1384.24 256.943,1384.24 257.045,1384.24 257.152,1384.24 257.258,1384.24 257.365,1384.24 257.476,1384.24 257.582,1384.24 
  257.693,1384.24 257.804,1384.24 257.914,1384.24 258.029,1384.24 258.144,1384.24 258.254,1384.24 258.373,1384.24 258.488,1384.24 258.607,1384.24 258.722,1384.24 
  258.84,1384.24 258.963,1384.24 259.082,1384.24 259.205,1384.24 259.328,1384.24 259.451,1384.24 259.574,1384.24 259.701,1384.24 259.828,1384.24 259.955,1384.24 
  260.082,1384.24 260.214,1384.24 260.345,1384.24 260.476,1384.24 260.607,1384.24 260.742,1384.24 260.873,1384.24 261.013,1384.24 261.148,1384.24 261.287,1384.24 
  261.423,1384.24 261.566,1384.24 261.705,1384.24 261.849,1384.24 261.992,1384.24 262.136,1384.24 262.279,1384.24 262.427,1384.24 262.574,1384.24 262.726,1384.24 
  262.874,1384.24 263.025,1384.24 263.177,1384.24 263.333,1384.24 263.488,1384.24 263.644,1384.24 263.8,1384.24 263.96,1384.24 264.12,1384.24 264.279,1384.24 
  264.443,1384.24 264.607,1384.24 264.771,1384.24 264.935,1384.24 265.103,1384.24 265.271,1384.24 265.444,1384.24 265.616,1384.24 265.788,1384.24 265.96,1384.24 
  266.136,1384.24 266.312,1384.24 266.493,1384.24 266.669,1384.24 266.853,1384.24 267.034,1384.24 267.218,1384.24 267.403,1384.24 267.591,1384.24 267.78,1384.24 
  267.968,1384.24 268.157,1384.24 268.349,1384.24 268.546,1384.24 268.743,1384.24 268.94,1384.24 269.136,1384.24 269.337,1384.24 269.538,1384.24 269.743,1384.24 
  269.948,1384.24 270.153,1384.24 270.362,1384.24 270.571,1384.24 270.784,1384.24 270.997,1384.24 271.21,1384.24 271.428,1384.24 271.645,1384.24 271.866,1384.24 
  272.088,1384.24 272.309,1384.24 272.534,1384.24 272.764,1384.24 272.989,1384.24 273.223,1384.24 273.452,1384.24 273.686,1384.24 273.924,1384.24 274.161,1384.24 
  274.399,1384.24 274.641,1384.24 274.883,1384.24 275.129,1384.24 275.379,1384.24 275.625,1384.24 275.875,1384.24 276.129,1384.24 276.383,1384.24 276.641,1384.24 
  276.899,1384.24 277.162,1384.24 277.424,1384.24 277.69,1384.24 277.957,1384.24 278.223,1384.24 278.498,1384.24 278.768,1384.24 279.043,1384.24 279.322,1384.24 
  279.6,1384.24 279.883,1384.24 280.17,1384.24 280.457,1384.24 280.744,1384.24 281.035,1384.24 281.326,1384.24 281.625,1384.24 281.92,1384.24 282.22,1384.24 
  282.523,1384.24 282.83,1384.24 283.134,1384.24 283.445,1384.24 283.757,1384.24 284.072,1384.24 284.388,1384.24 284.707,1384.24 285.031,1384.24 285.355,1384.24 
  285.683,1384.24 286.011,1384.24 286.343,1384.24 286.679,1384.24 287.015,1384.24 287.355,1384.24 287.695,1384.24 288.044,1384.24 288.388,1384.24 288.741,1384.24 
  289.093,1384.24 289.45,1384.24 289.81,1384.24 290.171,1384.24 290.536,1384.24 290.901,1384.24 291.274,1384.24 291.647,1384.24 292.024,1384.24 292.401,1384.24 
  292.782,1384.24 293.167,1384.24 293.557,1384.24 293.946,1384.24 294.339,1384.24 294.737,1384.24 295.139,1384.24 295.54,1384.24 295.946,1384.24 296.356,1384.24 
  296.77,1384.24 297.188,1384.24 297.606,1384.24 298.028,1384.24 298.455,1384.24 298.885,1384.24 299.315,1384.24 299.754,1384.24 300.192,1384.24 300.635,1384.24 
  301.082,1384.24 301.529,1384.24 301.984,1384.24 302.438,1384.24 302.902,1384.24 303.365,1384.24 303.832,1384.24 304.303,1384.24 304.779,1384.24 305.258,1384.24 
  305.738,1384.24 306.226,1384.24 306.718,1384.24 307.209,1384.24 307.705,1384.24 308.209,1384.24 308.714,1384.24 309.222,1384.24 309.738,1384.24 310.255,1384.24 
  310.775,1384.24 311.3,1384.24 311.829,1384.24 312.366,1384.24 312.902,1384.24 313.444,1384.24 313.993,1384.24 314.542,1384.24 315.095,1384.24 315.657,1384.24 
  316.218,1384.24 316.788,1384.24 317.358,1384.24 317.936,1384.24 318.518,1384.24 319.104,1384.24 319.694,1384.24 320.288,1384.24 320.891,1384.24 321.493,1384.24 
  322.104,1384.24 322.719,1384.24 323.334,1384.24 323.961,1384.24 324.588,1384.24 325.223,1384.24 325.859,1384.24 326.502,1384.24 327.15,1384.24 327.805,1384.24 
  328.461,1384.24 329.125,1384.24 329.797,1384.24 330.47,1384.24 331.15,1384.24 331.834,1384.24 332.523,1384.24 333.22,1384.24 333.921,1384.24 334.626,1384.24 
  335.339,1384.24 336.056,1384.24 336.777,1384.24 337.507,1384.24 338.241,1384.24 338.983,1384.24 339.729,1384.24 340.479,1384.24 341.237,1384.24 341.999,1384.24 
  342.77,1384.24 343.544,1384.24 344.327,1384.24 345.114,1384.24 345.905,1384.24 346.709,1384.24 347.512,1384.24 348.324,1384.24 349.143,1384.24 349.971,1384.24 
  350.799,1384.24 351.639,1384.24 352.484,1384.24 353.336,1384.24 354.193,1384.24 355.058,1384.24 355.931,1384.24 356.808,1384.24 357.693,1384.24 358.583,1384.24 
  359.484,1384.24 360.39,1384.24 361.304,1384.24 362.222,1384.24 363.149,1384.24 364.083,1384.24 365.026,1384.24 365.977,1384.24 366.932,1384.24 367.895,1384.24 
  368.866,1384.24 369.846,1384.24 370.834,1384.24 371.83,1384.24 372.83,1384.24 373.842,1384.24 374.859,1384.24 375.887,1384.24 376.92,1384.24 377.961,1384.24 
  379.011,1384.24 380.072,1384.24 381.138,1384.24 382.212,1384.24 383.298,1384.24 384.388,1384.24 385.487,1384.24 386.597,1384.24 387.716,1384.24 388.843,1384.24 
  389.979,1384.24 391.122,1384.24 392.274,1384.24 393.438,1384.24 394.606,1384.24 395.787,1384.24 396.975,1384.24 398.176,1384.24 399.385,1384.24 400.603,1384.24 
  401.828,1384.24 403.066,1384.24 404.312,1384.24 405.57,1384.24 406.833,1384.24 408.111,1384.24 409.394,1384.24 410.694,1384.24 411.997,1384.24 413.313,1384.24 
  414.641,1384.24 415.977,1384.24 417.325,1384.24 418.682,1384.24 420.051,1384.24 421.428,1384.24 422.818,1384.24 424.219,1384.24 425.633,1384.24 427.056,1384.24 
  428.486,1384.24 429.933,1384.24 431.388,1384.24 432.855,1384.24 434.335,1384.24 435.827,1384.24 437.327,1384.24 438.844,1384.24 440.368,1384.24 441.905,1384.24 
  443.455,1384.24 445.02,1384.24 446.594,1384.24 448.18,1384.24 449.779,1384.24 451.39,1384.24 453.013,1384.24 454.648,1384.24 456.3,1384.24 457.96,1384.24 
  459.636,1384.24 461.325,1384.24 463.026,1384.24 464.739,1384.24 466.469,1384.24 468.211,1384.24 469.965,1384.24 471.736,1384.24 473.519,1384.24 475.314,1384.24 
  477.126,1384.24 478.949,1384.24 480.79,1384.24 482.642,1384.24 484.511,1384.24 486.393,1384.24 488.29,1384.24 490.2,1384.24 492.131,1384.24 494.07,1384.24 
  496.029,1384.24 498,1384.24 499.988,1384.24 501.992,1384.24 504.013,1384.24 506.046,1384.24 508.099,1384.24 510.165,1384.24 512.247,1384.24 514.346,1384.24 
  516.461,1384.24 518.596,1384.24 520.744,1384.24 522.908,1384.24 525.093,1384.24 527.29,1384.24 529.507,1384.24 531.741,1384.24 533.995,1384.24 536.262,1384.24 
  538.549,1384.24 540.852,1384.24 543.176,1384.24 545.517,1384.24 547.877,1384.24 550.255,1384.24 552.648,1384.24 555.067,1384.24 557.497,1384.24 559.952,1384.24 
  562.424,1384.24 564.916,1384.24 567.424,1384.24 569.957,1384.24 572.507,1384.24 575.077,1384.24 577.667,1384.24 580.278,1384.24 582.905,1384.24 585.557,1384.24 
  588.229,1384.24 590.922,1384.24 593.635,1384.24 596.369,1384.24 599.128,1384.24 601.907,1384.24 604.706,1384.24 607.526,1384.24 610.371,1384.24 613.236,1384.24 
  616.125,1384.24 619.035,1384.24 621.966,1384.24 624.925,1384.24 627.905,1384.24 630.905,1384.24 633.934,1384.24 636.983,1384.24 640.057,1384.24 643.152,1384.24 
  646.275,1384.24 649.419,1384.24 652.591,1384.24 655.788,1384.24 659.006,1384.24 662.252,1384.24 665.523,1384.24 668.822,1384.24 672.142,1384.24 675.491,1384.24 
  678.864,1384.24 682.266,1384.24 685.693,1384.24 689.148,1384.24 692.628,1384.24 696.136,1384.24 699.673,1384.24 703.235,1384.24 706.825,1384.24 710.445,1384.24 
  714.092,1384.24 717.769,1384.24 721.474,1384.24 725.208,1384.24 728.971,1384.24 732.762,1384.24 736.586,1384.24 740.435,1384.24 744.316,1384.24 748.231,1384.24 
  752.174,1384.24 756.145,1384.24 760.15,1384.24 764.187,1384.24 768.253,1384.24 772.352,1384.24 776.483,1384.24 780.647,1384.24 784.844,1384.24 789.07,1384.24 
  793.333,1384.24 797.628,1384.24 801.957,1384.24 806.318,1384.24 810.716,1384.24 815.146,1384.24 819.61,1384.24 824.11,1384.24 828.647,1384.24 833.217,1384.24 
  837.824,1384.24 842.464,1384.24 847.145,1384.24 851.858,1384.24 856.613,1384.24 861.4,1384.24 866.228,1384.24 871.09,1384.24 875.992,1384.24 880.935,1384.24 
  885.915,1384.24 890.931,1384.24 895.989,1384.24 901.084,1384.24 906.224,1384.24 911.4,1384.24 916.614,1384.24 921.873,1384.24 927.172,1384.24 932.513,1384.24 
  937.894,1384.24 943.321,1384.24 948.785,1384.24 954.293,1384.24 959.847,1384.24 965.442,1384.24 971.082,1384.24 976.767,1384.24 982.492,1384.24 988.263,1384.24 
  994.084,1384.24 999.945,1384.24 1005.86,1384.24 1011.81,1384.24 1017.81,1384.24 1023.86,1384.24 1029.96,1384.24 1036.1,1384.24 1042.29,1384.24 1048.53,1384.24 
  1054.82,1384.24 1061.15,1384.24 1067.54,1384.24 1073.98,1384.24 1080.46,1384.24 1087.01,1384.24 1093.59,1384.24 1100.23,1384.24 1106.93,1384.24 1113.67,1384.24 
  1120.47,1384.24 1127.32,1384.24 1134.22,1384.24 1141.18,1384.24 1148.19,1384.24 1155.26,1384.24 1162.38,1384.24 1169.56,1384.24 1176.79,1384.24 1184.08,1384.24 
  1191.43,1384.24 1198.83,1384.24 1206.29,1384.24 1213.82,1384.24 1221.39,1384.24 1229.03,1384.24 1236.73,1384.24 1244.49,1384.24 1252.31,1384.24 1260.19,1384.24 
  1268.13,1384.24 1276.13,1384.24 1284.2,1384.24 1292.33,1384.24 1300.52,1384.24 1308.78,1384.24 1317.1,1384.24 1325.48,1384.24 1333.94,1384.24 1342.45,1384.24 
  1351.04,1384.24 1359.69,1384.24 1368.41,1384.24 1377.2,1384.24 1386.05,1384.24 1394.98,1384.24 1403.97,1384.24 1413.04,1384.24 1422.17,1384.24 1431.38,1384.24 
  1440.66,1384.24 1450.01,1384.24 1459.43,1384.24 1468.93,1384.24 1478.5,1384.24 1488.15,1384.24 1497.87,1384.24 1507.67,1384.24 1517.55,1384.24 1527.5,1384.24 
  1537.53,1384.24 1547.64,1384.24 1557.82,1384.24 1568.09,1384.24 1578.44,1384.24 1588.86,1384.24 1599.37,1384.24 1609.96,1384.24 1620.64,1384.24 1631.4,1384.24 
  1642.24,1384.24 1653.16,1384.24 1664.17,1384.24 1675.27,1384.24 1686.45,1384.24 1697.73,1384.24 1709.09,1384.24 1720.54,1384.24 1732.07,1384.24 1743.7,1384.24 
  1755.42,1384.24 1767.23,1384.24 1779.13,1384.24 1791.12,1384.24 1803.21,1384.24 1815.4,1384.24 1827.68,1384.24 1840.05,1384.24 1852.52,1384.24 1865.09,1384.24 
  1877.76,1384.24 1890.52,1384.24 1903.39,1384.24 1916.36,1384.24 1929.42,1384.24 1942.59,1384.24 1955.86,1384.24 1969.24,1384.24 1982.72,1384.24 1996.3,1384.24 
  2009.99,1384.24 2023.79,1384.24 2037.7,1384.24 2051.71,1384.24 2065.84,1384.24 2080.07,1384.24 2094.42,1384.24 2108.88,1384.24 2123.45,1384.24 2138.13,1384.24 
  2152.93,1384.24 2167.85,1384.24 2182.88,1384.24 2198.03,1384.24 2213.3,1384.24 2228.69,1384.24 2244.19,1384.24 2259.82,1384.24 2275.57,1384.24 2291.44,1384.24 
  
  "/>
</svg>
