<?xml version="1.0" encoding="utf-8"?>
<svg xmlns="http://www.w3.org/2000/svg" xmlns:xlink="http://www.w3.org/1999/xlink" width="600" height="400" viewBox="0 0 2400 1600">
<defs>
  <clipPath id="clip500">
    <rect x="0" y="0" width="2400" height="1600"/>
  </clipPath>
</defs>
<path clip-path="url(#clip500)" d="
M0 1600 L2400 1600 L2400 0 L0 0  Z
  " fill="#ffffff" fill-rule="evenodd" fill-opacity="1"/>
<defs>
  <clipPath id="clip501">
    <rect x="480" y="0" width="1681" height="1600"/>
  </clipPath>
</defs>
<path clip-path="url(#clip500)" d="
M186.274 1423.18 L2352.76 1423.18 L2352.76 47.2441 L186.274 47.2441  Z
  " fill="#ffffff" fill-rule="evenodd" fill-opacity="1"/>
<defs>
  <clipPath id="clip502">
    <rect x="186" y="47" width="2167" height="1377"/>
  </clipPath>
</defs>
<polyline clip-path="url(#clip502)" style="stroke:#000000; stroke-linecap:butt; stroke-linejoin:round; stroke-width:2; stroke-opacity:0.1; fill:none" points="
  437.632,1423.18 437.632,47.2441 
  "/>
<polyline clip-path="url(#clip502)" style="stroke:#000000; stroke-linecap:butt; stroke-linejoin:round; stroke-width:2; stroke-opacity:0.1; fill:none" points="
  796.202,1423.18 796.202,47.2441 
  "/>
<polyline clip-path="url(#clip502)" style="stroke:#000000; stroke-linecap:butt; stroke-linejoin:round; stroke-width:2; stroke-opacity:0.1; fill:none" points="
  1154.77,1423.18 1154.77,47.2441 
  "/>
<polyline clip-path="url(#clip502)" style="stroke:#000000; stroke-linecap:butt; stroke-linejoin:round; stroke-width:2; stroke-opacity:0.1; fill:none" points="
  1513.34,1423.18 1513.34,47.2441 
  "/>
<polyline clip-path="url(#clip502)" style="stroke:#000000; stroke-linecap:butt; stroke-linejoin:round; stroke-width:2; stroke-opacity:0.1; fill:none" points="
  1871.91,1423.18 1871.91,47.2441 
  "/>
<polyline clip-path="url(#clip502)" style="stroke:#000000; stroke-linecap:butt; stroke-linejoin:round; stroke-width:2; stroke-opacity:0.1; fill:none" points="
  2230.48,1423.18 2230.48,47.2441 
  "/>
<polyline clip-path="url(#clip500)" style="stroke:#000000; stroke-linecap:butt; stroke-linejoin:round; stroke-width:4; stroke-opacity:1; fill:none" points="
  186.274,1423.18 2352.76,1423.18 
  "/>
<polyline clip-path="url(#clip500)" style="stroke:#000000; stroke-linecap:butt; stroke-linejoin:round; stroke-width:4; stroke-opacity:1; fill:none" points="
  437.632,1423.18 437.632,1404.28 
  "/>
<polyline clip-path="url(#clip500)" style="stroke:#000000; stroke-linecap:butt; stroke-linejoin:round; stroke-width:4; stroke-opacity:1; fill:none" points="
  796.202,1423.18 796.202,1404.28 
  "/>
<polyline clip-path="url(#clip500)" style="stroke:#000000; stroke-linecap:butt; stroke-linejoin:round; stroke-width:4; stroke-opacity:1; fill:none" points="
  1154.77,1423.18 1154.77,1404.28 
  "/>
<polyline clip-path="url(#clip500)" style="stroke:#000000; stroke-linecap:butt; stroke-linejoin:round; stroke-width:4; stroke-opacity:1; fill:none" points="
  1513.34,1423.18 1513.34,1404.28 
  "/>
<polyline clip-path="url(#clip500)" style="stroke:#000000; stroke-linecap:butt; stroke-linejoin:round; stroke-width:4; stroke-opacity:1; fill:none" points="
  1871.91,1423.18 1871.91,1404.28 
  "/>
<polyline clip-path="url(#clip500)" style="stroke:#000000; stroke-linecap:butt; stroke-linejoin:round; stroke-width:4; stroke-opacity:1; fill:none" points="
  2230.48,1423.18 2230.48,1404.28 
  "/>
<path clip-path="url(#clip500)" d="M408.87 1481.64 L425.19 1481.64 L425.19 1485.58 L403.245 1485.58 L403.245 1481.64 Q405.907 1478.89 410.491 1474.26 Q415.097 1469.61 416.278 1468.27 Q418.523 1465.74 419.403 1464.01 Q420.306 1462.25 420.306 1460.56 Q420.306 1457.8 418.361 1456.07 Q416.44 1454.33 413.338 1454.33 Q411.139 1454.33 408.685 1455.09 Q406.255 1455.86 403.477 1457.41 L403.477 1452.69 Q406.301 1451.55 408.755 1450.97 Q411.208 1450.39 413.245 1450.39 Q418.616 1450.39 421.81 1453.08 Q425.005 1455.77 425.005 1460.26 Q425.005 1462.39 424.194 1464.31 Q423.407 1466.2 421.301 1468.8 Q420.722 1469.47 417.62 1472.69 Q414.518 1475.88 408.87 1481.64 Z" fill="#000000" fill-rule="evenodd" fill-opacity="1" /><path clip-path="url(#clip500)" d="M435.004 1479.7 L439.889 1479.7 L439.889 1485.58 L435.004 1485.58 L435.004 1479.7 Z" fill="#000000" fill-rule="evenodd" fill-opacity="1" /><path clip-path="url(#clip500)" d="M460.074 1454.1 Q456.463 1454.1 454.634 1457.66 Q452.828 1461.2 452.828 1468.33 Q452.828 1475.44 454.634 1479.01 Q456.463 1482.55 460.074 1482.55 Q463.708 1482.55 465.514 1479.01 Q467.342 1475.44 467.342 1468.33 Q467.342 1461.2 465.514 1457.66 Q463.708 1454.1 460.074 1454.1 M460.074 1450.39 Q465.884 1450.39 468.94 1455 Q472.018 1459.58 472.018 1468.33 Q472.018 1477.06 468.94 1481.67 Q465.884 1486.25 460.074 1486.25 Q454.264 1486.25 451.185 1481.67 Q448.129 1477.06 448.129 1468.33 Q448.129 1459.58 451.185 1455 Q454.264 1450.39 460.074 1450.39 Z" fill="#000000" fill-rule="evenodd" fill-opacity="1" /><path clip-path="url(#clip500)" d="M768.054 1481.64 L784.373 1481.64 L784.373 1485.58 L762.429 1485.58 L762.429 1481.64 Q765.091 1478.89 769.674 1474.26 Q774.281 1469.61 775.461 1468.27 Q777.707 1465.74 778.586 1464.01 Q779.489 1462.25 779.489 1460.56 Q779.489 1457.8 777.545 1456.07 Q775.624 1454.33 772.522 1454.33 Q770.323 1454.33 767.869 1455.09 Q765.438 1455.86 762.661 1457.41 L762.661 1452.69 Q765.485 1451.55 767.938 1450.97 Q770.392 1450.39 772.429 1450.39 Q777.799 1450.39 780.994 1453.08 Q784.188 1455.77 784.188 1460.26 Q784.188 1462.39 783.378 1464.31 Q782.591 1466.2 780.485 1468.8 Q779.906 1469.47 776.804 1472.69 Q773.702 1475.88 768.054 1481.64 Z" fill="#000000" fill-rule="evenodd" fill-opacity="1" /><path clip-path="url(#clip500)" d="M794.188 1479.7 L799.072 1479.7 L799.072 1485.58 L794.188 1485.58 L794.188 1479.7 Z" fill="#000000" fill-rule="evenodd" fill-opacity="1" /><path clip-path="url(#clip500)" d="M810.068 1481.64 L817.707 1481.64 L817.707 1455.28 L809.396 1456.95 L809.396 1452.69 L817.66 1451.02 L822.336 1451.02 L822.336 1481.64 L829.975 1481.64 L829.975 1485.58 L810.068 1485.58 L810.068 1481.64 Z" fill="#000000" fill-rule="evenodd" fill-opacity="1" /><path clip-path="url(#clip500)" d="M1126.81 1481.64 L1143.13 1481.64 L1143.13 1485.58 L1121.18 1485.58 L1121.18 1481.64 Q1123.85 1478.89 1128.43 1474.26 Q1133.04 1469.61 1134.22 1468.27 Q1136.46 1465.74 1137.34 1464.01 Q1138.24 1462.25 1138.24 1460.56 Q1138.24 1457.8 1136.3 1456.07 Q1134.38 1454.33 1131.28 1454.33 Q1129.08 1454.33 1126.62 1455.09 Q1124.19 1455.86 1121.42 1457.41 L1121.42 1452.69 Q1124.24 1451.55 1126.69 1450.97 Q1129.15 1450.39 1131.18 1450.39 Q1136.55 1450.39 1139.75 1453.08 Q1142.94 1455.77 1142.94 1460.26 Q1142.94 1462.39 1142.13 1464.31 Q1141.35 1466.2 1139.24 1468.8 Q1138.66 1469.47 1135.56 1472.69 Q1132.46 1475.88 1126.81 1481.64 Z" fill="#000000" fill-rule="evenodd" fill-opacity="1" /><path clip-path="url(#clip500)" d="M1152.94 1479.7 L1157.83 1479.7 L1157.83 1485.58 L1152.94 1485.58 L1152.94 1479.7 Z" fill="#000000" fill-rule="evenodd" fill-opacity="1" /><path clip-path="url(#clip500)" d="M1172.04 1481.64 L1188.36 1481.64 L1188.36 1485.58 L1166.42 1485.58 L1166.42 1481.64 Q1169.08 1478.89 1173.66 1474.26 Q1178.27 1469.61 1179.45 1468.27 Q1181.69 1465.74 1182.57 1464.01 Q1183.48 1462.25 1183.48 1460.56 Q1183.48 1457.8 1181.53 1456.07 Q1179.61 1454.33 1176.51 1454.33 Q1174.31 1454.33 1171.86 1455.09 Q1169.43 1455.86 1166.65 1457.41 L1166.65 1452.69 Q1169.47 1451.55 1171.93 1450.97 Q1174.38 1450.39 1176.42 1450.39 Q1181.79 1450.39 1184.98 1453.08 Q1188.18 1455.77 1188.18 1460.26 Q1188.18 1462.39 1187.36 1464.31 Q1186.58 1466.2 1184.47 1468.8 Q1183.89 1469.47 1180.79 1472.69 Q1177.69 1475.88 1172.04 1481.64 Z" fill="#000000" fill-rule="evenodd" fill-opacity="1" /><path clip-path="url(#clip500)" d="M1484.91 1481.64 L1501.22 1481.64 L1501.22 1485.58 L1479.28 1485.58 L1479.28 1481.64 Q1481.94 1478.89 1486.53 1474.26 Q1491.13 1469.61 1492.31 1468.27 Q1494.56 1465.74 1495.44 1464.01 Q1496.34 1462.25 1496.34 1460.56 Q1496.34 1457.8 1494.4 1456.07 Q1492.47 1454.33 1489.37 1454.33 Q1487.17 1454.33 1484.72 1455.09 Q1482.29 1455.86 1479.51 1457.41 L1479.51 1452.69 Q1482.34 1451.55 1484.79 1450.97 Q1487.24 1450.39 1489.28 1450.39 Q1494.65 1450.39 1497.85 1453.08 Q1501.04 1455.77 1501.04 1460.26 Q1501.04 1462.39 1500.23 1464.31 Q1499.44 1466.2 1497.34 1468.8 Q1496.76 1469.47 1493.66 1472.69 Q1490.55 1475.88 1484.91 1481.64 Z" fill="#000000" fill-rule="evenodd" fill-opacity="1" /><path clip-path="url(#clip500)" d="M1511.04 1479.7 L1515.92 1479.7 L1515.92 1485.58 L1511.04 1485.58 L1511.04 1479.7 Z" fill="#000000" fill-rule="evenodd" fill-opacity="1" /><path clip-path="url(#clip500)" d="M1540.28 1466.95 Q1543.63 1467.66 1545.51 1469.93 Q1547.41 1472.2 1547.41 1475.53 Q1547.41 1480.65 1543.89 1483.45 Q1540.37 1486.25 1533.89 1486.25 Q1531.71 1486.25 1529.4 1485.81 Q1527.1 1485.39 1524.65 1484.54 L1524.65 1480.02 Q1526.6 1481.16 1528.91 1481.74 Q1531.22 1482.32 1533.75 1482.32 Q1538.15 1482.32 1540.44 1480.58 Q1542.75 1478.84 1542.75 1475.53 Q1542.75 1472.48 1540.6 1470.77 Q1538.47 1469.03 1534.65 1469.03 L1530.62 1469.03 L1530.62 1465.19 L1534.84 1465.19 Q1538.28 1465.19 1540.11 1463.82 Q1541.94 1462.43 1541.94 1459.84 Q1541.94 1457.18 1540.04 1455.77 Q1538.17 1454.33 1534.65 1454.33 Q1532.73 1454.33 1530.53 1454.75 Q1528.33 1455.16 1525.69 1456.04 L1525.69 1451.88 Q1528.35 1451.14 1530.67 1450.77 Q1533.01 1450.39 1535.07 1450.39 Q1540.39 1450.39 1543.49 1452.83 Q1546.59 1455.23 1546.59 1459.35 Q1546.59 1462.22 1544.95 1464.21 Q1543.31 1466.18 1540.28 1466.95 Z" fill="#000000" fill-rule="evenodd" fill-opacity="1" /><path clip-path="url(#clip500)" d="M1842.91 1481.64 L1859.23 1481.64 L1859.23 1485.58 L1837.28 1485.58 L1837.28 1481.64 Q1839.95 1478.89 1844.53 1474.26 Q1849.14 1469.61 1850.32 1468.27 Q1852.56 1465.74 1853.44 1464.01 Q1854.34 1462.25 1854.34 1460.56 Q1854.34 1457.8 1852.4 1456.07 Q1850.48 1454.33 1847.38 1454.33 Q1845.18 1454.33 1842.72 1455.09 Q1840.29 1455.86 1837.52 1457.41 L1837.52 1452.69 Q1840.34 1451.55 1842.79 1450.97 Q1845.25 1450.39 1847.28 1450.39 Q1852.65 1450.39 1855.85 1453.08 Q1859.04 1455.77 1859.04 1460.26 Q1859.04 1462.39 1858.23 1464.31 Q1857.45 1466.2 1855.34 1468.8 Q1854.76 1469.47 1851.66 1472.69 Q1848.56 1475.88 1842.91 1481.64 Z" fill="#000000" fill-rule="evenodd" fill-opacity="1" /><path clip-path="url(#clip500)" d="M1869.04 1479.7 L1873.93 1479.7 L1873.93 1485.58 L1869.04 1485.58 L1869.04 1479.7 Z" fill="#000000" fill-rule="evenodd" fill-opacity="1" /><path clip-path="url(#clip500)" d="M1896.96 1455.09 L1885.15 1473.54 L1896.96 1473.54 L1896.96 1455.09 M1895.73 1451.02 L1901.61 1451.02 L1901.61 1473.54 L1906.54 1473.54 L1906.54 1477.43 L1901.61 1477.43 L1901.61 1485.58 L1896.96 1485.58 L1896.96 1477.43 L1881.36 1477.43 L1881.36 1472.92 L1895.73 1451.02 Z" fill="#000000" fill-rule="evenodd" fill-opacity="1" /><path clip-path="url(#clip500)" d="M2202.22 1481.64 L2218.54 1481.64 L2218.54 1485.58 L2196.59 1485.58 L2196.59 1481.64 Q2199.26 1478.89 2203.84 1474.26 Q2208.45 1469.61 2209.63 1468.27 Q2211.87 1465.74 2212.75 1464.01 Q2213.65 1462.25 2213.65 1460.56 Q2213.65 1457.8 2211.71 1456.07 Q2209.79 1454.33 2206.69 1454.33 Q2204.49 1454.33 2202.03 1455.09 Q2199.6 1455.86 2196.83 1457.41 L2196.83 1452.69 Q2199.65 1451.55 2202.1 1450.97 Q2204.56 1450.39 2206.59 1450.39 Q2211.97 1450.39 2215.16 1453.08 Q2218.35 1455.77 2218.35 1460.26 Q2218.35 1462.39 2217.54 1464.31 Q2216.76 1466.2 2214.65 1468.8 Q2214.07 1469.47 2210.97 1472.69 Q2207.87 1475.88 2202.22 1481.64 Z" fill="#000000" fill-rule="evenodd" fill-opacity="1" /><path clip-path="url(#clip500)" d="M2228.35 1479.7 L2233.24 1479.7 L2233.24 1485.58 L2228.35 1485.58 L2228.35 1479.7 Z" fill="#000000" fill-rule="evenodd" fill-opacity="1" /><path clip-path="url(#clip500)" d="M2243.47 1451.02 L2261.83 1451.02 L2261.83 1454.96 L2247.75 1454.96 L2247.75 1463.43 Q2248.77 1463.08 2249.79 1462.92 Q2250.81 1462.73 2251.83 1462.73 Q2257.61 1462.73 2260.99 1465.9 Q2264.37 1469.08 2264.37 1474.49 Q2264.37 1480.07 2260.9 1483.17 Q2257.43 1486.25 2251.11 1486.25 Q2248.93 1486.25 2246.66 1485.88 Q2244.42 1485.51 2242.01 1484.77 L2242.01 1480.07 Q2244.09 1481.2 2246.32 1481.76 Q2248.54 1482.32 2251.02 1482.32 Q2255.02 1482.32 2257.36 1480.21 Q2259.7 1478.1 2259.7 1474.49 Q2259.7 1470.88 2257.36 1468.77 Q2255.02 1466.67 2251.02 1466.67 Q2249.14 1466.67 2247.27 1467.08 Q2245.41 1467.5 2243.47 1468.38 L2243.47 1451.02 Z" fill="#000000" fill-rule="evenodd" fill-opacity="1" /><path clip-path="url(#clip500)" d="M991.779 1520.52 L998.272 1520.52 L1008.27 1560.69 L1018.23 1520.52 L1025.45 1520.52 L1035.45 1560.69 L1045.41 1520.52 L1051.94 1520.52 L1040 1568.04 L1031.91 1568.04 L1021.89 1526.79 L1011.77 1568.04 L1003.68 1568.04 L991.779 1520.52 Z" fill="#000000" fill-rule="evenodd" fill-opacity="1" /><path clip-path="url(#clip500)" d="M1072.24 1550.12 Q1065.14 1550.12 1062.41 1551.75 Q1059.67 1553.37 1059.67 1557.29 Q1059.67 1560.4 1061.71 1562.25 Q1063.78 1564.07 1067.31 1564.07 Q1072.18 1564.07 1075.11 1560.63 Q1078.07 1557.16 1078.07 1551.43 L1078.07 1550.12 L1072.24 1550.12 M1083.92 1547.71 L1083.92 1568.04 L1078.07 1568.04 L1078.07 1562.63 Q1076.06 1565.88 1073.07 1567.44 Q1070.08 1568.97 1065.75 1568.97 Q1060.27 1568.97 1057.03 1565.91 Q1053.81 1562.82 1053.81 1557.67 Q1053.81 1551.65 1057.82 1548.6 Q1061.87 1545.54 1069.85 1545.54 L1078.07 1545.54 L1078.07 1544.97 Q1078.07 1540.93 1075.39 1538.73 Q1072.75 1536.5 1067.94 1536.5 Q1064.89 1536.5 1061.99 1537.23 Q1059.1 1537.97 1056.42 1539.43 L1056.42 1534.02 Q1059.64 1532.78 1062.66 1532.17 Q1065.69 1531.54 1068.55 1531.54 Q1076.28 1531.54 1080.1 1535.55 Q1083.92 1539.56 1083.92 1547.71 Z" fill="#000000" fill-rule="evenodd" fill-opacity="1" /><path clip-path="url(#clip500)" d="M1091.78 1532.4 L1097.99 1532.4 L1109.13 1562.31 L1120.27 1532.4 L1126.48 1532.4 L1113.11 1568.04 L1105.15 1568.04 L1091.78 1532.4 Z" fill="#000000" fill-rule="evenodd" fill-opacity="1" /><path clip-path="url(#clip500)" d="M1165.05 1548.76 L1165.05 1551.62 L1138.13 1551.62 Q1138.51 1557.67 1141.76 1560.85 Q1145.03 1564 1150.86 1564 Q1154.23 1564 1157.38 1563.17 Q1160.57 1562.35 1163.69 1560.69 L1163.69 1566.23 Q1160.53 1567.57 1157.22 1568.27 Q1153.91 1568.97 1150.51 1568.97 Q1141.98 1568.97 1136.98 1564 Q1132.02 1559.04 1132.02 1550.57 Q1132.02 1541.82 1136.73 1536.69 Q1141.47 1531.54 1149.49 1531.54 Q1156.68 1531.54 1160.85 1536.18 Q1165.05 1540.8 1165.05 1548.76 M1159.2 1547.04 Q1159.13 1542.23 1156.49 1539.37 Q1153.88 1536.5 1149.55 1536.5 Q1144.65 1536.5 1141.69 1539.27 Q1138.76 1542.04 1138.32 1547.07 L1159.2 1547.04 Z" fill="#000000" fill-rule="evenodd" fill-opacity="1" /><path clip-path="url(#clip500)" d="M1174.67 1518.52 L1180.52 1518.52 L1180.52 1568.04 L1174.67 1568.04 L1174.67 1518.52 Z" fill="#000000" fill-rule="evenodd" fill-opacity="1" /><path clip-path="url(#clip500)" d="M1223.27 1548.76 L1223.27 1551.62 L1196.34 1551.62 Q1196.72 1557.67 1199.97 1560.85 Q1203.25 1564 1209.07 1564 Q1212.45 1564 1215.6 1563.17 Q1218.78 1562.35 1221.9 1560.69 L1221.9 1566.23 Q1218.75 1567.57 1215.44 1568.27 Q1212.13 1568.97 1208.72 1568.97 Q1200.19 1568.97 1195.2 1564 Q1190.23 1559.04 1190.23 1550.57 Q1190.23 1541.82 1194.94 1536.69 Q1199.68 1531.54 1207.7 1531.54 Q1214.9 1531.54 1219.07 1536.18 Q1223.27 1540.8 1223.27 1548.76 M1217.41 1547.04 Q1217.35 1542.23 1214.71 1539.37 Q1212.1 1536.5 1207.77 1536.5 Q1202.87 1536.5 1199.91 1539.27 Q1196.98 1542.04 1196.53 1547.07 L1217.41 1547.04 Z" fill="#000000" fill-rule="evenodd" fill-opacity="1" /><path clip-path="url(#clip500)" d="M1262.51 1546.53 L1262.51 1568.04 L1256.66 1568.04 L1256.66 1546.72 Q1256.66 1541.66 1254.68 1539.14 Q1252.71 1536.63 1248.76 1536.63 Q1244.02 1536.63 1241.28 1539.65 Q1238.55 1542.68 1238.55 1547.9 L1238.55 1568.04 L1232.66 1568.04 L1232.66 1532.4 L1238.55 1532.4 L1238.55 1537.93 Q1240.65 1534.72 1243.48 1533.13 Q1246.34 1531.54 1250.07 1531.54 Q1256.21 1531.54 1259.36 1535.36 Q1262.51 1539.14 1262.51 1546.53 Z" fill="#000000" fill-rule="evenodd" fill-opacity="1" /><path clip-path="url(#clip500)" d="M1297.65 1549.81 Q1297.65 1543.44 1295.01 1539.94 Q1292.4 1536.44 1287.66 1536.44 Q1282.95 1536.44 1280.3 1539.94 Q1277.69 1543.44 1277.69 1549.81 Q1277.69 1556.14 1280.3 1559.64 Q1282.95 1563.14 1287.66 1563.14 Q1292.4 1563.14 1295.01 1559.64 Q1297.65 1556.14 1297.65 1549.81 M1303.51 1563.62 Q1303.51 1572.72 1299.47 1577.15 Q1295.42 1581.6 1287.08 1581.6 Q1284 1581.6 1281.26 1581.13 Q1278.52 1580.68 1275.94 1579.72 L1275.94 1574.03 Q1278.52 1575.43 1281.04 1576.1 Q1283.55 1576.76 1286.16 1576.76 Q1291.92 1576.76 1294.79 1573.74 Q1297.65 1570.75 1297.65 1564.67 L1297.65 1561.77 Q1295.84 1564.92 1293 1566.48 Q1290.17 1568.04 1286.22 1568.04 Q1279.67 1568.04 1275.66 1563.05 Q1271.65 1558.05 1271.65 1549.81 Q1271.65 1541.53 1275.66 1536.53 Q1279.67 1531.54 1286.22 1531.54 Q1290.17 1531.54 1293 1533.1 Q1295.84 1534.66 1297.65 1537.81 L1297.65 1532.4 L1303.51 1532.4 L1303.51 1563.62 Z" fill="#000000" fill-rule="evenodd" fill-opacity="1" /><path clip-path="url(#clip500)" d="M1321.36 1522.27 L1321.36 1532.4 L1333.43 1532.4 L1333.43 1536.95 L1321.36 1536.95 L1321.36 1556.3 Q1321.36 1560.66 1322.54 1561.9 Q1323.75 1563.14 1327.41 1563.14 L1333.43 1563.14 L1333.43 1568.04 L1327.41 1568.04 Q1320.63 1568.04 1318.05 1565.53 Q1315.48 1562.98 1315.48 1556.3 L1315.48 1536.95 L1311.18 1536.95 L1311.18 1532.4 L1315.48 1532.4 L1315.48 1522.27 L1321.36 1522.27 Z" fill="#000000" fill-rule="evenodd" fill-opacity="1" /><path clip-path="url(#clip500)" d="M1370.76 1546.53 L1370.76 1568.04 L1364.91 1568.04 L1364.91 1546.72 Q1364.91 1541.66 1362.93 1539.14 Q1360.96 1536.63 1357.01 1536.63 Q1352.27 1536.63 1349.53 1539.65 Q1346.79 1542.68 1346.79 1547.9 L1346.79 1568.04 L1340.91 1568.04 L1340.91 1518.52 L1346.79 1518.52 L1346.79 1537.93 Q1348.9 1534.72 1351.73 1533.13 Q1354.59 1531.54 1358.32 1531.54 Q1364.46 1531.54 1367.61 1535.36 Q1370.76 1539.14 1370.76 1546.53 Z" fill="#000000" fill-rule="evenodd" fill-opacity="1" /><path clip-path="url(#clip500)" d="M1402.62 1518.52 L1416.12 1518.52 L1416.12 1523.07 L1408.48 1523.07 L1408.48 1572.09 L1416.12 1572.09 L1416.12 1576.64 L1402.62 1576.64 L1402.62 1518.52 Z" fill="#000000" fill-rule="evenodd" fill-opacity="1" /><path clip-path="url(#clip500)" d="M1427.99 1581.6 L1427.99 1532.4 L1433.85 1532.4 L1433.85 1554.55 Q1433.85 1559.16 1436.04 1561.52 Q1438.24 1563.87 1442.53 1563.87 Q1447.25 1563.87 1449.6 1561.2 Q1451.99 1558.53 1451.99 1553.18 L1451.99 1532.4 L1457.84 1532.4 L1457.84 1559.83 Q1457.84 1561.74 1458.39 1562.66 Q1458.96 1563.56 1460.14 1563.56 Q1460.42 1563.56 1460.93 1563.4 Q1461.44 1563.21 1462.33 1562.82 L1462.33 1567.53 Q1461.03 1568.27 1459.85 1568.62 Q1458.7 1568.97 1457.59 1568.97 Q1455.39 1568.97 1454.09 1567.73 Q1452.78 1566.48 1452.31 1563.94 Q1450.71 1566.45 1448.39 1567.73 Q1446.1 1568.97 1442.98 1568.97 Q1439.73 1568.97 1437.44 1567.73 Q1435.18 1566.48 1433.85 1564 L1433.85 1581.6 L1427.99 1581.6 Z" fill="#000000" fill-rule="evenodd" fill-opacity="1" /><path clip-path="url(#clip500)" d="M1497.82 1539.24 Q1500.02 1535.29 1503.07 1533.41 Q1506.13 1531.54 1510.27 1531.54 Q1515.84 1531.54 1518.86 1535.45 Q1521.88 1539.33 1521.88 1546.53 L1521.88 1568.04 L1516 1568.04 L1516 1546.72 Q1516 1541.59 1514.18 1539.11 Q1512.37 1536.63 1508.64 1536.63 Q1504.09 1536.63 1501.45 1539.65 Q1498.81 1542.68 1498.81 1547.9 L1498.81 1568.04 L1492.92 1568.04 L1492.92 1546.72 Q1492.92 1541.56 1491.11 1539.11 Q1489.29 1536.63 1485.5 1536.63 Q1481.02 1536.63 1478.37 1539.68 Q1475.73 1542.71 1475.73 1547.9 L1475.73 1568.04 L1469.84 1568.04 L1469.84 1532.4 L1475.73 1532.4 L1475.73 1537.93 Q1477.74 1534.66 1480.54 1533.1 Q1483.34 1531.54 1487.19 1531.54 Q1491.07 1531.54 1493.78 1533.51 Q1496.52 1535.48 1497.82 1539.24 Z" fill="#000000" fill-rule="evenodd" fill-opacity="1" /><path clip-path="url(#clip500)" d="M1547.25 1518.52 L1547.25 1576.64 L1533.76 1576.64 L1533.76 1572.09 L1541.36 1572.09 L1541.36 1523.07 L1533.76 1523.07 L1533.76 1518.52 L1547.25 1518.52 Z" fill="#000000" fill-rule="evenodd" fill-opacity="1" /><polyline clip-path="url(#clip502)" style="stroke:#000000; stroke-linecap:butt; stroke-linejoin:round; stroke-width:2; stroke-opacity:0.1; fill:none" points="
  186.274,1397.35 2352.76,1397.35 
  "/>
<polyline clip-path="url(#clip502)" style="stroke:#000000; stroke-linecap:butt; stroke-linejoin:round; stroke-width:2; stroke-opacity:0.1; fill:none" points="
  186.274,1069.56 2352.76,1069.56 
  "/>
<polyline clip-path="url(#clip502)" style="stroke:#000000; stroke-linecap:butt; stroke-linejoin:round; stroke-width:2; stroke-opacity:0.1; fill:none" points="
  186.274,741.768 2352.76,741.768 
  "/>
<polyline clip-path="url(#clip502)" style="stroke:#000000; stroke-linecap:butt; stroke-linejoin:round; stroke-width:2; stroke-opacity:0.1; fill:none" points="
  186.274,413.977 2352.76,413.977 
  "/>
<polyline clip-path="url(#clip502)" style="stroke:#000000; stroke-linecap:butt; stroke-linejoin:round; stroke-width:2; stroke-opacity:0.1; fill:none" points="
  186.274,86.1857 2352.76,86.1857 
  "/>
<polyline clip-path="url(#clip500)" style="stroke:#000000; stroke-linecap:butt; stroke-linejoin:round; stroke-width:4; stroke-opacity:1; fill:none" points="
  186.274,1423.18 186.274,47.2441 
  "/>
<polyline clip-path="url(#clip500)" style="stroke:#000000; stroke-linecap:butt; stroke-linejoin:round; stroke-width:4; stroke-opacity:1; fill:none" points="
  186.274,1397.35 205.172,1397.35 
  "/>
<polyline clip-path="url(#clip500)" style="stroke:#000000; stroke-linecap:butt; stroke-linejoin:round; stroke-width:4; stroke-opacity:1; fill:none" points="
  186.274,1069.56 205.172,1069.56 
  "/>
<polyline clip-path="url(#clip500)" style="stroke:#000000; stroke-linecap:butt; stroke-linejoin:round; stroke-width:4; stroke-opacity:1; fill:none" points="
  186.274,741.768 205.172,741.768 
  "/>
<polyline clip-path="url(#clip500)" style="stroke:#000000; stroke-linecap:butt; stroke-linejoin:round; stroke-width:4; stroke-opacity:1; fill:none" points="
  186.274,413.977 205.172,413.977 
  "/>
<polyline clip-path="url(#clip500)" style="stroke:#000000; stroke-linecap:butt; stroke-linejoin:round; stroke-width:4; stroke-opacity:1; fill:none" points="
  186.274,86.1857 205.172,86.1857 
  "/>
<path clip-path="url(#clip500)" d="M62.9365 1383.15 Q59.3254 1383.15 57.4967 1386.71 Q55.6912 1390.26 55.6912 1397.38 Q55.6912 1404.49 57.4967 1408.06 Q59.3254 1411.6 62.9365 1411.6 Q66.5707 1411.6 68.3763 1408.06 Q70.205 1404.49 70.205 1397.38 Q70.205 1390.26 68.3763 1386.71 Q66.5707 1383.15 62.9365 1383.15 M62.9365 1379.44 Q68.7467 1379.44 71.8022 1384.05 Q74.8809 1388.63 74.8809 1397.38 Q74.8809 1406.11 71.8022 1410.72 Q68.7467 1415.3 62.9365 1415.3 Q57.1264 1415.3 54.0477 1410.72 Q50.9921 1406.11 50.9921 1397.38 Q50.9921 1388.63 54.0477 1384.05 Q57.1264 1379.44 62.9365 1379.44 Z" fill="#000000" fill-rule="evenodd" fill-opacity="1" /><path clip-path="url(#clip500)" d="M83.0984 1408.75 L87.9827 1408.75 L87.9827 1414.63 L83.0984 1414.63 L83.0984 1408.75 Z" fill="#000000" fill-rule="evenodd" fill-opacity="1" /><path clip-path="url(#clip500)" d="M108.168 1383.15 Q104.557 1383.15 102.728 1386.71 Q100.922 1390.26 100.922 1397.38 Q100.922 1404.49 102.728 1408.06 Q104.557 1411.6 108.168 1411.6 Q111.802 1411.6 113.608 1408.06 Q115.436 1404.49 115.436 1397.38 Q115.436 1390.26 113.608 1386.71 Q111.802 1383.15 108.168 1383.15 M108.168 1379.44 Q113.978 1379.44 117.033 1384.05 Q120.112 1388.63 120.112 1397.38 Q120.112 1406.11 117.033 1410.72 Q113.978 1415.3 108.168 1415.3 Q102.358 1415.3 99.2789 1410.72 Q96.2234 1406.11 96.2234 1397.38 Q96.2234 1388.63 99.2789 1384.05 Q102.358 1379.44 108.168 1379.44 Z" fill="#000000" fill-rule="evenodd" fill-opacity="1" /><path clip-path="url(#clip500)" d="M138.33 1383.15 Q134.719 1383.15 132.89 1386.71 Q131.084 1390.26 131.084 1397.38 Q131.084 1404.49 132.89 1408.06 Q134.719 1411.6 138.33 1411.6 Q141.964 1411.6 143.769 1408.06 Q145.598 1404.49 145.598 1397.38 Q145.598 1390.26 143.769 1386.71 Q141.964 1383.15 138.33 1383.15 M138.33 1379.44 Q144.14 1379.44 147.195 1384.05 Q150.274 1388.63 150.274 1397.38 Q150.274 1406.11 147.195 1410.72 Q144.14 1415.3 138.33 1415.3 Q132.519 1415.3 129.441 1410.72 Q126.385 1406.11 126.385 1397.38 Q126.385 1388.63 129.441 1384.05 Q132.519 1379.44 138.33 1379.44 Z" fill="#000000" fill-rule="evenodd" fill-opacity="1" /><path clip-path="url(#clip500)" d="M63.9319 1055.36 Q60.3208 1055.36 58.4921 1058.92 Q56.6865 1062.46 56.6865 1069.59 Q56.6865 1076.7 58.4921 1080.26 Q60.3208 1083.81 63.9319 1083.81 Q67.5661 1083.81 69.3717 1080.26 Q71.2004 1076.7 71.2004 1069.59 Q71.2004 1062.46 69.3717 1058.92 Q67.5661 1055.36 63.9319 1055.36 M63.9319 1051.65 Q69.742 1051.65 72.7976 1056.26 Q75.8763 1060.84 75.8763 1069.59 Q75.8763 1078.32 72.7976 1082.93 Q69.742 1087.51 63.9319 1087.51 Q58.1217 1087.51 55.043 1082.93 Q51.9875 1078.32 51.9875 1069.59 Q51.9875 1060.84 55.043 1056.26 Q58.1217 1051.65 63.9319 1051.65 Z" fill="#000000" fill-rule="evenodd" fill-opacity="1" /><path clip-path="url(#clip500)" d="M84.0938 1080.96 L88.978 1080.96 L88.978 1086.84 L84.0938 1086.84 L84.0938 1080.96 Z" fill="#000000" fill-rule="evenodd" fill-opacity="1" /><path clip-path="url(#clip500)" d="M103.191 1082.9 L119.51 1082.9 L119.51 1086.84 L97.566 1086.84 L97.566 1082.9 Q100.228 1080.15 104.811 1075.52 Q109.418 1070.87 110.598 1069.52 Q112.844 1067 113.723 1065.26 Q114.626 1063.51 114.626 1061.82 Q114.626 1059.06 112.682 1057.33 Q110.76 1055.59 107.658 1055.59 Q105.459 1055.59 103.006 1056.35 Q100.575 1057.12 97.7974 1058.67 L97.7974 1053.95 Q100.621 1052.81 103.075 1052.23 Q105.529 1051.65 107.566 1051.65 Q112.936 1051.65 116.131 1054.34 Q119.325 1057.02 119.325 1061.51 Q119.325 1063.64 118.515 1065.57 Q117.728 1067.46 115.621 1070.06 Q115.043 1070.73 111.941 1073.95 Q108.839 1077.14 103.191 1082.9 Z" fill="#000000" fill-rule="evenodd" fill-opacity="1" /><path clip-path="url(#clip500)" d="M129.371 1052.28 L147.728 1052.28 L147.728 1056.21 L133.654 1056.21 L133.654 1064.69 Q134.672 1064.34 135.691 1064.18 Q136.709 1063.99 137.728 1063.99 Q143.515 1063.99 146.894 1067.16 Q150.274 1070.33 150.274 1075.75 Q150.274 1081.33 146.802 1084.43 Q143.33 1087.51 137.01 1087.51 Q134.834 1087.51 132.566 1087.14 Q130.32 1086.77 127.913 1086.03 L127.913 1081.33 Q129.996 1082.46 132.219 1083.02 Q134.441 1083.57 136.918 1083.57 Q140.922 1083.57 143.26 1081.47 Q145.598 1079.36 145.598 1075.75 Q145.598 1072.14 143.26 1070.03 Q140.922 1067.93 136.918 1067.93 Q135.043 1067.93 133.168 1068.34 Q131.316 1068.76 129.371 1069.64 L129.371 1052.28 Z" fill="#000000" fill-rule="evenodd" fill-opacity="1" /><path clip-path="url(#clip500)" d="M62.9365 727.566 Q59.3254 727.566 57.4967 731.131 Q55.6912 734.673 55.6912 741.803 Q55.6912 748.909 57.4967 752.474 Q59.3254 756.015 62.9365 756.015 Q66.5707 756.015 68.3763 752.474 Q70.205 748.909 70.205 741.803 Q70.205 734.673 68.3763 731.131 Q66.5707 727.566 62.9365 727.566 M62.9365 723.863 Q68.7467 723.863 71.8022 728.469 Q74.8809 733.053 74.8809 741.803 Q74.8809 750.529 71.8022 755.136 Q68.7467 759.719 62.9365 759.719 Q57.1264 759.719 54.0477 755.136 Q50.9921 750.529 50.9921 741.803 Q50.9921 733.053 54.0477 728.469 Q57.1264 723.863 62.9365 723.863 Z" fill="#000000" fill-rule="evenodd" fill-opacity="1" /><path clip-path="url(#clip500)" d="M83.0984 753.168 L87.9827 753.168 L87.9827 759.048 L83.0984 759.048 L83.0984 753.168 Z" fill="#000000" fill-rule="evenodd" fill-opacity="1" /><path clip-path="url(#clip500)" d="M98.2141 724.488 L116.57 724.488 L116.57 728.423 L102.496 728.423 L102.496 736.895 Q103.515 736.548 104.534 736.386 Q105.552 736.201 106.571 736.201 Q112.358 736.201 115.737 739.372 Q119.117 742.543 119.117 747.96 Q119.117 753.539 115.645 756.64 Q112.172 759.719 105.853 759.719 Q103.677 759.719 101.409 759.349 Q99.1632 758.978 96.7558 758.238 L96.7558 753.539 Q98.8391 754.673 101.061 755.228 Q103.284 755.784 105.76 755.784 Q109.765 755.784 112.103 753.677 Q114.441 751.571 114.441 747.96 Q114.441 744.349 112.103 742.242 Q109.765 740.136 105.76 740.136 Q103.885 740.136 102.01 740.553 Q100.159 740.969 98.2141 741.849 L98.2141 724.488 Z" fill="#000000" fill-rule="evenodd" fill-opacity="1" /><path clip-path="url(#clip500)" d="M138.33 727.566 Q134.719 727.566 132.89 731.131 Q131.084 734.673 131.084 741.803 Q131.084 748.909 132.89 752.474 Q134.719 756.015 138.33 756.015 Q141.964 756.015 143.769 752.474 Q145.598 748.909 145.598 741.803 Q145.598 734.673 143.769 731.131 Q141.964 727.566 138.33 727.566 M138.33 723.863 Q144.14 723.863 147.195 728.469 Q150.274 733.053 150.274 741.803 Q150.274 750.529 147.195 755.136 Q144.14 759.719 138.33 759.719 Q132.519 759.719 129.441 755.136 Q126.385 750.529 126.385 741.803 Q126.385 733.053 129.441 728.469 Q132.519 723.863 138.33 723.863 Z" fill="#000000" fill-rule="evenodd" fill-opacity="1" /><path clip-path="url(#clip500)" d="M63.9319 399.775 Q60.3208 399.775 58.4921 403.34 Q56.6865 406.882 56.6865 414.011 Q56.6865 421.118 58.4921 424.683 Q60.3208 428.224 63.9319 428.224 Q67.5661 428.224 69.3717 424.683 Q71.2004 421.118 71.2004 414.011 Q71.2004 406.882 69.3717 403.34 Q67.5661 399.775 63.9319 399.775 M63.9319 396.072 Q69.742 396.072 72.7976 400.678 Q75.8763 405.261 75.8763 414.011 Q75.8763 422.738 72.7976 427.345 Q69.742 431.928 63.9319 431.928 Q58.1217 431.928 55.043 427.345 Q51.9875 422.738 51.9875 414.011 Q51.9875 405.261 55.043 400.678 Q58.1217 396.072 63.9319 396.072 Z" fill="#000000" fill-rule="evenodd" fill-opacity="1" /><path clip-path="url(#clip500)" d="M84.0938 425.377 L88.978 425.377 L88.978 431.257 L84.0938 431.257 L84.0938 425.377 Z" fill="#000000" fill-rule="evenodd" fill-opacity="1" /><path clip-path="url(#clip500)" d="M97.9826 396.697 L120.205 396.697 L120.205 398.687 L107.658 431.257 L102.774 431.257 L114.58 400.632 L97.9826 400.632 L97.9826 396.697 Z" fill="#000000" fill-rule="evenodd" fill-opacity="1" /><path clip-path="url(#clip500)" d="M129.371 396.697 L147.728 396.697 L147.728 400.632 L133.654 400.632 L133.654 409.104 Q134.672 408.757 135.691 408.595 Q136.709 408.41 137.728 408.41 Q143.515 408.41 146.894 411.581 Q150.274 414.752 150.274 420.169 Q150.274 425.748 146.802 428.849 Q143.33 431.928 137.01 431.928 Q134.834 431.928 132.566 431.558 Q130.32 431.187 127.913 430.447 L127.913 425.748 Q129.996 426.882 132.219 427.437 Q134.441 427.993 136.918 427.993 Q140.922 427.993 143.26 425.886 Q145.598 423.78 145.598 420.169 Q145.598 416.558 143.26 414.451 Q140.922 412.345 136.918 412.345 Q135.043 412.345 133.168 412.761 Q131.316 413.178 129.371 414.058 L129.371 396.697 Z" fill="#000000" fill-rule="evenodd" fill-opacity="1" /><path clip-path="url(#clip500)" d="M53.7467 99.5305 L61.3856 99.5305 L61.3856 73.1649 L53.0754 74.8316 L53.0754 70.5723 L61.3393 68.9057 L66.0152 68.9057 L66.0152 99.5305 L73.654 99.5305 L73.654 103.466 L53.7467 103.466 L53.7467 99.5305 Z" fill="#000000" fill-rule="evenodd" fill-opacity="1" /><path clip-path="url(#clip500)" d="M83.0984 97.5861 L87.9827 97.5861 L87.9827 103.466 L83.0984 103.466 L83.0984 97.5861 Z" fill="#000000" fill-rule="evenodd" fill-opacity="1" /><path clip-path="url(#clip500)" d="M108.168 71.9844 Q104.557 71.9844 102.728 75.5492 Q100.922 79.0908 100.922 86.2204 Q100.922 93.3268 102.728 96.8916 Q104.557 100.433 108.168 100.433 Q111.802 100.433 113.608 96.8916 Q115.436 93.3268 115.436 86.2204 Q115.436 79.0908 113.608 75.5492 Q111.802 71.9844 108.168 71.9844 M108.168 68.2807 Q113.978 68.2807 117.033 72.8871 Q120.112 77.4704 120.112 86.2204 Q120.112 94.9472 117.033 99.5537 Q113.978 104.137 108.168 104.137 Q102.358 104.137 99.2789 99.5537 Q96.2234 94.9472 96.2234 86.2204 Q96.2234 77.4704 99.2789 72.8871 Q102.358 68.2807 108.168 68.2807 Z" fill="#000000" fill-rule="evenodd" fill-opacity="1" /><path clip-path="url(#clip500)" d="M138.33 71.9844 Q134.719 71.9844 132.89 75.5492 Q131.084 79.0908 131.084 86.2204 Q131.084 93.3268 132.89 96.8916 Q134.719 100.433 138.33 100.433 Q141.964 100.433 143.769 96.8916 Q145.598 93.3268 145.598 86.2204 Q145.598 79.0908 143.769 75.5492 Q141.964 71.9844 138.33 71.9844 M138.33 68.2807 Q144.14 68.2807 147.195 72.8871 Q150.274 77.4704 150.274 86.2204 Q150.274 94.9472 147.195 99.5537 Q144.14 104.137 138.33 104.137 Q132.519 104.137 129.441 99.5537 Q126.385 94.9472 126.385 86.2204 Q126.385 77.4704 129.441 72.8871 Q132.519 68.2807 138.33 68.2807 Z" fill="#000000" fill-rule="evenodd" fill-opacity="1" /><polyline clip-path="url(#clip502)" style="stroke:#009af9; stroke-linecap:butt; stroke-linejoin:round; stroke-width:4; stroke-opacity:1; fill:none" points="
  247.59,1384.24 301.375,1371.13 355.161,1344.9 412.532,1318.68 466.317,1253.12 523.689,1017.11 581.06,702.433 638.431,466.423 695.802,164.856 753.174,138.632 
  810.545,138.632 871.502,151.744 928.873,164.856 989.83,177.967 1050.79,191.079 1111.74,191.079 1172.7,204.19 1233.66,177.967 1294.61,151.744 1359.16,138.632 
  1420.11,112.409 1484.66,99.2973 1549.2,86.1857 1613.74,86.1857 1678.29,86.1857 1746.41,86.1857 1810.96,164.856 1879.08,518.87 1943.63,1043.34 2011.76,1240.01 
  2079.88,1344.9 2151.6,1371.13 2219.73,1384.24 2291.44,1384.24 
  "/>
</svg>
