<?xml version="1.0" encoding="utf-8"?>
<svg xmlns="http://www.w3.org/2000/svg" xmlns:xlink="http://www.w3.org/1999/xlink" width="600" height="400" viewBox="0 0 2400 1600">
<defs>
  <clipPath id="clip620">
    <rect x="0" y="0" width="2400" height="1600"/>
  </clipPath>
</defs>
<path clip-path="url(#clip620)" d="
M0 1600 L2400 1600 L2400 0 L0 0  Z
  " fill="#ffffff" fill-rule="evenodd" fill-opacity="1"/>
<defs>
  <clipPath id="clip621">
    <rect x="480" y="0" width="1681" height="1600"/>
  </clipPath>
</defs>
<path clip-path="url(#clip620)" d="
M219.38 1423.18 L2352.76 1423.18 L2352.76 47.2441 L219.38 47.2441  Z
  " fill="#ffffff" fill-rule="evenodd" fill-opacity="1"/>
<defs>
  <clipPath id="clip622">
    <rect x="219" y="47" width="2134" height="1377"/>
  </clipPath>
</defs>
<polyline clip-path="url(#clip622)" style="stroke:#000000; stroke-linecap:butt; stroke-linejoin:round; stroke-width:2; stroke-opacity:0.1; fill:none" points="
  219.38,1423.18 219.38,47.2441 
  "/>
<polyline clip-path="url(#clip622)" style="stroke:#000000; stroke-linecap:butt; stroke-linejoin:round; stroke-width:2; stroke-opacity:0.1; fill:none" points="
  646.055,1423.18 646.055,47.2441 
  "/>
<polyline clip-path="url(#clip622)" style="stroke:#000000; stroke-linecap:butt; stroke-linejoin:round; stroke-width:2; stroke-opacity:0.1; fill:none" points="
  1072.73,1423.18 1072.73,47.2441 
  "/>
<polyline clip-path="url(#clip622)" style="stroke:#000000; stroke-linecap:butt; stroke-linejoin:round; stroke-width:2; stroke-opacity:0.1; fill:none" points="
  1499.41,1423.18 1499.41,47.2441 
  "/>
<polyline clip-path="url(#clip622)" style="stroke:#000000; stroke-linecap:butt; stroke-linejoin:round; stroke-width:2; stroke-opacity:0.1; fill:none" points="
  1926.08,1423.18 1926.08,47.2441 
  "/>
<polyline clip-path="url(#clip622)" style="stroke:#000000; stroke-linecap:butt; stroke-linejoin:round; stroke-width:2; stroke-opacity:0.1; fill:none" points="
  2352.76,1423.18 2352.76,47.2441 
  "/>
<polyline clip-path="url(#clip620)" style="stroke:#000000; stroke-linecap:butt; stroke-linejoin:round; stroke-width:4; stroke-opacity:1; fill:none" points="
  219.38,1423.18 2352.76,1423.18 
  "/>
<polyline clip-path="url(#clip620)" style="stroke:#000000; stroke-linecap:butt; stroke-linejoin:round; stroke-width:4; stroke-opacity:1; fill:none" points="
  219.38,1423.18 219.38,1404.28 
  "/>
<polyline clip-path="url(#clip620)" style="stroke:#000000; stroke-linecap:butt; stroke-linejoin:round; stroke-width:4; stroke-opacity:1; fill:none" points="
  646.055,1423.18 646.055,1404.28 
  "/>
<polyline clip-path="url(#clip620)" style="stroke:#000000; stroke-linecap:butt; stroke-linejoin:round; stroke-width:4; stroke-opacity:1; fill:none" points="
  1072.73,1423.18 1072.73,1404.28 
  "/>
<polyline clip-path="url(#clip620)" style="stroke:#000000; stroke-linecap:butt; stroke-linejoin:round; stroke-width:4; stroke-opacity:1; fill:none" points="
  1499.41,1423.18 1499.41,1404.28 
  "/>
<polyline clip-path="url(#clip620)" style="stroke:#000000; stroke-linecap:butt; stroke-linejoin:round; stroke-width:4; stroke-opacity:1; fill:none" points="
  1926.08,1423.18 1926.08,1404.28 
  "/>
<polyline clip-path="url(#clip620)" style="stroke:#000000; stroke-linecap:butt; stroke-linejoin:round; stroke-width:4; stroke-opacity:1; fill:none" points="
  2352.76,1423.18 2352.76,1404.28 
  "/>
<path clip-path="url(#clip620)" d="M176.336 1481.64 L192.656 1481.64 L192.656 1485.58 L170.711 1485.58 L170.711 1481.64 Q173.373 1478.89 177.957 1474.26 Q182.563 1469.61 183.744 1468.27 Q185.989 1465.74 186.869 1464.01 Q187.772 1462.25 187.772 1460.56 Q187.772 1457.8 185.827 1456.07 Q183.906 1454.33 180.804 1454.33 Q178.605 1454.33 176.151 1455.09 Q173.721 1455.86 170.943 1457.41 L170.943 1452.69 Q173.767 1451.55 176.221 1450.97 Q178.674 1450.39 180.711 1450.39 Q186.082 1450.39 189.276 1453.08 Q192.471 1455.77 192.471 1460.26 Q192.471 1462.39 191.66 1464.31 Q190.873 1466.2 188.767 1468.8 Q188.188 1469.47 185.086 1472.69 Q181.985 1475.88 176.336 1481.64 Z" fill="#000000" fill-rule="evenodd" fill-opacity="1" /><path clip-path="url(#clip620)" d="M202.471 1479.7 L207.355 1479.7 L207.355 1485.58 L202.471 1485.58 L202.471 1479.7 Z" fill="#000000" fill-rule="evenodd" fill-opacity="1" /><path clip-path="url(#clip620)" d="M227.54 1454.1 Q223.929 1454.1 222.1 1457.66 Q220.295 1461.2 220.295 1468.33 Q220.295 1475.44 222.1 1479.01 Q223.929 1482.55 227.54 1482.55 Q231.174 1482.55 232.98 1479.01 Q234.808 1475.44 234.808 1468.33 Q234.808 1461.2 232.98 1457.66 Q231.174 1454.1 227.54 1454.1 M227.54 1450.39 Q233.35 1450.39 236.406 1455 Q239.484 1459.58 239.484 1468.33 Q239.484 1477.06 236.406 1481.67 Q233.35 1486.25 227.54 1486.25 Q221.73 1486.25 218.651 1481.67 Q215.595 1477.06 215.595 1468.33 Q215.595 1459.58 218.651 1455 Q221.73 1450.39 227.54 1450.39 Z" fill="#000000" fill-rule="evenodd" fill-opacity="1" /><path clip-path="url(#clip620)" d="M251.73 1481.64 L268.049 1481.64 L268.049 1485.58 L246.105 1485.58 L246.105 1481.64 Q248.767 1478.89 253.35 1474.26 Q257.956 1469.61 259.137 1468.27 Q261.382 1465.74 262.262 1464.01 Q263.165 1462.25 263.165 1460.56 Q263.165 1457.8 261.22 1456.07 Q259.299 1454.33 256.197 1454.33 Q253.998 1454.33 251.544 1455.09 Q249.114 1455.86 246.336 1457.41 L246.336 1452.69 Q249.16 1451.55 251.614 1450.97 Q254.067 1450.39 256.104 1450.39 Q261.475 1450.39 264.669 1453.08 Q267.864 1455.77 267.864 1460.26 Q267.864 1462.39 267.054 1464.31 Q266.266 1466.2 264.16 1468.8 Q263.581 1469.47 260.479 1472.69 Q257.378 1475.88 251.73 1481.64 Z" fill="#000000" fill-rule="evenodd" fill-opacity="1" /><path clip-path="url(#clip620)" d="M602.537 1481.64 L618.856 1481.64 L618.856 1485.58 L596.912 1485.58 L596.912 1481.64 Q599.574 1478.89 604.157 1474.26 Q608.764 1469.61 609.944 1468.27 Q612.19 1465.74 613.069 1464.01 Q613.972 1462.25 613.972 1460.56 Q613.972 1457.8 612.028 1456.07 Q610.106 1454.33 607.005 1454.33 Q604.806 1454.33 602.352 1455.09 Q599.921 1455.86 597.144 1457.41 L597.144 1452.69 Q599.968 1451.55 602.421 1450.97 Q604.875 1450.39 606.912 1450.39 Q612.282 1450.39 615.477 1453.08 Q618.671 1455.77 618.671 1460.26 Q618.671 1462.39 617.861 1464.31 Q617.074 1466.2 614.968 1468.8 Q614.389 1469.47 611.287 1472.69 Q608.185 1475.88 602.537 1481.64 Z" fill="#000000" fill-rule="evenodd" fill-opacity="1" /><path clip-path="url(#clip620)" d="M628.671 1479.7 L633.555 1479.7 L633.555 1485.58 L628.671 1485.58 L628.671 1479.7 Z" fill="#000000" fill-rule="evenodd" fill-opacity="1" /><path clip-path="url(#clip620)" d="M653.74 1454.1 Q650.129 1454.1 648.301 1457.66 Q646.495 1461.2 646.495 1468.33 Q646.495 1475.44 648.301 1479.01 Q650.129 1482.55 653.74 1482.55 Q657.375 1482.55 659.18 1479.01 Q661.009 1475.44 661.009 1468.33 Q661.009 1461.2 659.18 1457.66 Q657.375 1454.1 653.74 1454.1 M653.74 1450.39 Q659.551 1450.39 662.606 1455 Q665.685 1459.58 665.685 1468.33 Q665.685 1477.06 662.606 1481.67 Q659.551 1486.25 653.74 1486.25 Q647.93 1486.25 644.852 1481.67 Q641.796 1477.06 641.796 1468.33 Q641.796 1459.58 644.852 1455 Q647.93 1450.39 653.74 1450.39 Z" fill="#000000" fill-rule="evenodd" fill-opacity="1" /><path clip-path="url(#clip620)" d="M688.069 1466.95 Q691.425 1467.66 693.3 1469.93 Q695.199 1472.2 695.199 1475.53 Q695.199 1480.65 691.68 1483.45 Q688.162 1486.25 681.68 1486.25 Q679.504 1486.25 677.189 1485.81 Q674.898 1485.39 672.444 1484.54 L672.444 1480.02 Q674.388 1481.16 676.703 1481.74 Q679.018 1482.32 681.541 1482.32 Q685.939 1482.32 688.231 1480.58 Q690.546 1478.84 690.546 1475.53 Q690.546 1472.48 688.393 1470.77 Q686.263 1469.03 682.444 1469.03 L678.416 1469.03 L678.416 1465.19 L682.629 1465.19 Q686.078 1465.19 687.907 1463.82 Q689.736 1462.43 689.736 1459.84 Q689.736 1457.18 687.837 1455.77 Q685.963 1454.33 682.444 1454.33 Q680.523 1454.33 678.324 1454.75 Q676.125 1455.16 673.486 1456.04 L673.486 1451.88 Q676.148 1451.14 678.463 1450.77 Q680.8 1450.39 682.861 1450.39 Q688.185 1450.39 691.287 1452.83 Q694.388 1455.23 694.388 1459.35 Q694.388 1462.22 692.745 1464.21 Q691.101 1466.18 688.069 1466.95 Z" fill="#000000" fill-rule="evenodd" fill-opacity="1" /><path clip-path="url(#clip620)" d="M1028.65 1481.64 L1044.96 1481.64 L1044.96 1485.58 L1023.02 1485.58 L1023.02 1481.64 Q1025.68 1478.89 1030.27 1474.26 Q1034.87 1469.61 1036.05 1468.27 Q1038.3 1465.74 1039.18 1464.01 Q1040.08 1462.25 1040.08 1460.56 Q1040.08 1457.8 1038.14 1456.07 Q1036.21 1454.33 1033.11 1454.33 Q1030.91 1454.33 1028.46 1455.09 Q1026.03 1455.86 1023.25 1457.41 L1023.25 1452.69 Q1026.08 1451.55 1028.53 1450.97 Q1030.98 1450.39 1033.02 1450.39 Q1038.39 1450.39 1041.58 1453.08 Q1044.78 1455.77 1044.78 1460.26 Q1044.78 1462.39 1043.97 1464.31 Q1043.18 1466.2 1041.08 1468.8 Q1040.5 1469.47 1037.39 1472.69 Q1034.29 1475.88 1028.65 1481.64 Z" fill="#000000" fill-rule="evenodd" fill-opacity="1" /><path clip-path="url(#clip620)" d="M1054.78 1479.7 L1059.66 1479.7 L1059.66 1485.58 L1054.78 1485.58 L1054.78 1479.7 Z" fill="#000000" fill-rule="evenodd" fill-opacity="1" /><path clip-path="url(#clip620)" d="M1079.85 1454.1 Q1076.24 1454.1 1074.41 1457.66 Q1072.6 1461.2 1072.6 1468.33 Q1072.6 1475.44 1074.41 1479.01 Q1076.24 1482.55 1079.85 1482.55 Q1083.48 1482.55 1085.29 1479.01 Q1087.12 1475.44 1087.12 1468.33 Q1087.12 1461.2 1085.29 1457.66 Q1083.48 1454.1 1079.85 1454.1 M1079.85 1450.39 Q1085.66 1450.39 1088.71 1455 Q1091.79 1459.58 1091.79 1468.33 Q1091.79 1477.06 1088.71 1481.67 Q1085.66 1486.25 1079.85 1486.25 Q1074.04 1486.25 1070.96 1481.67 Q1067.9 1477.06 1067.9 1468.33 Q1067.9 1459.58 1070.96 1455 Q1074.04 1450.39 1079.85 1450.39 Z" fill="#000000" fill-rule="evenodd" fill-opacity="1" /><path clip-path="url(#clip620)" d="M1112.86 1455.09 L1101.05 1473.54 L1112.86 1473.54 L1112.86 1455.09 M1111.63 1451.02 L1117.51 1451.02 L1117.51 1473.54 L1122.44 1473.54 L1122.44 1477.43 L1117.51 1477.43 L1117.51 1485.58 L1112.86 1485.58 L1112.86 1477.43 L1097.26 1477.43 L1097.26 1472.92 L1111.63 1451.02 Z" fill="#000000" fill-rule="evenodd" fill-opacity="1" /><path clip-path="url(#clip620)" d="M1456.06 1481.64 L1472.38 1481.64 L1472.38 1485.58 L1450.44 1485.58 L1450.44 1481.64 Q1453.1 1478.89 1457.68 1474.26 Q1462.29 1469.61 1463.47 1468.27 Q1465.71 1465.74 1466.59 1464.01 Q1467.5 1462.25 1467.5 1460.56 Q1467.5 1457.8 1465.55 1456.07 Q1463.63 1454.33 1460.53 1454.33 Q1458.33 1454.33 1455.88 1455.09 Q1453.45 1455.86 1450.67 1457.41 L1450.67 1452.69 Q1453.49 1451.55 1455.95 1450.97 Q1458.4 1450.39 1460.44 1450.39 Q1465.81 1450.39 1469 1453.08 Q1472.2 1455.77 1472.2 1460.26 Q1472.2 1462.39 1471.38 1464.31 Q1470.6 1466.2 1468.49 1468.8 Q1467.91 1469.47 1464.81 1472.69 Q1461.71 1475.88 1456.06 1481.64 Z" fill="#000000" fill-rule="evenodd" fill-opacity="1" /><path clip-path="url(#clip620)" d="M1482.2 1479.7 L1487.08 1479.7 L1487.08 1485.58 L1482.2 1485.58 L1482.2 1479.7 Z" fill="#000000" fill-rule="evenodd" fill-opacity="1" /><path clip-path="url(#clip620)" d="M1507.26 1454.1 Q1503.65 1454.1 1501.82 1457.66 Q1500.02 1461.2 1500.02 1468.33 Q1500.02 1475.44 1501.82 1479.01 Q1503.65 1482.55 1507.26 1482.55 Q1510.9 1482.55 1512.7 1479.01 Q1514.53 1475.44 1514.53 1468.33 Q1514.53 1461.2 1512.7 1457.66 Q1510.9 1454.1 1507.26 1454.1 M1507.26 1450.39 Q1513.07 1450.39 1516.13 1455 Q1519.21 1459.58 1519.21 1468.33 Q1519.21 1477.06 1516.13 1481.67 Q1513.07 1486.25 1507.26 1486.25 Q1501.45 1486.25 1498.38 1481.67 Q1495.32 1477.06 1495.32 1468.33 Q1495.32 1459.58 1498.38 1455 Q1501.45 1450.39 1507.26 1450.39 Z" fill="#000000" fill-rule="evenodd" fill-opacity="1" /><path clip-path="url(#clip620)" d="M1527.47 1451.02 L1545.83 1451.02 L1545.83 1454.96 L1531.75 1454.96 L1531.75 1463.43 Q1532.77 1463.08 1533.79 1462.92 Q1534.81 1462.73 1535.83 1462.73 Q1541.62 1462.73 1545 1465.9 Q1548.38 1469.08 1548.38 1474.49 Q1548.38 1480.07 1544.9 1483.17 Q1541.43 1486.25 1535.11 1486.25 Q1532.94 1486.25 1530.67 1485.88 Q1528.42 1485.51 1526.01 1484.77 L1526.01 1480.07 Q1528.1 1481.2 1530.32 1481.76 Q1532.54 1482.32 1535.02 1482.32 Q1539.02 1482.32 1541.36 1480.21 Q1543.7 1478.1 1543.7 1474.49 Q1543.7 1470.88 1541.36 1468.77 Q1539.02 1466.67 1535.02 1466.67 Q1533.14 1466.67 1531.27 1467.08 Q1529.42 1467.5 1527.47 1468.38 L1527.47 1451.02 Z" fill="#000000" fill-rule="evenodd" fill-opacity="1" /><path clip-path="url(#clip620)" d="M1882.16 1481.64 L1898.48 1481.64 L1898.48 1485.58 L1876.53 1485.58 L1876.53 1481.64 Q1879.19 1478.89 1883.78 1474.26 Q1888.38 1469.61 1889.56 1468.27 Q1891.81 1465.74 1892.69 1464.01 Q1893.59 1462.25 1893.59 1460.56 Q1893.59 1457.8 1891.65 1456.07 Q1889.73 1454.33 1886.62 1454.33 Q1884.43 1454.33 1881.97 1455.09 Q1879.54 1455.86 1876.76 1457.41 L1876.76 1452.69 Q1879.59 1451.55 1882.04 1450.97 Q1884.5 1450.39 1886.53 1450.39 Q1891.9 1450.39 1895.1 1453.08 Q1898.29 1455.77 1898.29 1460.26 Q1898.29 1462.39 1897.48 1464.31 Q1896.69 1466.2 1894.59 1468.8 Q1894.01 1469.47 1890.91 1472.69 Q1887.81 1475.88 1882.16 1481.64 Z" fill="#000000" fill-rule="evenodd" fill-opacity="1" /><path clip-path="url(#clip620)" d="M1908.29 1479.7 L1913.18 1479.7 L1913.18 1485.58 L1908.29 1485.58 L1908.29 1479.7 Z" fill="#000000" fill-rule="evenodd" fill-opacity="1" /><path clip-path="url(#clip620)" d="M1933.36 1454.1 Q1929.75 1454.1 1927.92 1457.66 Q1926.12 1461.2 1926.12 1468.33 Q1926.12 1475.44 1927.92 1479.01 Q1929.75 1482.55 1933.36 1482.55 Q1937 1482.55 1938.8 1479.01 Q1940.63 1475.44 1940.63 1468.33 Q1940.63 1461.2 1938.8 1457.66 Q1937 1454.1 1933.36 1454.1 M1933.36 1450.39 Q1939.17 1450.39 1942.23 1455 Q1945.31 1459.58 1945.31 1468.33 Q1945.31 1477.06 1942.23 1481.67 Q1939.17 1486.25 1933.36 1486.25 Q1927.55 1486.25 1924.47 1481.67 Q1921.42 1477.06 1921.42 1468.33 Q1921.42 1459.58 1924.47 1455 Q1927.55 1450.39 1933.36 1450.39 Z" fill="#000000" fill-rule="evenodd" fill-opacity="1" /><path clip-path="url(#clip620)" d="M1964.1 1466.44 Q1960.95 1466.44 1959.1 1468.59 Q1957.27 1470.74 1957.27 1474.49 Q1957.27 1478.22 1959.1 1480.39 Q1960.95 1482.55 1964.1 1482.55 Q1967.25 1482.55 1969.08 1480.39 Q1970.93 1478.22 1970.93 1474.49 Q1970.93 1470.74 1969.08 1468.59 Q1967.25 1466.44 1964.1 1466.44 M1973.38 1451.78 L1973.38 1456.04 Q1971.62 1455.21 1969.82 1454.77 Q1968.04 1454.33 1966.28 1454.33 Q1961.65 1454.33 1959.19 1457.45 Q1956.76 1460.58 1956.42 1466.9 Q1957.78 1464.89 1959.84 1463.82 Q1961.9 1462.73 1964.38 1462.73 Q1969.59 1462.73 1972.6 1465.9 Q1975.63 1469.05 1975.63 1474.49 Q1975.63 1479.82 1972.48 1483.03 Q1969.33 1486.25 1964.1 1486.25 Q1958.11 1486.25 1954.93 1481.67 Q1951.76 1477.06 1951.76 1468.33 Q1951.76 1460.14 1955.65 1455.28 Q1959.54 1450.39 1966.09 1450.39 Q1967.85 1450.39 1969.63 1450.74 Q1971.44 1451.09 1973.38 1451.78 Z" fill="#000000" fill-rule="evenodd" fill-opacity="1" /><path clip-path="url(#clip620)" d="M2309.36 1481.64 L2325.68 1481.64 L2325.68 1485.58 L2303.74 1485.58 L2303.74 1481.64 Q2306.4 1478.89 2310.99 1474.26 Q2315.59 1469.61 2316.77 1468.27 Q2319.02 1465.74 2319.9 1464.01 Q2320.8 1462.25 2320.8 1460.56 Q2320.8 1457.8 2318.86 1456.07 Q2316.93 1454.33 2313.83 1454.33 Q2311.63 1454.33 2309.18 1455.09 Q2306.75 1455.86 2303.97 1457.41 L2303.97 1452.69 Q2306.8 1451.55 2309.25 1450.97 Q2311.7 1450.39 2313.74 1450.39 Q2319.11 1450.39 2322.3 1453.08 Q2325.5 1455.77 2325.5 1460.26 Q2325.5 1462.39 2324.69 1464.31 Q2323.9 1466.2 2321.8 1468.8 Q2321.22 1469.47 2318.11 1472.69 Q2315.01 1475.88 2309.36 1481.64 Z" fill="#000000" fill-rule="evenodd" fill-opacity="1" /><path clip-path="url(#clip620)" d="M2335.5 1479.7 L2340.38 1479.7 L2340.38 1485.58 L2335.5 1485.58 L2335.5 1479.7 Z" fill="#000000" fill-rule="evenodd" fill-opacity="1" /><path clip-path="url(#clip620)" d="M2360.57 1454.1 Q2356.96 1454.1 2355.13 1457.66 Q2353.32 1461.2 2353.32 1468.33 Q2353.32 1475.44 2355.13 1479.01 Q2356.96 1482.55 2360.57 1482.55 Q2364.2 1482.55 2366.01 1479.01 Q2367.84 1475.44 2367.84 1468.33 Q2367.84 1461.2 2366.01 1457.66 Q2364.2 1454.1 2360.57 1454.1 M2360.57 1450.39 Q2366.38 1450.39 2369.43 1455 Q2372.51 1459.58 2372.51 1468.33 Q2372.51 1477.06 2369.43 1481.67 Q2366.38 1486.25 2360.57 1486.25 Q2354.76 1486.25 2351.68 1481.67 Q2348.62 1477.06 2348.62 1468.33 Q2348.62 1459.58 2351.68 1455 Q2354.76 1450.39 2360.57 1450.39 Z" fill="#000000" fill-rule="evenodd" fill-opacity="1" /><path clip-path="url(#clip620)" d="M2379.55 1451.02 L2401.77 1451.02 L2401.77 1453.01 L2389.23 1485.58 L2384.34 1485.58 L2396.15 1454.96 L2379.55 1454.96 L2379.55 1451.02 Z" fill="#000000" fill-rule="evenodd" fill-opacity="1" /><path clip-path="url(#clip620)" d="M1008.33 1520.52 L1014.83 1520.52 L1024.82 1560.69 L1034.78 1520.52 L1042.01 1520.52 L1052 1560.69 L1061.96 1520.52 L1068.49 1520.52 L1056.55 1568.04 L1048.47 1568.04 L1038.44 1526.79 L1028.32 1568.04 L1020.24 1568.04 L1008.33 1520.52 Z" fill="#000000" fill-rule="evenodd" fill-opacity="1" /><path clip-path="url(#clip620)" d="M1088.79 1550.12 Q1081.7 1550.12 1078.96 1551.75 Q1076.22 1553.37 1076.22 1557.29 Q1076.22 1560.4 1078.26 1562.25 Q1080.33 1564.07 1083.86 1564.07 Q1088.73 1564.07 1091.66 1560.63 Q1094.62 1557.16 1094.62 1551.43 L1094.62 1550.12 L1088.79 1550.12 M1100.48 1547.71 L1100.48 1568.04 L1094.62 1568.04 L1094.62 1562.63 Q1092.61 1565.88 1089.62 1567.44 Q1086.63 1568.97 1082.3 1568.97 Q1076.83 1568.97 1073.58 1565.91 Q1070.37 1562.82 1070.37 1557.67 Q1070.37 1551.65 1074.38 1548.6 Q1078.42 1545.54 1086.41 1545.54 L1094.62 1545.54 L1094.62 1544.97 Q1094.62 1540.93 1091.95 1538.73 Q1089.3 1536.5 1084.5 1536.5 Q1081.44 1536.5 1078.55 1537.23 Q1075.65 1537.97 1072.98 1539.43 L1072.98 1534.02 Q1076.19 1532.78 1079.21 1532.17 Q1082.24 1531.54 1085.1 1531.54 Q1092.84 1531.54 1096.66 1535.55 Q1100.48 1539.56 1100.48 1547.71 Z" fill="#000000" fill-rule="evenodd" fill-opacity="1" /><path clip-path="url(#clip620)" d="M1108.34 1532.4 L1114.54 1532.4 L1125.68 1562.31 L1136.82 1532.4 L1143.03 1532.4 L1129.66 1568.04 L1121.71 1568.04 L1108.34 1532.4 Z" fill="#000000" fill-rule="evenodd" fill-opacity="1" /><path clip-path="url(#clip620)" d="M1181.61 1548.76 L1181.61 1551.62 L1154.68 1551.62 Q1155.06 1557.67 1158.31 1560.85 Q1161.59 1564 1167.41 1564 Q1170.79 1564 1173.94 1563.17 Q1177.12 1562.35 1180.24 1560.69 L1180.24 1566.23 Q1177.09 1567.57 1173.78 1568.27 Q1170.47 1568.97 1167.06 1568.97 Q1158.53 1568.97 1153.53 1564 Q1148.57 1559.04 1148.57 1550.57 Q1148.57 1541.82 1153.28 1536.69 Q1158.02 1531.54 1166.04 1531.54 Q1173.24 1531.54 1177.41 1536.18 Q1181.61 1540.8 1181.61 1548.76 M1175.75 1547.04 Q1175.69 1542.23 1173.04 1539.37 Q1170.43 1536.5 1166.11 1536.5 Q1161.2 1536.5 1158.24 1539.27 Q1155.32 1542.04 1154.87 1547.07 L1175.75 1547.04 Z" fill="#000000" fill-rule="evenodd" fill-opacity="1" /><path clip-path="url(#clip620)" d="M1191.22 1518.52 L1197.08 1518.52 L1197.08 1568.04 L1191.22 1568.04 L1191.22 1518.52 Z" fill="#000000" fill-rule="evenodd" fill-opacity="1" /><path clip-path="url(#clip620)" d="M1239.82 1548.76 L1239.82 1551.62 L1212.89 1551.62 Q1213.28 1557.67 1216.52 1560.85 Q1219.8 1564 1225.63 1564 Q1229 1564 1232.15 1563.17 Q1235.33 1562.35 1238.45 1560.69 L1238.45 1566.23 Q1235.3 1567.57 1231.99 1568.27 Q1228.68 1568.97 1225.28 1568.97 Q1216.75 1568.97 1211.75 1564 Q1206.78 1559.04 1206.78 1550.57 Q1206.78 1541.82 1211.49 1536.69 Q1216.24 1531.54 1224.26 1531.54 Q1231.45 1531.54 1235.62 1536.18 Q1239.82 1540.8 1239.82 1548.76 M1233.96 1547.04 Q1233.9 1542.23 1231.26 1539.37 Q1228.65 1536.5 1224.32 1536.5 Q1219.42 1536.5 1216.46 1539.27 Q1213.53 1542.04 1213.09 1547.07 L1233.96 1547.04 Z" fill="#000000" fill-rule="evenodd" fill-opacity="1" /><path clip-path="url(#clip620)" d="M1279.07 1546.53 L1279.07 1568.04 L1273.21 1568.04 L1273.21 1546.72 Q1273.21 1541.66 1271.24 1539.14 Q1269.26 1536.63 1265.32 1536.63 Q1260.57 1536.63 1257.84 1539.65 Q1255.1 1542.68 1255.1 1547.9 L1255.1 1568.04 L1249.21 1568.04 L1249.21 1532.4 L1255.1 1532.4 L1255.1 1537.93 Q1257.2 1534.72 1260.03 1533.13 Q1262.9 1531.54 1266.62 1531.54 Q1272.76 1531.54 1275.91 1535.36 Q1279.07 1539.14 1279.07 1546.53 Z" fill="#000000" fill-rule="evenodd" fill-opacity="1" /><path clip-path="url(#clip620)" d="M1314.2 1549.81 Q1314.2 1543.44 1311.56 1539.94 Q1308.95 1536.44 1304.21 1536.44 Q1299.5 1536.44 1296.86 1539.94 Q1294.25 1543.44 1294.25 1549.81 Q1294.25 1556.14 1296.86 1559.64 Q1299.5 1563.14 1304.21 1563.14 Q1308.95 1563.14 1311.56 1559.64 Q1314.2 1556.14 1314.2 1549.81 M1320.06 1563.62 Q1320.06 1572.72 1316.02 1577.15 Q1311.98 1581.6 1303.64 1581.6 Q1300.55 1581.6 1297.81 1581.13 Q1295.08 1580.68 1292.5 1579.72 L1292.5 1574.03 Q1295.08 1575.43 1297.59 1576.1 Q1300.1 1576.76 1302.71 1576.76 Q1308.48 1576.76 1311.34 1573.74 Q1314.2 1570.75 1314.2 1564.67 L1314.2 1561.77 Q1312.39 1564.92 1309.56 1566.48 Q1306.72 1568.04 1302.78 1568.04 Q1296.22 1568.04 1292.21 1563.05 Q1288.2 1558.05 1288.2 1549.81 Q1288.2 1541.53 1292.21 1536.53 Q1296.22 1531.54 1302.78 1531.54 Q1306.72 1531.54 1309.56 1533.1 Q1312.39 1534.66 1314.2 1537.81 L1314.2 1532.4 L1320.06 1532.4 L1320.06 1563.62 Z" fill="#000000" fill-rule="evenodd" fill-opacity="1" /><path clip-path="url(#clip620)" d="M1337.92 1522.27 L1337.92 1532.4 L1349.98 1532.4 L1349.98 1536.95 L1337.92 1536.95 L1337.92 1556.3 Q1337.92 1560.66 1339.09 1561.9 Q1340.3 1563.14 1343.96 1563.14 L1349.98 1563.14 L1349.98 1568.04 L1343.96 1568.04 Q1337.18 1568.04 1334.61 1565.53 Q1332.03 1562.98 1332.03 1556.3 L1332.03 1536.95 L1327.73 1536.95 L1327.73 1532.4 L1332.03 1532.4 L1332.03 1522.27 L1337.92 1522.27 Z" fill="#000000" fill-rule="evenodd" fill-opacity="1" /><path clip-path="url(#clip620)" d="M1387.31 1546.53 L1387.31 1568.04 L1381.46 1568.04 L1381.46 1546.72 Q1381.46 1541.66 1379.48 1539.14 Q1377.51 1536.63 1373.56 1536.63 Q1368.82 1536.63 1366.08 1539.65 Q1363.35 1542.68 1363.35 1547.9 L1363.35 1568.04 L1357.46 1568.04 L1357.46 1518.52 L1363.35 1518.52 L1363.35 1537.93 Q1365.45 1534.72 1368.28 1533.13 Q1371.15 1531.54 1374.87 1531.54 Q1381.01 1531.54 1384.16 1535.36 Q1387.31 1539.14 1387.31 1546.53 Z" fill="#000000" fill-rule="evenodd" fill-opacity="1" /><path clip-path="url(#clip620)" d="M1419.17 1518.52 L1432.67 1518.52 L1432.67 1523.07 L1425.03 1523.07 L1425.03 1572.09 L1432.67 1572.09 L1432.67 1576.64 L1419.17 1576.64 L1419.17 1518.52 Z" fill="#000000" fill-rule="evenodd" fill-opacity="1" /><path clip-path="url(#clip620)" d="M1444.54 1581.6 L1444.54 1532.4 L1450.4 1532.4 L1450.4 1554.55 Q1450.4 1559.16 1452.59 1561.52 Q1454.79 1563.87 1459.09 1563.87 Q1463.8 1563.87 1466.15 1561.2 Q1468.54 1558.53 1468.54 1553.18 L1468.54 1532.4 L1474.4 1532.4 L1474.4 1559.83 Q1474.4 1561.74 1474.94 1562.66 Q1475.51 1563.56 1476.69 1563.56 Q1476.98 1563.56 1477.48 1563.4 Q1477.99 1563.21 1478.89 1562.82 L1478.89 1567.53 Q1477.58 1568.27 1476.4 1568.62 Q1475.26 1568.97 1474.14 1568.97 Q1471.95 1568.97 1470.64 1567.73 Q1469.34 1566.48 1468.86 1563.94 Q1467.27 1566.45 1464.94 1567.73 Q1462.65 1568.97 1459.53 1568.97 Q1456.29 1568.97 1454 1567.73 Q1451.74 1566.48 1450.4 1564 L1450.4 1581.6 L1444.54 1581.6 Z" fill="#000000" fill-rule="evenodd" fill-opacity="1" /><path clip-path="url(#clip620)" d="M1514.37 1539.24 Q1516.57 1535.29 1519.63 1533.41 Q1522.68 1531.54 1526.82 1531.54 Q1532.39 1531.54 1535.41 1535.45 Q1538.44 1539.33 1538.44 1546.53 L1538.44 1568.04 L1532.55 1568.04 L1532.55 1546.72 Q1532.55 1541.59 1530.73 1539.11 Q1528.92 1536.63 1525.2 1536.63 Q1520.64 1536.63 1518 1539.65 Q1515.36 1542.68 1515.36 1547.9 L1515.36 1568.04 L1509.47 1568.04 L1509.47 1546.72 Q1509.47 1541.56 1507.66 1539.11 Q1505.84 1536.63 1502.06 1536.63 Q1497.57 1536.63 1494.93 1539.68 Q1492.29 1542.71 1492.29 1547.9 L1492.29 1568.04 L1486.4 1568.04 L1486.4 1532.4 L1492.29 1532.4 L1492.29 1537.93 Q1494.29 1534.66 1497.09 1533.1 Q1499.89 1531.54 1503.74 1531.54 Q1507.63 1531.54 1510.33 1533.51 Q1513.07 1535.48 1514.37 1539.24 Z" fill="#000000" fill-rule="evenodd" fill-opacity="1" /><path clip-path="url(#clip620)" d="M1563.8 1518.52 L1563.8 1576.64 L1550.31 1576.64 L1550.31 1572.09 L1557.92 1572.09 L1557.92 1523.07 L1550.31 1523.07 L1550.31 1518.52 L1563.8 1518.52 Z" fill="#000000" fill-rule="evenodd" fill-opacity="1" /><polyline clip-path="url(#clip622)" style="stroke:#000000; stroke-linecap:butt; stroke-linejoin:round; stroke-width:2; stroke-opacity:0.1; fill:none" points="
  219.38,1384.24 2352.76,1384.24 
  "/>
<polyline clip-path="url(#clip622)" style="stroke:#000000; stroke-linecap:butt; stroke-linejoin:round; stroke-width:2; stroke-opacity:0.1; fill:none" points="
  219.38,971.767 2352.76,971.767 
  "/>
<polyline clip-path="url(#clip622)" style="stroke:#000000; stroke-linecap:butt; stroke-linejoin:round; stroke-width:2; stroke-opacity:0.1; fill:none" points="
  219.38,559.295 2352.76,559.295 
  "/>
<polyline clip-path="url(#clip622)" style="stroke:#000000; stroke-linecap:butt; stroke-linejoin:round; stroke-width:2; stroke-opacity:0.1; fill:none" points="
  219.38,146.823 2352.76,146.823 
  "/>
<polyline clip-path="url(#clip620)" style="stroke:#000000; stroke-linecap:butt; stroke-linejoin:round; stroke-width:4; stroke-opacity:1; fill:none" points="
  219.38,1423.18 219.38,47.2441 
  "/>
<polyline clip-path="url(#clip620)" style="stroke:#000000; stroke-linecap:butt; stroke-linejoin:round; stroke-width:4; stroke-opacity:1; fill:none" points="
  219.38,1384.24 238.278,1384.24 
  "/>
<polyline clip-path="url(#clip620)" style="stroke:#000000; stroke-linecap:butt; stroke-linejoin:round; stroke-width:4; stroke-opacity:1; fill:none" points="
  219.38,971.767 238.278,971.767 
  "/>
<polyline clip-path="url(#clip620)" style="stroke:#000000; stroke-linecap:butt; stroke-linejoin:round; stroke-width:4; stroke-opacity:1; fill:none" points="
  219.38,559.295 238.278,559.295 
  "/>
<polyline clip-path="url(#clip620)" style="stroke:#000000; stroke-linecap:butt; stroke-linejoin:round; stroke-width:4; stroke-opacity:1; fill:none" points="
  219.38,146.823 238.278,146.823 
  "/>
<path clip-path="url(#clip620)" d="M126.205 1370.04 Q122.593 1370.04 120.765 1373.6 Q118.959 1377.14 118.959 1384.27 Q118.959 1391.38 120.765 1394.94 Q122.593 1398.49 126.205 1398.49 Q129.839 1398.49 131.644 1394.94 Q133.473 1391.38 133.473 1384.27 Q133.473 1377.14 131.644 1373.6 Q129.839 1370.04 126.205 1370.04 M126.205 1366.33 Q132.015 1366.33 135.07 1370.94 Q138.149 1375.52 138.149 1384.27 Q138.149 1393 135.07 1397.61 Q132.015 1402.19 126.205 1402.19 Q120.394 1402.19 117.316 1397.61 Q114.26 1393 114.26 1384.27 Q114.26 1375.52 117.316 1370.94 Q120.394 1366.33 126.205 1366.33 Z" fill="#000000" fill-rule="evenodd" fill-opacity="1" /><path clip-path="url(#clip620)" d="M146.366 1395.64 L151.251 1395.64 L151.251 1401.52 L146.366 1401.52 L146.366 1395.64 Z" fill="#000000" fill-rule="evenodd" fill-opacity="1" /><path clip-path="url(#clip620)" d="M171.436 1370.04 Q167.825 1370.04 165.996 1373.6 Q164.19 1377.14 164.19 1384.27 Q164.19 1391.38 165.996 1394.94 Q167.825 1398.49 171.436 1398.49 Q175.07 1398.49 176.876 1394.94 Q178.704 1391.38 178.704 1384.27 Q178.704 1377.14 176.876 1373.6 Q175.07 1370.04 171.436 1370.04 M171.436 1366.33 Q177.246 1366.33 180.301 1370.94 Q183.38 1375.52 183.38 1384.27 Q183.38 1393 180.301 1397.61 Q177.246 1402.19 171.436 1402.19 Q165.626 1402.19 162.547 1397.61 Q159.491 1393 159.491 1384.27 Q159.491 1375.52 162.547 1370.94 Q165.626 1366.33 171.436 1366.33 Z" fill="#000000" fill-rule="evenodd" fill-opacity="1" /><path clip-path="url(#clip620)" d="M127.2 957.565 Q123.589 957.565 121.76 961.13 Q119.955 964.672 119.955 971.801 Q119.955 978.908 121.76 982.473 Q123.589 986.014 127.2 986.014 Q130.834 986.014 132.64 982.473 Q134.468 978.908 134.468 971.801 Q134.468 964.672 132.64 961.13 Q130.834 957.565 127.2 957.565 M127.2 953.862 Q133.01 953.862 136.066 958.468 Q139.144 963.051 139.144 971.801 Q139.144 980.528 136.066 985.135 Q133.01 989.718 127.2 989.718 Q121.39 989.718 118.311 985.135 Q115.256 980.528 115.256 971.801 Q115.256 963.051 118.311 958.468 Q121.39 953.862 127.2 953.862 Z" fill="#000000" fill-rule="evenodd" fill-opacity="1" /><path clip-path="url(#clip620)" d="M147.362 983.167 L152.246 983.167 L152.246 989.047 L147.362 989.047 L147.362 983.167 Z" fill="#000000" fill-rule="evenodd" fill-opacity="1" /><path clip-path="url(#clip620)" d="M162.477 954.487 L180.834 954.487 L180.834 958.422 L166.76 958.422 L166.76 966.894 Q167.778 966.547 168.797 966.385 Q169.815 966.199 170.834 966.199 Q176.621 966.199 180.001 969.371 Q183.38 972.542 183.38 977.959 Q183.38 983.537 179.908 986.639 Q176.436 989.718 170.116 989.718 Q167.94 989.718 165.672 989.347 Q163.427 988.977 161.019 988.236 L161.019 983.537 Q163.102 984.672 165.325 985.227 Q167.547 985.783 170.024 985.783 Q174.028 985.783 176.366 983.676 Q178.704 981.57 178.704 977.959 Q178.704 974.348 176.366 972.241 Q174.028 970.135 170.024 970.135 Q168.149 970.135 166.274 970.551 Q164.422 970.968 162.477 971.848 L162.477 954.487 Z" fill="#000000" fill-rule="evenodd" fill-opacity="1" /><path clip-path="url(#clip620)" d="M117.015 572.64 L124.654 572.64 L124.654 546.274 L116.343 547.941 L116.343 543.682 L124.607 542.015 L129.283 542.015 L129.283 572.64 L136.922 572.64 L136.922 576.575 L117.015 576.575 L117.015 572.64 Z" fill="#000000" fill-rule="evenodd" fill-opacity="1" /><path clip-path="url(#clip620)" d="M146.366 570.695 L151.251 570.695 L151.251 576.575 L146.366 576.575 L146.366 570.695 Z" fill="#000000" fill-rule="evenodd" fill-opacity="1" /><path clip-path="url(#clip620)" d="M171.436 545.094 Q167.825 545.094 165.996 548.658 Q164.19 552.2 164.19 559.33 Q164.19 566.436 165.996 570.001 Q167.825 573.542 171.436 573.542 Q175.07 573.542 176.876 570.001 Q178.704 566.436 178.704 559.33 Q178.704 552.2 176.876 548.658 Q175.07 545.094 171.436 545.094 M171.436 541.39 Q177.246 541.39 180.301 545.996 Q183.38 550.58 183.38 559.33 Q183.38 568.056 180.301 572.663 Q177.246 577.246 171.436 577.246 Q165.626 577.246 162.547 572.663 Q159.491 568.056 159.491 559.33 Q159.491 550.58 162.547 545.996 Q165.626 541.39 171.436 541.39 Z" fill="#000000" fill-rule="evenodd" fill-opacity="1" /><path clip-path="url(#clip620)" d="M118.01 160.168 L125.649 160.168 L125.649 133.802 L117.339 135.469 L117.339 131.21 L125.603 129.543 L130.279 129.543 L130.279 160.168 L137.917 160.168 L137.917 164.103 L118.01 164.103 L118.01 160.168 Z" fill="#000000" fill-rule="evenodd" fill-opacity="1" /><path clip-path="url(#clip620)" d="M147.362 158.224 L152.246 158.224 L152.246 164.103 L147.362 164.103 L147.362 158.224 Z" fill="#000000" fill-rule="evenodd" fill-opacity="1" /><path clip-path="url(#clip620)" d="M162.477 129.543 L180.834 129.543 L180.834 133.478 L166.76 133.478 L166.76 141.95 Q167.778 141.603 168.797 141.441 Q169.815 141.256 170.834 141.256 Q176.621 141.256 180.001 144.427 Q183.38 147.599 183.38 153.015 Q183.38 158.594 179.908 161.696 Q176.436 164.774 170.116 164.774 Q167.94 164.774 165.672 164.404 Q163.427 164.034 161.019 163.293 L161.019 158.594 Q163.102 159.728 165.325 160.284 Q167.547 160.839 170.024 160.839 Q174.028 160.839 176.366 158.733 Q178.704 156.626 178.704 153.015 Q178.704 149.404 176.366 147.298 Q174.028 145.191 170.024 145.191 Q168.149 145.191 166.274 145.608 Q164.422 146.025 162.477 146.904 L162.477 129.543 Z" fill="#000000" fill-rule="evenodd" fill-opacity="1" /><path clip-path="url(#clip620)" d="M16.4842 991.511 L16.4842 964.202 L21.895 964.202 L21.895 985.082 L35.8996 985.082 L35.8996 966.239 L41.3104 966.239 L41.3104 985.082 L64.0042 985.082 L64.0042 991.511 L16.4842 991.511 Z" fill="#000000" fill-rule="evenodd" fill-opacity="1" /><path clip-path="url(#clip620)" d="M14.479 954.272 L14.479 948.415 L64.0042 948.415 L64.0042 954.272 L14.479 954.272 Z" fill="#000000" fill-rule="evenodd" fill-opacity="1" /><path clip-path="url(#clip620)" d="M49.9359 936.766 L28.3562 936.766 L28.3562 930.91 L49.7131 930.91 Q54.7739 930.91 57.3202 928.936 Q59.8346 926.963 59.8346 923.016 Q59.8346 918.274 56.8109 915.537 Q53.7872 912.767 48.5673 912.767 L28.3562 912.767 L28.3562 906.911 L64.0042 906.911 L64.0042 912.767 L58.5296 912.767 Q61.7762 914.9 63.3676 917.733 Q64.9272 920.534 64.9272 924.258 Q64.9272 930.4 61.1078 933.583 Q57.2883 936.766 49.9359 936.766 M27.4968 922.03 L27.4968 922.03 Z" fill="#000000" fill-rule="evenodd" fill-opacity="1" /><path clip-path="url(#clip620)" d="M28.3562 865.216 L45.7028 878.106 L64.0042 864.547 L64.0042 871.454 L49.9996 881.83 L64.0042 892.206 L64.0042 899.113 L45.3526 885.268 L28.3562 897.935 L28.3562 891.029 L41.0558 881.575 L28.3562 872.122 L28.3562 865.216 Z" fill="#000000" fill-rule="evenodd" fill-opacity="1" /><path clip-path="url(#clip620)" d="M33.7671 812.094 L14.479 812.094 L14.479 806.237 L64.0042 806.237 L64.0042 812.094 L58.657 812.094 Q61.8398 813.94 63.3994 816.773 Q64.9272 819.573 64.9272 823.52 Q64.9272 829.981 59.771 834.055 Q54.6147 838.098 46.212 838.098 Q37.8093 838.098 32.6531 834.055 Q27.4968 829.981 27.4968 823.52 Q27.4968 819.573 29.0564 816.773 Q30.5842 813.94 33.7671 812.094 M46.212 832.05 Q52.6732 832.05 56.3653 829.409 Q60.0256 826.735 60.0256 822.088 Q60.0256 817.441 56.3653 814.767 Q52.6732 812.094 46.212 812.094 Q39.7508 812.094 36.0905 814.767 Q32.3984 817.441 32.3984 822.088 Q32.3984 826.735 36.0905 829.409 Q39.7508 832.05 46.212 832.05 Z" fill="#000000" fill-rule="evenodd" fill-opacity="1" /><path clip-path="url(#clip620)" d="M44.7161 763.683 L47.5806 763.683 L47.5806 790.61 Q53.6281 790.228 56.8109 786.981 Q59.9619 783.703 59.9619 777.878 Q59.9619 774.504 59.1344 771.353 Q58.3069 768.17 56.6518 765.051 L62.1899 765.051 Q63.5267 768.202 64.227 771.512 Q64.9272 774.823 64.9272 778.228 Q64.9272 786.758 59.9619 791.755 Q54.9967 796.721 46.5303 796.721 Q37.7774 796.721 32.6531 792.01 Q27.4968 787.268 27.4968 779.247 Q27.4968 772.053 32.1438 767.884 Q36.7589 763.683 44.7161 763.683 M42.9973 769.539 Q38.1912 769.603 35.3266 772.244 Q32.4621 774.854 32.4621 779.183 Q32.4621 784.085 35.2312 787.045 Q38.0002 789.973 43.0292 790.419 L42.9973 769.539 Z" fill="#000000" fill-rule="evenodd" fill-opacity="1" /><path clip-path="url(#clip620)" d="M42.4881 724.438 L64.0042 724.438 L64.0042 730.294 L42.679 730.294 Q37.6183 730.294 35.1038 732.268 Q32.5894 734.241 32.5894 738.188 Q32.5894 742.93 35.6131 745.668 Q38.6368 748.405 43.8567 748.405 L64.0042 748.405 L64.0042 754.293 L28.3562 754.293 L28.3562 748.405 L33.8944 748.405 Q30.6797 746.304 29.0883 743.471 Q27.4968 740.607 27.4968 736.883 Q27.4968 730.74 31.3163 727.589 Q35.1038 724.438 42.4881 724.438 Z" fill="#000000" fill-rule="evenodd" fill-opacity="1" /><path clip-path="url(#clip620)" d="M29.4065 690.031 L34.9447 690.031 Q33.6716 692.514 33.035 695.188 Q32.3984 697.861 32.3984 700.726 Q32.3984 705.086 33.7352 707.282 Q35.072 709.447 37.7456 709.447 Q39.7826 709.447 40.9603 707.887 Q42.1061 706.328 43.1565 701.617 L43.6021 699.612 Q44.9389 693.373 47.3897 690.763 Q49.8086 688.122 54.1691 688.122 Q59.1344 688.122 62.0308 692.068 Q64.9272 695.983 64.9272 702.858 Q64.9272 705.723 64.3543 708.842 Q63.8132 711.929 62.6992 715.367 L56.6518 715.367 Q58.3387 712.12 59.198 708.969 Q60.0256 705.818 60.0256 702.731 Q60.0256 698.593 58.6251 696.365 Q57.1929 694.137 54.6147 694.137 Q52.2276 694.137 50.9545 695.761 Q49.6813 697.352 48.5037 702.795 L48.0262 704.832 Q46.8804 710.274 44.5251 712.693 Q42.138 715.112 38.0002 715.112 Q32.9713 715.112 30.2341 711.547 Q27.4968 707.983 27.4968 701.426 Q27.4968 698.179 27.9743 695.315 Q28.4517 692.45 29.4065 690.031 Z" fill="#000000" fill-rule="evenodd" fill-opacity="1" /><path clip-path="url(#clip620)" d="M28.3562 678.796 L28.3562 672.939 L64.0042 672.939 L64.0042 678.796 L28.3562 678.796 M14.479 678.796 L14.479 672.939 L21.895 672.939 L21.895 678.796 L14.479 678.796 Z" fill="#000000" fill-rule="evenodd" fill-opacity="1" /><path clip-path="url(#clip620)" d="M18.2347 654.893 L28.3562 654.893 L28.3562 642.83 L32.9077 642.83 L32.9077 654.893 L52.2594 654.893 Q56.6199 654.893 57.8613 653.715 Q59.1026 652.506 59.1026 648.845 L59.1026 642.83 L64.0042 642.83 L64.0042 648.845 Q64.0042 655.625 61.4897 658.203 Q58.9434 660.781 52.2594 660.781 L32.9077 660.781 L32.9077 665.078 L28.3562 665.078 L28.3562 660.781 L18.2347 660.781 L18.2347 654.893 Z" fill="#000000" fill-rule="evenodd" fill-opacity="1" /><path clip-path="url(#clip620)" d="M67.3143 620.295 Q73.68 622.778 75.6216 625.133 Q77.5631 627.488 77.5631 631.435 L77.5631 636.114 L72.6615 636.114 L72.6615 632.676 Q72.6615 630.257 71.5157 628.921 Q70.3699 627.584 66.1048 625.961 L63.4312 624.91 L28.3562 639.329 L28.3562 633.122 L56.238 621.982 L28.3562 610.842 L28.3562 604.635 L67.3143 620.295 Z" fill="#000000" fill-rule="evenodd" fill-opacity="1" /><path clip-path="url(#clip620)" d="M14.479 576.372 L14.479 562.876 L19.0304 562.876 L19.0304 570.515 L68.0464 570.515 L68.0464 562.876 L72.5979 562.876 L72.5979 576.372 L14.479 576.372 Z" fill="#000000" fill-rule="evenodd" fill-opacity="1" /><path clip-path="url(#clip620)" d="M16.4842 550.145 L16.4842 543.716 L60.694 543.716 Q69.2877 543.716 73.1708 546.994 Q77.0539 550.24 77.0539 557.466 L77.0539 559.916 L71.643 559.916 L71.643 557.911 Q71.643 553.646 69.2559 551.896 Q66.8687 550.145 60.694 550.145 L16.4842 550.145 Z" fill="#000000" fill-rule="evenodd" fill-opacity="1" /><path clip-path="url(#clip620)" d="M67.3143 516.343 Q73.68 518.826 75.6216 521.181 Q77.5631 523.536 77.5631 527.483 L77.5631 532.162 L72.6615 532.162 L72.6615 528.724 Q72.6615 526.305 71.5157 524.969 Q70.3699 523.632 66.1048 522.009 L63.4312 520.958 L28.3562 535.377 L28.3562 529.17 L56.238 518.03 L28.3562 506.89 L28.3562 500.683 L67.3143 516.343 Z" fill="#000000" fill-rule="evenodd" fill-opacity="1" /><path clip-path="url(#clip620)" d="M14.479 478.913 L72.5979 478.913 L72.5979 492.408 L68.0464 492.408 L68.0464 484.801 L19.0304 484.801 L19.0304 492.408 L14.479 492.408 L14.479 478.913 Z" fill="#000000" fill-rule="evenodd" fill-opacity="1" /><circle clip-path="url(#clip622)" cx="240.714" cy="974.75" r="7" fill="#009af9" fill-rule="evenodd" fill-opacity="1" stroke="#000000" stroke-opacity="1" stroke-width="3.2"/>
<circle clip-path="url(#clip622)" cx="262.048" cy="975.863" r="7" fill="#009af9" fill-rule="evenodd" fill-opacity="1" stroke="#000000" stroke-opacity="1" stroke-width="3.2"/>
<circle clip-path="url(#clip622)" cx="283.381" cy="980.318" r="7" fill="#009af9" fill-rule="evenodd" fill-opacity="1" stroke="#000000" stroke-opacity="1" stroke-width="3.2"/>
<circle clip-path="url(#clip622)" cx="304.715" cy="984.943" r="7" fill="#009af9" fill-rule="evenodd" fill-opacity="1" stroke="#000000" stroke-opacity="1" stroke-width="3.2"/>
<circle clip-path="url(#clip622)" cx="326.049" cy="981.727" r="7" fill="#009af9" fill-rule="evenodd" fill-opacity="1" stroke="#000000" stroke-opacity="1" stroke-width="3.2"/>
<circle clip-path="url(#clip622)" cx="347.383" cy="972.265" r="7" fill="#009af9" fill-rule="evenodd" fill-opacity="1" stroke="#000000" stroke-opacity="1" stroke-width="3.2"/>
<circle clip-path="url(#clip622)" cx="368.716" cy="973.162" r="7" fill="#009af9" fill-rule="evenodd" fill-opacity="1" stroke="#000000" stroke-opacity="1" stroke-width="3.2"/>
<circle clip-path="url(#clip622)" cx="390.05" cy="977.2" r="7" fill="#009af9" fill-rule="evenodd" fill-opacity="1" stroke="#000000" stroke-opacity="1" stroke-width="3.2"/>
<circle clip-path="url(#clip622)" cx="411.384" cy="994.012" r="7" fill="#009af9" fill-rule="evenodd" fill-opacity="1" stroke="#000000" stroke-opacity="1" stroke-width="3.2"/>
<circle clip-path="url(#clip622)" cx="432.718" cy="982.349" r="7" fill="#009af9" fill-rule="evenodd" fill-opacity="1" stroke="#000000" stroke-opacity="1" stroke-width="3.2"/>
<circle clip-path="url(#clip622)" cx="454.051" cy="978.733" r="7" fill="#009af9" fill-rule="evenodd" fill-opacity="1" stroke="#000000" stroke-opacity="1" stroke-width="3.2"/>
<circle clip-path="url(#clip622)" cx="475.385" cy="979.604" r="7" fill="#009af9" fill-rule="evenodd" fill-opacity="1" stroke="#000000" stroke-opacity="1" stroke-width="3.2"/>
<circle clip-path="url(#clip622)" cx="496.719" cy="981.17" r="7" fill="#009af9" fill-rule="evenodd" fill-opacity="1" stroke="#000000" stroke-opacity="1" stroke-width="3.2"/>
<circle clip-path="url(#clip622)" cx="518.053" cy="976.955" r="7" fill="#009af9" fill-rule="evenodd" fill-opacity="1" stroke="#000000" stroke-opacity="1" stroke-width="3.2"/>
<circle clip-path="url(#clip622)" cx="539.387" cy="977.671" r="7" fill="#009af9" fill-rule="evenodd" fill-opacity="1" stroke="#000000" stroke-opacity="1" stroke-width="3.2"/>
<circle clip-path="url(#clip622)" cx="560.72" cy="978.087" r="7" fill="#009af9" fill-rule="evenodd" fill-opacity="1" stroke="#000000" stroke-opacity="1" stroke-width="3.2"/>
<circle clip-path="url(#clip622)" cx="582.054" cy="986.341" r="7" fill="#009af9" fill-rule="evenodd" fill-opacity="1" stroke="#000000" stroke-opacity="1" stroke-width="3.2"/>
<circle clip-path="url(#clip622)" cx="603.388" cy="990.862" r="7" fill="#009af9" fill-rule="evenodd" fill-opacity="1" stroke="#000000" stroke-opacity="1" stroke-width="3.2"/>
<circle clip-path="url(#clip622)" cx="624.722" cy="985.37" r="7" fill="#009af9" fill-rule="evenodd" fill-opacity="1" stroke="#000000" stroke-opacity="1" stroke-width="3.2"/>
<circle clip-path="url(#clip622)" cx="646.055" cy="988.479" r="7" fill="#009af9" fill-rule="evenodd" fill-opacity="1" stroke="#000000" stroke-opacity="1" stroke-width="3.2"/>
<circle clip-path="url(#clip622)" cx="667.389" cy="988.673" r="7" fill="#009af9" fill-rule="evenodd" fill-opacity="1" stroke="#000000" stroke-opacity="1" stroke-width="3.2"/>
<circle clip-path="url(#clip622)" cx="688.723" cy="978.395" r="7" fill="#009af9" fill-rule="evenodd" fill-opacity="1" stroke="#000000" stroke-opacity="1" stroke-width="3.2"/>
<circle clip-path="url(#clip622)" cx="710.057" cy="976.371" r="7" fill="#009af9" fill-rule="evenodd" fill-opacity="1" stroke="#000000" stroke-opacity="1" stroke-width="3.2"/>
<circle clip-path="url(#clip622)" cx="731.39" cy="984.026" r="7" fill="#009af9" fill-rule="evenodd" fill-opacity="1" stroke="#000000" stroke-opacity="1" stroke-width="3.2"/>
<circle clip-path="url(#clip622)" cx="752.724" cy="984.7" r="7" fill="#009af9" fill-rule="evenodd" fill-opacity="1" stroke="#000000" stroke-opacity="1" stroke-width="3.2"/>
<circle clip-path="url(#clip622)" cx="774.058" cy="982.484" r="7" fill="#009af9" fill-rule="evenodd" fill-opacity="1" stroke="#000000" stroke-opacity="1" stroke-width="3.2"/>
<circle clip-path="url(#clip622)" cx="795.392" cy="985.621" r="7" fill="#009af9" fill-rule="evenodd" fill-opacity="1" stroke="#000000" stroke-opacity="1" stroke-width="3.2"/>
<circle clip-path="url(#clip622)" cx="816.725" cy="987.697" r="7" fill="#009af9" fill-rule="evenodd" fill-opacity="1" stroke="#000000" stroke-opacity="1" stroke-width="3.2"/>
<circle clip-path="url(#clip622)" cx="838.059" cy="985.319" r="7" fill="#009af9" fill-rule="evenodd" fill-opacity="1" stroke="#000000" stroke-opacity="1" stroke-width="3.2"/>
<circle clip-path="url(#clip622)" cx="859.393" cy="991.004" r="7" fill="#009af9" fill-rule="evenodd" fill-opacity="1" stroke="#000000" stroke-opacity="1" stroke-width="3.2"/>
<circle clip-path="url(#clip622)" cx="880.727" cy="992.773" r="7" fill="#009af9" fill-rule="evenodd" fill-opacity="1" stroke="#000000" stroke-opacity="1" stroke-width="3.2"/>
<circle clip-path="url(#clip622)" cx="902.06" cy="993.543" r="7" fill="#009af9" fill-rule="evenodd" fill-opacity="1" stroke="#000000" stroke-opacity="1" stroke-width="3.2"/>
<circle clip-path="url(#clip622)" cx="923.394" cy="990.658" r="7" fill="#009af9" fill-rule="evenodd" fill-opacity="1" stroke="#000000" stroke-opacity="1" stroke-width="3.2"/>
<circle clip-path="url(#clip622)" cx="944.728" cy="995.361" r="7" fill="#009af9" fill-rule="evenodd" fill-opacity="1" stroke="#000000" stroke-opacity="1" stroke-width="3.2"/>
<circle clip-path="url(#clip622)" cx="966.062" cy="995.899" r="7" fill="#009af9" fill-rule="evenodd" fill-opacity="1" stroke="#000000" stroke-opacity="1" stroke-width="3.2"/>
<circle clip-path="url(#clip622)" cx="987.395" cy="999.661" r="7" fill="#009af9" fill-rule="evenodd" fill-opacity="1" stroke="#000000" stroke-opacity="1" stroke-width="3.2"/>
<circle clip-path="url(#clip622)" cx="1008.73" cy="999.057" r="7" fill="#009af9" fill-rule="evenodd" fill-opacity="1" stroke="#000000" stroke-opacity="1" stroke-width="3.2"/>
<circle clip-path="url(#clip622)" cx="1030.06" cy="993.901" r="7" fill="#009af9" fill-rule="evenodd" fill-opacity="1" stroke="#000000" stroke-opacity="1" stroke-width="3.2"/>
<circle clip-path="url(#clip622)" cx="1051.4" cy="997.467" r="7" fill="#009af9" fill-rule="evenodd" fill-opacity="1" stroke="#000000" stroke-opacity="1" stroke-width="3.2"/>
<circle clip-path="url(#clip622)" cx="1072.73" cy="997.336" r="7" fill="#009af9" fill-rule="evenodd" fill-opacity="1" stroke="#000000" stroke-opacity="1" stroke-width="3.2"/>
<circle clip-path="url(#clip622)" cx="1094.06" cy="992.487" r="7" fill="#009af9" fill-rule="evenodd" fill-opacity="1" stroke="#000000" stroke-opacity="1" stroke-width="3.2"/>
<circle clip-path="url(#clip622)" cx="1115.4" cy="1000.88" r="7" fill="#009af9" fill-rule="evenodd" fill-opacity="1" stroke="#000000" stroke-opacity="1" stroke-width="3.2"/>
<circle clip-path="url(#clip622)" cx="1136.73" cy="1000.72" r="7" fill="#009af9" fill-rule="evenodd" fill-opacity="1" stroke="#000000" stroke-opacity="1" stroke-width="3.2"/>
<circle clip-path="url(#clip622)" cx="1158.07" cy="1000.71" r="7" fill="#009af9" fill-rule="evenodd" fill-opacity="1" stroke="#000000" stroke-opacity="1" stroke-width="3.2"/>
<circle clip-path="url(#clip622)" cx="1179.4" cy="996.941" r="7" fill="#009af9" fill-rule="evenodd" fill-opacity="1" stroke="#000000" stroke-opacity="1" stroke-width="3.2"/>
<circle clip-path="url(#clip622)" cx="1200.73" cy="995.89" r="7" fill="#009af9" fill-rule="evenodd" fill-opacity="1" stroke="#000000" stroke-opacity="1" stroke-width="3.2"/>
<circle clip-path="url(#clip622)" cx="1222.07" cy="996.874" r="7" fill="#009af9" fill-rule="evenodd" fill-opacity="1" stroke="#000000" stroke-opacity="1" stroke-width="3.2"/>
<circle clip-path="url(#clip622)" cx="1243.4" cy="996.782" r="7" fill="#009af9" fill-rule="evenodd" fill-opacity="1" stroke="#000000" stroke-opacity="1" stroke-width="3.2"/>
<circle clip-path="url(#clip622)" cx="1264.73" cy="1005.43" r="7" fill="#009af9" fill-rule="evenodd" fill-opacity="1" stroke="#000000" stroke-opacity="1" stroke-width="3.2"/>
<circle clip-path="url(#clip622)" cx="1286.07" cy="1004.91" r="7" fill="#009af9" fill-rule="evenodd" fill-opacity="1" stroke="#000000" stroke-opacity="1" stroke-width="3.2"/>
<circle clip-path="url(#clip622)" cx="1307.4" cy="1002.62" r="7" fill="#009af9" fill-rule="evenodd" fill-opacity="1" stroke="#000000" stroke-opacity="1" stroke-width="3.2"/>
<circle clip-path="url(#clip622)" cx="1328.74" cy="1003.14" r="7" fill="#009af9" fill-rule="evenodd" fill-opacity="1" stroke="#000000" stroke-opacity="1" stroke-width="3.2"/>
<circle clip-path="url(#clip622)" cx="1350.07" cy="998.613" r="7" fill="#009af9" fill-rule="evenodd" fill-opacity="1" stroke="#000000" stroke-opacity="1" stroke-width="3.2"/>
<circle clip-path="url(#clip622)" cx="1371.4" cy="1000.46" r="7" fill="#009af9" fill-rule="evenodd" fill-opacity="1" stroke="#000000" stroke-opacity="1" stroke-width="3.2"/>
<circle clip-path="url(#clip622)" cx="1392.74" cy="1003.55" r="7" fill="#009af9" fill-rule="evenodd" fill-opacity="1" stroke="#000000" stroke-opacity="1" stroke-width="3.2"/>
<circle clip-path="url(#clip622)" cx="1414.07" cy="996.139" r="7" fill="#009af9" fill-rule="evenodd" fill-opacity="1" stroke="#000000" stroke-opacity="1" stroke-width="3.2"/>
<circle clip-path="url(#clip622)" cx="1435.4" cy="995.122" r="7" fill="#009af9" fill-rule="evenodd" fill-opacity="1" stroke="#000000" stroke-opacity="1" stroke-width="3.2"/>
<circle clip-path="url(#clip622)" cx="1456.74" cy="995.362" r="7" fill="#009af9" fill-rule="evenodd" fill-opacity="1" stroke="#000000" stroke-opacity="1" stroke-width="3.2"/>
<circle clip-path="url(#clip622)" cx="1478.07" cy="999.628" r="7" fill="#009af9" fill-rule="evenodd" fill-opacity="1" stroke="#000000" stroke-opacity="1" stroke-width="3.2"/>
<circle clip-path="url(#clip622)" cx="1499.41" cy="1009.95" r="7" fill="#009af9" fill-rule="evenodd" fill-opacity="1" stroke="#000000" stroke-opacity="1" stroke-width="3.2"/>
<circle clip-path="url(#clip622)" cx="1520.74" cy="1007.48" r="7" fill="#009af9" fill-rule="evenodd" fill-opacity="1" stroke="#000000" stroke-opacity="1" stroke-width="3.2"/>
<circle clip-path="url(#clip622)" cx="1542.07" cy="997.487" r="7" fill="#009af9" fill-rule="evenodd" fill-opacity="1" stroke="#000000" stroke-opacity="1" stroke-width="3.2"/>
<circle clip-path="url(#clip622)" cx="1563.41" cy="1004.28" r="7" fill="#009af9" fill-rule="evenodd" fill-opacity="1" stroke="#000000" stroke-opacity="1" stroke-width="3.2"/>
<circle clip-path="url(#clip622)" cx="1584.74" cy="1006.01" r="7" fill="#009af9" fill-rule="evenodd" fill-opacity="1" stroke="#000000" stroke-opacity="1" stroke-width="3.2"/>
<circle clip-path="url(#clip622)" cx="1606.07" cy="1000.84" r="7" fill="#009af9" fill-rule="evenodd" fill-opacity="1" stroke="#000000" stroke-opacity="1" stroke-width="3.2"/>
<circle clip-path="url(#clip622)" cx="1627.41" cy="1001.53" r="7" fill="#009af9" fill-rule="evenodd" fill-opacity="1" stroke="#000000" stroke-opacity="1" stroke-width="3.2"/>
<circle clip-path="url(#clip622)" cx="1648.74" cy="1001.92" r="7" fill="#009af9" fill-rule="evenodd" fill-opacity="1" stroke="#000000" stroke-opacity="1" stroke-width="3.2"/>
<circle clip-path="url(#clip622)" cx="1670.08" cy="1004.66" r="7" fill="#009af9" fill-rule="evenodd" fill-opacity="1" stroke="#000000" stroke-opacity="1" stroke-width="3.2"/>
<circle clip-path="url(#clip622)" cx="1691.41" cy="1009.25" r="7" fill="#009af9" fill-rule="evenodd" fill-opacity="1" stroke="#000000" stroke-opacity="1" stroke-width="3.2"/>
<circle clip-path="url(#clip622)" cx="1712.74" cy="1009.09" r="7" fill="#009af9" fill-rule="evenodd" fill-opacity="1" stroke="#000000" stroke-opacity="1" stroke-width="3.2"/>
<circle clip-path="url(#clip622)" cx="1734.08" cy="1005.3" r="7" fill="#009af9" fill-rule="evenodd" fill-opacity="1" stroke="#000000" stroke-opacity="1" stroke-width="3.2"/>
<circle clip-path="url(#clip622)" cx="1755.41" cy="1008.04" r="7" fill="#009af9" fill-rule="evenodd" fill-opacity="1" stroke="#000000" stroke-opacity="1" stroke-width="3.2"/>
<circle clip-path="url(#clip622)" cx="1776.74" cy="1012.28" r="7" fill="#009af9" fill-rule="evenodd" fill-opacity="1" stroke="#000000" stroke-opacity="1" stroke-width="3.2"/>
<circle clip-path="url(#clip622)" cx="1798.08" cy="1012.02" r="7" fill="#009af9" fill-rule="evenodd" fill-opacity="1" stroke="#000000" stroke-opacity="1" stroke-width="3.2"/>
<circle clip-path="url(#clip622)" cx="1819.41" cy="1007.07" r="7" fill="#009af9" fill-rule="evenodd" fill-opacity="1" stroke="#000000" stroke-opacity="1" stroke-width="3.2"/>
<circle clip-path="url(#clip622)" cx="1840.75" cy="1007.88" r="7" fill="#009af9" fill-rule="evenodd" fill-opacity="1" stroke="#000000" stroke-opacity="1" stroke-width="3.2"/>
<circle clip-path="url(#clip622)" cx="1862.08" cy="1008.2" r="7" fill="#009af9" fill-rule="evenodd" fill-opacity="1" stroke="#000000" stroke-opacity="1" stroke-width="3.2"/>
<circle clip-path="url(#clip622)" cx="1883.41" cy="1011.14" r="7" fill="#009af9" fill-rule="evenodd" fill-opacity="1" stroke="#000000" stroke-opacity="1" stroke-width="3.2"/>
<circle clip-path="url(#clip622)" cx="1904.75" cy="1008.74" r="7" fill="#009af9" fill-rule="evenodd" fill-opacity="1" stroke="#000000" stroke-opacity="1" stroke-width="3.2"/>
<circle clip-path="url(#clip622)" cx="1926.08" cy="1013.49" r="7" fill="#009af9" fill-rule="evenodd" fill-opacity="1" stroke="#000000" stroke-opacity="1" stroke-width="3.2"/>
<circle clip-path="url(#clip622)" cx="1947.41" cy="1011.67" r="7" fill="#009af9" fill-rule="evenodd" fill-opacity="1" stroke="#000000" stroke-opacity="1" stroke-width="3.2"/>
<circle clip-path="url(#clip622)" cx="1968.75" cy="1004.13" r="7" fill="#009af9" fill-rule="evenodd" fill-opacity="1" stroke="#000000" stroke-opacity="1" stroke-width="3.2"/>
<circle clip-path="url(#clip622)" cx="1990.08" cy="1000.26" r="7" fill="#009af9" fill-rule="evenodd" fill-opacity="1" stroke="#000000" stroke-opacity="1" stroke-width="3.2"/>
<circle clip-path="url(#clip622)" cx="2011.42" cy="1005.55" r="7" fill="#009af9" fill-rule="evenodd" fill-opacity="1" stroke="#000000" stroke-opacity="1" stroke-width="3.2"/>
<circle clip-path="url(#clip622)" cx="2032.75" cy="1002.86" r="7" fill="#009af9" fill-rule="evenodd" fill-opacity="1" stroke="#000000" stroke-opacity="1" stroke-width="3.2"/>
<circle clip-path="url(#clip622)" cx="2054.08" cy="1001.62" r="7" fill="#009af9" fill-rule="evenodd" fill-opacity="1" stroke="#000000" stroke-opacity="1" stroke-width="3.2"/>
<circle clip-path="url(#clip622)" cx="2075.42" cy="1013.31" r="7" fill="#009af9" fill-rule="evenodd" fill-opacity="1" stroke="#000000" stroke-opacity="1" stroke-width="3.2"/>
<circle clip-path="url(#clip622)" cx="2096.75" cy="1009.28" r="7" fill="#009af9" fill-rule="evenodd" fill-opacity="1" stroke="#000000" stroke-opacity="1" stroke-width="3.2"/>
<circle clip-path="url(#clip622)" cx="2118.08" cy="1003.6" r="7" fill="#009af9" fill-rule="evenodd" fill-opacity="1" stroke="#000000" stroke-opacity="1" stroke-width="3.2"/>
<circle clip-path="url(#clip622)" cx="2139.42" cy="1009.92" r="7" fill="#009af9" fill-rule="evenodd" fill-opacity="1" stroke="#000000" stroke-opacity="1" stroke-width="3.2"/>
<circle clip-path="url(#clip622)" cx="2160.75" cy="1003.36" r="7" fill="#009af9" fill-rule="evenodd" fill-opacity="1" stroke="#000000" stroke-opacity="1" stroke-width="3.2"/>
<circle clip-path="url(#clip622)" cx="2182.09" cy="1000.48" r="7" fill="#009af9" fill-rule="evenodd" fill-opacity="1" stroke="#000000" stroke-opacity="1" stroke-width="3.2"/>
<circle clip-path="url(#clip622)" cx="2203.42" cy="1004.41" r="7" fill="#009af9" fill-rule="evenodd" fill-opacity="1" stroke="#000000" stroke-opacity="1" stroke-width="3.2"/>
<circle clip-path="url(#clip622)" cx="2224.75" cy="1007.3" r="7" fill="#009af9" fill-rule="evenodd" fill-opacity="1" stroke="#000000" stroke-opacity="1" stroke-width="3.2"/>
<circle clip-path="url(#clip622)" cx="2246.09" cy="1010.28" r="7" fill="#009af9" fill-rule="evenodd" fill-opacity="1" stroke="#000000" stroke-opacity="1" stroke-width="3.2"/>
<circle clip-path="url(#clip622)" cx="2267.42" cy="1012.17" r="7" fill="#009af9" fill-rule="evenodd" fill-opacity="1" stroke="#000000" stroke-opacity="1" stroke-width="3.2"/>
<circle clip-path="url(#clip622)" cx="2288.75" cy="1013.45" r="7" fill="#009af9" fill-rule="evenodd" fill-opacity="1" stroke="#000000" stroke-opacity="1" stroke-width="3.2"/>
<circle clip-path="url(#clip622)" cx="2310.09" cy="1012.75" r="7" fill="#009af9" fill-rule="evenodd" fill-opacity="1" stroke="#000000" stroke-opacity="1" stroke-width="3.2"/>
<circle clip-path="url(#clip622)" cx="2331.42" cy="1011.98" r="7" fill="#009af9" fill-rule="evenodd" fill-opacity="1" stroke="#000000" stroke-opacity="1" stroke-width="3.2"/>
<circle clip-path="url(#clip622)" cx="390.05" cy="1145" r="28" fill="#e26f46" fill-rule="evenodd" fill-opacity="1" stroke="#000000" stroke-opacity="1" stroke-width="3.2"/>
<circle clip-path="url(#clip622)" cx="1072.73" cy="947.018" r="28" fill="#e26f46" fill-rule="evenodd" fill-opacity="1" stroke="#000000" stroke-opacity="1" stroke-width="3.2"/>
<circle clip-path="url(#clip622)" cx="1755.41" cy="798.528" r="28" fill="#e26f46" fill-rule="evenodd" fill-opacity="1" stroke="#000000" stroke-opacity="1" stroke-width="3.2"/>
<circle clip-path="url(#clip622)" cx="240.714" cy="1177.49" r="7" fill="#3da44d" fill-rule="evenodd" fill-opacity="1" stroke="#000000" stroke-opacity="1" stroke-width="3.2"/>
<circle clip-path="url(#clip622)" cx="262.048" cy="1172.85" r="7" fill="#3da44d" fill-rule="evenodd" fill-opacity="1" stroke="#000000" stroke-opacity="1" stroke-width="3.2"/>
<circle clip-path="url(#clip622)" cx="283.381" cy="1168.21" r="7" fill="#3da44d" fill-rule="evenodd" fill-opacity="1" stroke="#000000" stroke-opacity="1" stroke-width="3.2"/>
<circle clip-path="url(#clip622)" cx="304.715" cy="1163.57" r="7" fill="#3da44d" fill-rule="evenodd" fill-opacity="1" stroke="#000000" stroke-opacity="1" stroke-width="3.2"/>
<circle clip-path="url(#clip622)" cx="326.049" cy="1158.93" r="7" fill="#3da44d" fill-rule="evenodd" fill-opacity="1" stroke="#000000" stroke-opacity="1" stroke-width="3.2"/>
<circle clip-path="url(#clip622)" cx="347.383" cy="1154.29" r="7" fill="#3da44d" fill-rule="evenodd" fill-opacity="1" stroke="#000000" stroke-opacity="1" stroke-width="3.2"/>
<circle clip-path="url(#clip622)" cx="368.716" cy="1149.64" r="7" fill="#3da44d" fill-rule="evenodd" fill-opacity="1" stroke="#000000" stroke-opacity="1" stroke-width="3.2"/>
<circle clip-path="url(#clip622)" cx="390.05" cy="1145" r="7" fill="#3da44d" fill-rule="evenodd" fill-opacity="1" stroke="#000000" stroke-opacity="1" stroke-width="3.2"/>
<circle clip-path="url(#clip622)" cx="411.384" cy="1138.82" r="7" fill="#3da44d" fill-rule="evenodd" fill-opacity="1" stroke="#000000" stroke-opacity="1" stroke-width="3.2"/>
<circle clip-path="url(#clip622)" cx="432.718" cy="1132.63" r="7" fill="#3da44d" fill-rule="evenodd" fill-opacity="1" stroke="#000000" stroke-opacity="1" stroke-width="3.2"/>
<circle clip-path="url(#clip622)" cx="454.051" cy="1126.44" r="7" fill="#3da44d" fill-rule="evenodd" fill-opacity="1" stroke="#000000" stroke-opacity="1" stroke-width="3.2"/>
<circle clip-path="url(#clip622)" cx="475.385" cy="1120.26" r="7" fill="#3da44d" fill-rule="evenodd" fill-opacity="1" stroke="#000000" stroke-opacity="1" stroke-width="3.2"/>
<circle clip-path="url(#clip622)" cx="496.719" cy="1114.07" r="7" fill="#3da44d" fill-rule="evenodd" fill-opacity="1" stroke="#000000" stroke-opacity="1" stroke-width="3.2"/>
<circle clip-path="url(#clip622)" cx="518.053" cy="1107.88" r="7" fill="#3da44d" fill-rule="evenodd" fill-opacity="1" stroke="#000000" stroke-opacity="1" stroke-width="3.2"/>
<circle clip-path="url(#clip622)" cx="539.387" cy="1101.7" r="7" fill="#3da44d" fill-rule="evenodd" fill-opacity="1" stroke="#000000" stroke-opacity="1" stroke-width="3.2"/>
<circle clip-path="url(#clip622)" cx="560.72" cy="1095.51" r="7" fill="#3da44d" fill-rule="evenodd" fill-opacity="1" stroke="#000000" stroke-opacity="1" stroke-width="3.2"/>
<circle clip-path="url(#clip622)" cx="582.054" cy="1089.32" r="7" fill="#3da44d" fill-rule="evenodd" fill-opacity="1" stroke="#000000" stroke-opacity="1" stroke-width="3.2"/>
<circle clip-path="url(#clip622)" cx="603.388" cy="1083.13" r="7" fill="#3da44d" fill-rule="evenodd" fill-opacity="1" stroke="#000000" stroke-opacity="1" stroke-width="3.2"/>
<circle clip-path="url(#clip622)" cx="624.722" cy="1076.95" r="7" fill="#3da44d" fill-rule="evenodd" fill-opacity="1" stroke="#000000" stroke-opacity="1" stroke-width="3.2"/>
<circle clip-path="url(#clip622)" cx="646.055" cy="1070.76" r="7" fill="#3da44d" fill-rule="evenodd" fill-opacity="1" stroke="#000000" stroke-opacity="1" stroke-width="3.2"/>
<circle clip-path="url(#clip622)" cx="667.389" cy="1064.57" r="7" fill="#3da44d" fill-rule="evenodd" fill-opacity="1" stroke="#000000" stroke-opacity="1" stroke-width="3.2"/>
<circle clip-path="url(#clip622)" cx="688.723" cy="1058.39" r="7" fill="#3da44d" fill-rule="evenodd" fill-opacity="1" stroke="#000000" stroke-opacity="1" stroke-width="3.2"/>
<circle clip-path="url(#clip622)" cx="710.057" cy="1052.2" r="7" fill="#3da44d" fill-rule="evenodd" fill-opacity="1" stroke="#000000" stroke-opacity="1" stroke-width="3.2"/>
<circle clip-path="url(#clip622)" cx="731.39" cy="1046.01" r="7" fill="#3da44d" fill-rule="evenodd" fill-opacity="1" stroke="#000000" stroke-opacity="1" stroke-width="3.2"/>
<circle clip-path="url(#clip622)" cx="752.724" cy="1039.82" r="7" fill="#3da44d" fill-rule="evenodd" fill-opacity="1" stroke="#000000" stroke-opacity="1" stroke-width="3.2"/>
<circle clip-path="url(#clip622)" cx="774.058" cy="1033.64" r="7" fill="#3da44d" fill-rule="evenodd" fill-opacity="1" stroke="#000000" stroke-opacity="1" stroke-width="3.2"/>
<circle clip-path="url(#clip622)" cx="795.392" cy="1027.45" r="7" fill="#3da44d" fill-rule="evenodd" fill-opacity="1" stroke="#000000" stroke-opacity="1" stroke-width="3.2"/>
<circle clip-path="url(#clip622)" cx="816.725" cy="1021.26" r="7" fill="#3da44d" fill-rule="evenodd" fill-opacity="1" stroke="#000000" stroke-opacity="1" stroke-width="3.2"/>
<circle clip-path="url(#clip622)" cx="838.059" cy="1015.08" r="7" fill="#3da44d" fill-rule="evenodd" fill-opacity="1" stroke="#000000" stroke-opacity="1" stroke-width="3.2"/>
<circle clip-path="url(#clip622)" cx="859.393" cy="1008.89" r="7" fill="#3da44d" fill-rule="evenodd" fill-opacity="1" stroke="#000000" stroke-opacity="1" stroke-width="3.2"/>
<circle clip-path="url(#clip622)" cx="880.727" cy="1002.7" r="7" fill="#3da44d" fill-rule="evenodd" fill-opacity="1" stroke="#000000" stroke-opacity="1" stroke-width="3.2"/>
<circle clip-path="url(#clip622)" cx="902.06" cy="996.515" r="7" fill="#3da44d" fill-rule="evenodd" fill-opacity="1" stroke="#000000" stroke-opacity="1" stroke-width="3.2"/>
<circle clip-path="url(#clip622)" cx="923.394" cy="990.328" r="7" fill="#3da44d" fill-rule="evenodd" fill-opacity="1" stroke="#000000" stroke-opacity="1" stroke-width="3.2"/>
<circle clip-path="url(#clip622)" cx="944.728" cy="984.141" r="7" fill="#3da44d" fill-rule="evenodd" fill-opacity="1" stroke="#000000" stroke-opacity="1" stroke-width="3.2"/>
<circle clip-path="url(#clip622)" cx="966.062" cy="977.954" r="7" fill="#3da44d" fill-rule="evenodd" fill-opacity="1" stroke="#000000" stroke-opacity="1" stroke-width="3.2"/>
<circle clip-path="url(#clip622)" cx="987.395" cy="971.767" r="7" fill="#3da44d" fill-rule="evenodd" fill-opacity="1" stroke="#000000" stroke-opacity="1" stroke-width="3.2"/>
<circle clip-path="url(#clip622)" cx="1008.73" cy="965.579" r="7" fill="#3da44d" fill-rule="evenodd" fill-opacity="1" stroke="#000000" stroke-opacity="1" stroke-width="3.2"/>
<circle clip-path="url(#clip622)" cx="1030.06" cy="959.392" r="7" fill="#3da44d" fill-rule="evenodd" fill-opacity="1" stroke="#000000" stroke-opacity="1" stroke-width="3.2"/>
<circle clip-path="url(#clip622)" cx="1051.4" cy="953.205" r="7" fill="#3da44d" fill-rule="evenodd" fill-opacity="1" stroke="#000000" stroke-opacity="1" stroke-width="3.2"/>
<circle clip-path="url(#clip622)" cx="1072.73" cy="947.018" r="7" fill="#3da44d" fill-rule="evenodd" fill-opacity="1" stroke="#000000" stroke-opacity="1" stroke-width="3.2"/>
<circle clip-path="url(#clip622)" cx="1094.06" cy="942.378" r="7" fill="#3da44d" fill-rule="evenodd" fill-opacity="1" stroke="#000000" stroke-opacity="1" stroke-width="3.2"/>
<circle clip-path="url(#clip622)" cx="1115.4" cy="937.738" r="7" fill="#3da44d" fill-rule="evenodd" fill-opacity="1" stroke="#000000" stroke-opacity="1" stroke-width="3.2"/>
<circle clip-path="url(#clip622)" cx="1136.73" cy="933.097" r="7" fill="#3da44d" fill-rule="evenodd" fill-opacity="1" stroke="#000000" stroke-opacity="1" stroke-width="3.2"/>
<circle clip-path="url(#clip622)" cx="1158.07" cy="928.457" r="7" fill="#3da44d" fill-rule="evenodd" fill-opacity="1" stroke="#000000" stroke-opacity="1" stroke-width="3.2"/>
<circle clip-path="url(#clip622)" cx="1179.4" cy="923.817" r="7" fill="#3da44d" fill-rule="evenodd" fill-opacity="1" stroke="#000000" stroke-opacity="1" stroke-width="3.2"/>
<circle clip-path="url(#clip622)" cx="1200.73" cy="919.176" r="7" fill="#3da44d" fill-rule="evenodd" fill-opacity="1" stroke="#000000" stroke-opacity="1" stroke-width="3.2"/>
<circle clip-path="url(#clip622)" cx="1222.07" cy="914.536" r="7" fill="#3da44d" fill-rule="evenodd" fill-opacity="1" stroke="#000000" stroke-opacity="1" stroke-width="3.2"/>
<circle clip-path="url(#clip622)" cx="1243.4" cy="909.896" r="7" fill="#3da44d" fill-rule="evenodd" fill-opacity="1" stroke="#000000" stroke-opacity="1" stroke-width="3.2"/>
<circle clip-path="url(#clip622)" cx="1264.73" cy="905.255" r="7" fill="#3da44d" fill-rule="evenodd" fill-opacity="1" stroke="#000000" stroke-opacity="1" stroke-width="3.2"/>
<circle clip-path="url(#clip622)" cx="1286.07" cy="900.615" r="7" fill="#3da44d" fill-rule="evenodd" fill-opacity="1" stroke="#000000" stroke-opacity="1" stroke-width="3.2"/>
<circle clip-path="url(#clip622)" cx="1307.4" cy="895.975" r="7" fill="#3da44d" fill-rule="evenodd" fill-opacity="1" stroke="#000000" stroke-opacity="1" stroke-width="3.2"/>
<circle clip-path="url(#clip622)" cx="1328.74" cy="891.335" r="7" fill="#3da44d" fill-rule="evenodd" fill-opacity="1" stroke="#000000" stroke-opacity="1" stroke-width="3.2"/>
<circle clip-path="url(#clip622)" cx="1350.07" cy="886.694" r="7" fill="#3da44d" fill-rule="evenodd" fill-opacity="1" stroke="#000000" stroke-opacity="1" stroke-width="3.2"/>
<circle clip-path="url(#clip622)" cx="1371.4" cy="882.054" r="7" fill="#3da44d" fill-rule="evenodd" fill-opacity="1" stroke="#000000" stroke-opacity="1" stroke-width="3.2"/>
<circle clip-path="url(#clip622)" cx="1392.74" cy="877.414" r="7" fill="#3da44d" fill-rule="evenodd" fill-opacity="1" stroke="#000000" stroke-opacity="1" stroke-width="3.2"/>
<circle clip-path="url(#clip622)" cx="1414.07" cy="872.773" r="7" fill="#3da44d" fill-rule="evenodd" fill-opacity="1" stroke="#000000" stroke-opacity="1" stroke-width="3.2"/>
<circle clip-path="url(#clip622)" cx="1435.4" cy="868.133" r="7" fill="#3da44d" fill-rule="evenodd" fill-opacity="1" stroke="#000000" stroke-opacity="1" stroke-width="3.2"/>
<circle clip-path="url(#clip622)" cx="1456.74" cy="863.493" r="7" fill="#3da44d" fill-rule="evenodd" fill-opacity="1" stroke="#000000" stroke-opacity="1" stroke-width="3.2"/>
<circle clip-path="url(#clip622)" cx="1478.07" cy="858.852" r="7" fill="#3da44d" fill-rule="evenodd" fill-opacity="1" stroke="#000000" stroke-opacity="1" stroke-width="3.2"/>
<circle clip-path="url(#clip622)" cx="1499.41" cy="854.212" r="7" fill="#3da44d" fill-rule="evenodd" fill-opacity="1" stroke="#000000" stroke-opacity="1" stroke-width="3.2"/>
<circle clip-path="url(#clip622)" cx="1520.74" cy="849.572" r="7" fill="#3da44d" fill-rule="evenodd" fill-opacity="1" stroke="#000000" stroke-opacity="1" stroke-width="3.2"/>
<circle clip-path="url(#clip622)" cx="1542.07" cy="844.932" r="7" fill="#3da44d" fill-rule="evenodd" fill-opacity="1" stroke="#000000" stroke-opacity="1" stroke-width="3.2"/>
<circle clip-path="url(#clip622)" cx="1563.41" cy="840.291" r="7" fill="#3da44d" fill-rule="evenodd" fill-opacity="1" stroke="#000000" stroke-opacity="1" stroke-width="3.2"/>
<circle clip-path="url(#clip622)" cx="1584.74" cy="835.651" r="7" fill="#3da44d" fill-rule="evenodd" fill-opacity="1" stroke="#000000" stroke-opacity="1" stroke-width="3.2"/>
<circle clip-path="url(#clip622)" cx="1606.07" cy="831.011" r="7" fill="#3da44d" fill-rule="evenodd" fill-opacity="1" stroke="#000000" stroke-opacity="1" stroke-width="3.2"/>
<circle clip-path="url(#clip622)" cx="1627.41" cy="826.37" r="7" fill="#3da44d" fill-rule="evenodd" fill-opacity="1" stroke="#000000" stroke-opacity="1" stroke-width="3.2"/>
<circle clip-path="url(#clip622)" cx="1648.74" cy="821.73" r="7" fill="#3da44d" fill-rule="evenodd" fill-opacity="1" stroke="#000000" stroke-opacity="1" stroke-width="3.2"/>
<circle clip-path="url(#clip622)" cx="1670.08" cy="817.09" r="7" fill="#3da44d" fill-rule="evenodd" fill-opacity="1" stroke="#000000" stroke-opacity="1" stroke-width="3.2"/>
<circle clip-path="url(#clip622)" cx="1691.41" cy="812.449" r="7" fill="#3da44d" fill-rule="evenodd" fill-opacity="1" stroke="#000000" stroke-opacity="1" stroke-width="3.2"/>
<circle clip-path="url(#clip622)" cx="1712.74" cy="807.809" r="7" fill="#3da44d" fill-rule="evenodd" fill-opacity="1" stroke="#000000" stroke-opacity="1" stroke-width="3.2"/>
<circle clip-path="url(#clip622)" cx="1734.08" cy="803.169" r="7" fill="#3da44d" fill-rule="evenodd" fill-opacity="1" stroke="#000000" stroke-opacity="1" stroke-width="3.2"/>
<circle clip-path="url(#clip622)" cx="1755.41" cy="798.528" r="7" fill="#3da44d" fill-rule="evenodd" fill-opacity="1" stroke="#000000" stroke-opacity="1" stroke-width="3.2"/>
<circle clip-path="url(#clip622)" cx="1776.74" cy="792.599" r="7" fill="#3da44d" fill-rule="evenodd" fill-opacity="1" stroke="#000000" stroke-opacity="1" stroke-width="3.2"/>
<circle clip-path="url(#clip622)" cx="1798.08" cy="786.67" r="7" fill="#3da44d" fill-rule="evenodd" fill-opacity="1" stroke="#000000" stroke-opacity="1" stroke-width="3.2"/>
<circle clip-path="url(#clip622)" cx="1819.41" cy="780.741" r="7" fill="#3da44d" fill-rule="evenodd" fill-opacity="1" stroke="#000000" stroke-opacity="1" stroke-width="3.2"/>
<circle clip-path="url(#clip622)" cx="1840.75" cy="774.811" r="7" fill="#3da44d" fill-rule="evenodd" fill-opacity="1" stroke="#000000" stroke-opacity="1" stroke-width="3.2"/>
<circle clip-path="url(#clip622)" cx="1862.08" cy="768.882" r="7" fill="#3da44d" fill-rule="evenodd" fill-opacity="1" stroke="#000000" stroke-opacity="1" stroke-width="3.2"/>
<circle clip-path="url(#clip622)" cx="1883.41" cy="762.953" r="7" fill="#3da44d" fill-rule="evenodd" fill-opacity="1" stroke="#000000" stroke-opacity="1" stroke-width="3.2"/>
<circle clip-path="url(#clip622)" cx="1904.75" cy="757.023" r="7" fill="#3da44d" fill-rule="evenodd" fill-opacity="1" stroke="#000000" stroke-opacity="1" stroke-width="3.2"/>
<circle clip-path="url(#clip622)" cx="1926.08" cy="751.094" r="7" fill="#3da44d" fill-rule="evenodd" fill-opacity="1" stroke="#000000" stroke-opacity="1" stroke-width="3.2"/>
<circle clip-path="url(#clip622)" cx="1947.41" cy="745.165" r="7" fill="#3da44d" fill-rule="evenodd" fill-opacity="1" stroke="#000000" stroke-opacity="1" stroke-width="3.2"/>
<circle clip-path="url(#clip622)" cx="1968.75" cy="739.236" r="7" fill="#3da44d" fill-rule="evenodd" fill-opacity="1" stroke="#000000" stroke-opacity="1" stroke-width="3.2"/>
<circle clip-path="url(#clip622)" cx="1990.08" cy="733.306" r="7" fill="#3da44d" fill-rule="evenodd" fill-opacity="1" stroke="#000000" stroke-opacity="1" stroke-width="3.2"/>
<circle clip-path="url(#clip622)" cx="2011.42" cy="727.377" r="7" fill="#3da44d" fill-rule="evenodd" fill-opacity="1" stroke="#000000" stroke-opacity="1" stroke-width="3.2"/>
<circle clip-path="url(#clip622)" cx="2032.75" cy="721.448" r="7" fill="#3da44d" fill-rule="evenodd" fill-opacity="1" stroke="#000000" stroke-opacity="1" stroke-width="3.2"/>
<circle clip-path="url(#clip622)" cx="2054.08" cy="715.519" r="7" fill="#3da44d" fill-rule="evenodd" fill-opacity="1" stroke="#000000" stroke-opacity="1" stroke-width="3.2"/>
<circle clip-path="url(#clip622)" cx="2075.42" cy="709.589" r="7" fill="#3da44d" fill-rule="evenodd" fill-opacity="1" stroke="#000000" stroke-opacity="1" stroke-width="3.2"/>
<circle clip-path="url(#clip622)" cx="2096.75" cy="703.66" r="7" fill="#3da44d" fill-rule="evenodd" fill-opacity="1" stroke="#000000" stroke-opacity="1" stroke-width="3.2"/>
<circle clip-path="url(#clip622)" cx="2118.08" cy="697.731" r="7" fill="#3da44d" fill-rule="evenodd" fill-opacity="1" stroke="#000000" stroke-opacity="1" stroke-width="3.2"/>
<circle clip-path="url(#clip622)" cx="2139.42" cy="691.801" r="7" fill="#3da44d" fill-rule="evenodd" fill-opacity="1" stroke="#000000" stroke-opacity="1" stroke-width="3.2"/>
<circle clip-path="url(#clip622)" cx="2160.75" cy="685.872" r="7" fill="#3da44d" fill-rule="evenodd" fill-opacity="1" stroke="#000000" stroke-opacity="1" stroke-width="3.2"/>
<circle clip-path="url(#clip622)" cx="2182.09" cy="679.943" r="7" fill="#3da44d" fill-rule="evenodd" fill-opacity="1" stroke="#000000" stroke-opacity="1" stroke-width="3.2"/>
<circle clip-path="url(#clip622)" cx="2203.42" cy="674.014" r="7" fill="#3da44d" fill-rule="evenodd" fill-opacity="1" stroke="#000000" stroke-opacity="1" stroke-width="3.2"/>
<circle clip-path="url(#clip622)" cx="2224.75" cy="668.084" r="7" fill="#3da44d" fill-rule="evenodd" fill-opacity="1" stroke="#000000" stroke-opacity="1" stroke-width="3.2"/>
<circle clip-path="url(#clip622)" cx="2246.09" cy="662.155" r="7" fill="#3da44d" fill-rule="evenodd" fill-opacity="1" stroke="#000000" stroke-opacity="1" stroke-width="3.2"/>
<circle clip-path="url(#clip622)" cx="2267.42" cy="656.226" r="7" fill="#3da44d" fill-rule="evenodd" fill-opacity="1" stroke="#000000" stroke-opacity="1" stroke-width="3.2"/>
<circle clip-path="url(#clip622)" cx="2288.75" cy="650.296" r="7" fill="#3da44d" fill-rule="evenodd" fill-opacity="1" stroke="#000000" stroke-opacity="1" stroke-width="3.2"/>
<circle clip-path="url(#clip622)" cx="2310.09" cy="644.367" r="7" fill="#3da44d" fill-rule="evenodd" fill-opacity="1" stroke="#000000" stroke-opacity="1" stroke-width="3.2"/>
<circle clip-path="url(#clip622)" cx="2331.42" cy="638.438" r="7" fill="#3da44d" fill-rule="evenodd" fill-opacity="1" stroke="#000000" stroke-opacity="1" stroke-width="3.2"/>
<path clip-path="url(#clip620)" d="
M1431.39 300.469 L2281.64 300.469 L2281.64 93.1086 L1431.39 93.1086  Z
  " fill="#ffffff" fill-rule="evenodd" fill-opacity="1"/>
<polyline clip-path="url(#clip620)" style="stroke:#000000; stroke-linecap:butt; stroke-linejoin:round; stroke-width:4; stroke-opacity:1; fill:none" points="
  1431.39,300.469 2281.64,300.469 2281.64,93.1086 1431.39,93.1086 1431.39,300.469 
  "/>
<circle clip-path="url(#clip620)" cx="1526.2" cy="144.949" r="23" fill="#009af9" fill-rule="evenodd" fill-opacity="1" stroke="#000000" stroke-opacity="1" stroke-width="10.24"/>
<path clip-path="url(#clip620)" d="M1621.02 127.669 L1627.99 127.669 L1636.81 151.187 L1645.67 127.669 L1652.64 127.669 L1652.64 162.229 L1648.08 162.229 L1648.08 131.882 L1639.17 155.585 L1634.47 155.585 L1625.56 131.882 L1625.56 162.229 L1621.02 162.229 L1621.02 127.669 Z" fill="#000000" fill-rule="evenodd" fill-opacity="1" /><path clip-path="url(#clip620)" d="M1672.34 130.747 Q1668.73 130.747 1666.9 134.312 Q1665.09 137.854 1665.09 144.983 Q1665.09 152.09 1666.9 155.655 Q1668.73 159.196 1672.34 159.196 Q1675.97 159.196 1677.78 155.655 Q1679.61 152.09 1679.61 144.983 Q1679.61 137.854 1677.78 134.312 Q1675.97 130.747 1672.34 130.747 M1672.34 127.044 Q1678.15 127.044 1681.21 131.65 Q1684.28 136.233 1684.28 144.983 Q1684.28 153.71 1681.21 158.317 Q1678.15 162.9 1672.34 162.9 Q1666.53 162.9 1663.45 158.317 Q1660.4 153.71 1660.4 144.983 Q1660.4 136.233 1663.45 131.65 Q1666.53 127.044 1672.34 127.044 Z" fill="#000000" fill-rule="evenodd" fill-opacity="1" /><path clip-path="url(#clip620)" d="M1720.09 126.21 L1720.09 129.752 L1716.02 129.752 Q1713.73 129.752 1712.83 130.678 Q1711.95 131.604 1711.95 134.011 L1711.95 136.303 L1718.96 136.303 L1718.96 139.613 L1711.95 139.613 L1711.95 162.229 L1707.66 162.229 L1707.66 139.613 L1703.59 139.613 L1703.59 136.303 L1707.66 136.303 L1707.66 134.497 Q1707.66 130.169 1709.68 128.201 Q1711.69 126.21 1716.07 126.21 L1720.09 126.21 Z" fill="#000000" fill-rule="evenodd" fill-opacity="1" /><path clip-path="url(#clip620)" d="M1723.66 126.21 L1727.92 126.21 L1727.92 162.229 L1723.66 162.229 L1723.66 126.21 Z" fill="#000000" fill-rule="evenodd" fill-opacity="1" /><path clip-path="url(#clip620)" d="M1736.39 151.997 L1736.39 136.303 L1740.65 136.303 L1740.65 151.835 Q1740.65 155.516 1742.08 157.368 Q1743.52 159.196 1746.39 159.196 Q1749.84 159.196 1751.83 156.997 Q1753.84 154.798 1753.84 151.002 L1753.84 136.303 L1758.1 136.303 L1758.1 162.229 L1753.84 162.229 L1753.84 158.247 Q1752.29 160.608 1750.23 161.766 Q1748.2 162.9 1745.49 162.9 Q1741.02 162.9 1738.71 160.122 Q1736.39 157.344 1736.39 151.997 M1747.11 135.678 L1747.11 135.678 Z" fill="#000000" fill-rule="evenodd" fill-opacity="1" /><path clip-path="url(#clip620)" d="M1788.43 136.303 L1779.05 148.919 L1788.91 162.229 L1783.89 162.229 L1776.34 152.043 L1768.8 162.229 L1763.77 162.229 L1773.84 148.664 L1764.63 136.303 L1769.65 136.303 L1776.53 145.539 L1783.4 136.303 L1788.43 136.303 Z" fill="#000000" fill-rule="evenodd" fill-opacity="1" /><circle clip-path="url(#clip620)" cx="1526.2" cy="196.789" r="23" fill="#e26f46" fill-rule="evenodd" fill-opacity="1" stroke="#000000" stroke-opacity="1" stroke-width="2.56"/>
<path clip-path="url(#clip620)" d="M1625.7 183.351 L1625.7 210.226 L1631.34 210.226 Q1638.5 210.226 1641.81 206.985 Q1645.14 203.745 1645.14 196.754 Q1645.14 189.809 1641.81 186.592 Q1638.5 183.351 1631.34 183.351 L1625.7 183.351 M1621.02 179.509 L1630.63 179.509 Q1640.67 179.509 1645.37 183.698 Q1650.07 187.865 1650.07 196.754 Q1650.07 205.689 1645.35 209.879 Q1640.63 214.069 1630.63 214.069 L1621.02 214.069 L1621.02 179.509 Z" fill="#000000" fill-rule="evenodd" fill-opacity="1" /><path clip-path="url(#clip620)" d="M1657.53 179.509 L1662.2 179.509 L1662.2 214.069 L1657.53 214.069 L1657.53 179.509 Z" fill="#000000" fill-rule="evenodd" fill-opacity="1" /><path clip-path="url(#clip620)" d="M1687.9 197.865 Q1689.4 198.374 1690.81 200.041 Q1692.25 201.708 1693.68 204.624 L1698.43 214.069 L1693.4 214.069 L1688.98 205.203 Q1687.27 201.731 1685.65 200.596 Q1684.05 199.462 1681.28 199.462 L1676.18 199.462 L1676.18 214.069 L1671.51 214.069 L1671.51 179.509 L1682.06 179.509 Q1687.99 179.509 1690.9 181.985 Q1693.82 184.462 1693.82 189.462 Q1693.82 192.726 1692.29 194.879 Q1690.79 197.032 1687.9 197.865 M1676.18 183.351 L1676.18 195.62 L1682.06 195.62 Q1685.44 195.62 1687.15 194.069 Q1688.89 192.495 1688.89 189.462 Q1688.89 186.43 1687.15 184.902 Q1685.44 183.351 1682.06 183.351 L1676.18 183.351 Z" fill="#000000" fill-rule="evenodd" fill-opacity="1" /><path clip-path="url(#clip620)" d="M1709.12 197.564 L1709.12 210.226 L1716.62 210.226 Q1720.4 210.226 1722.2 208.675 Q1724.03 207.101 1724.03 203.883 Q1724.03 200.643 1722.2 199.115 Q1720.4 197.564 1716.62 197.564 L1709.12 197.564 M1709.12 183.351 L1709.12 193.768 L1716.04 193.768 Q1719.47 193.768 1721.14 192.495 Q1722.83 191.198 1722.83 188.559 Q1722.83 185.944 1721.14 184.647 Q1719.47 183.351 1716.04 183.351 L1709.12 183.351 M1704.45 179.509 L1716.39 179.509 Q1721.74 179.509 1724.63 181.731 Q1727.52 183.953 1727.52 188.05 Q1727.52 191.222 1726.04 193.097 Q1724.56 194.971 1721.69 195.434 Q1725.14 196.175 1727.04 198.536 Q1728.96 200.874 1728.96 204.393 Q1728.96 209.022 1725.81 211.545 Q1722.66 214.069 1716.85 214.069 L1704.45 214.069 L1704.45 179.509 Z" fill="#000000" fill-rule="evenodd" fill-opacity="1" /><path clip-path="url(#clip620)" d="M1736.97 179.509 L1758.82 179.509 L1758.82 183.444 L1741.65 183.444 L1741.65 193.675 L1758.1 193.675 L1758.1 197.61 L1741.65 197.61 L1741.65 210.133 L1759.24 210.133 L1759.24 214.069 L1736.97 214.069 L1736.97 179.509 Z" fill="#000000" fill-rule="evenodd" fill-opacity="1" /><path clip-path="url(#clip620)" d="M1800.42 201.129 Q1800.42 196.43 1798.47 193.768 Q1796.55 191.083 1793.17 191.083 Q1789.79 191.083 1787.85 193.768 Q1785.93 196.43 1785.93 201.129 Q1785.93 205.828 1787.85 208.513 Q1789.79 211.175 1793.17 211.175 Q1796.55 211.175 1798.47 208.513 Q1800.42 205.828 1800.42 201.129 M1785.93 192.078 Q1787.27 189.763 1789.31 188.652 Q1791.37 187.518 1794.21 187.518 Q1798.94 187.518 1801.88 191.268 Q1804.84 195.018 1804.84 201.129 Q1804.84 207.24 1801.88 210.99 Q1798.94 214.74 1794.21 214.74 Q1791.37 214.74 1789.31 213.629 Q1787.27 212.495 1785.93 210.18 L1785.93 214.069 L1781.64 214.069 L1781.64 178.05 L1785.93 178.05 L1785.93 192.078 Z" fill="#000000" fill-rule="evenodd" fill-opacity="1" /><path clip-path="url(#clip620)" d="M1823.68 201.036 Q1818.52 201.036 1816.53 202.217 Q1814.54 203.397 1814.54 206.245 Q1814.54 208.513 1816.02 209.856 Q1817.52 211.175 1820.09 211.175 Q1823.64 211.175 1825.76 208.675 Q1827.92 206.152 1827.92 201.985 L1827.92 201.036 L1823.68 201.036 M1832.18 199.277 L1832.18 214.069 L1827.92 214.069 L1827.92 210.133 Q1826.46 212.495 1824.28 213.629 Q1822.11 214.74 1818.96 214.74 Q1814.98 214.74 1812.62 212.518 Q1810.28 210.272 1810.28 206.522 Q1810.28 202.147 1813.2 199.925 Q1816.14 197.703 1821.95 197.703 L1827.92 197.703 L1827.92 197.286 Q1827.92 194.347 1825.97 192.749 Q1824.05 191.129 1820.56 191.129 Q1818.33 191.129 1816.23 191.661 Q1814.12 192.194 1812.18 193.259 L1812.18 189.323 Q1814.52 188.421 1816.71 187.981 Q1818.91 187.518 1821 187.518 Q1826.62 187.518 1829.4 190.434 Q1832.18 193.351 1832.18 199.277 Z" fill="#000000" fill-rule="evenodd" fill-opacity="1" /><path clip-path="url(#clip620)" d="M1862.5 198.421 L1862.5 214.069 L1858.24 214.069 L1858.24 198.559 Q1858.24 194.879 1856.81 193.05 Q1855.37 191.222 1852.5 191.222 Q1849.05 191.222 1847.06 193.421 Q1845.07 195.62 1845.07 199.416 L1845.07 214.069 L1840.79 214.069 L1840.79 188.143 L1845.07 188.143 L1845.07 192.171 Q1846.6 189.833 1848.66 188.675 Q1850.74 187.518 1853.45 187.518 Q1857.92 187.518 1860.21 190.296 Q1862.5 193.05 1862.5 198.421 Z" fill="#000000" fill-rule="evenodd" fill-opacity="1" /><path clip-path="url(#clip620)" d="M1888.06 192.078 L1888.06 178.05 L1892.32 178.05 L1892.32 214.069 L1888.06 214.069 L1888.06 210.18 Q1886.71 212.495 1884.65 213.629 Q1882.62 214.74 1879.75 214.74 Q1875.05 214.74 1872.08 210.99 Q1869.14 207.24 1869.14 201.129 Q1869.14 195.018 1872.08 191.268 Q1875.05 187.518 1879.75 187.518 Q1882.62 187.518 1884.65 188.652 Q1886.71 189.763 1888.06 192.078 M1873.54 201.129 Q1873.54 205.828 1875.46 208.513 Q1877.41 211.175 1880.79 211.175 Q1884.17 211.175 1886.11 208.513 Q1888.06 205.828 1888.06 201.129 Q1888.06 196.43 1886.11 193.768 Q1884.17 191.083 1880.79 191.083 Q1877.41 191.083 1875.46 193.768 Q1873.54 196.43 1873.54 201.129 Z" fill="#000000" fill-rule="evenodd" fill-opacity="1" /><circle clip-path="url(#clip620)" cx="1526.2" cy="248.629" r="23" fill="#3da44d" fill-rule="evenodd" fill-opacity="1" stroke="#000000" stroke-opacity="1" stroke-width="10.24"/>
<path clip-path="url(#clip620)" d="M1625.7 235.191 L1625.7 262.066 L1631.34 262.066 Q1638.5 262.066 1641.81 258.825 Q1645.14 255.585 1645.14 248.594 Q1645.14 241.649 1641.81 238.432 Q1638.5 235.191 1631.34 235.191 L1625.7 235.191 M1621.02 231.349 L1630.63 231.349 Q1640.67 231.349 1645.37 235.538 Q1650.07 239.705 1650.07 248.594 Q1650.07 257.529 1645.35 261.719 Q1640.63 265.909 1630.63 265.909 L1621.02 265.909 L1621.02 231.349 Z" fill="#000000" fill-rule="evenodd" fill-opacity="1" /><path clip-path="url(#clip620)" d="M1657.53 231.349 L1662.2 231.349 L1662.2 265.909 L1657.53 265.909 L1657.53 231.349 Z" fill="#000000" fill-rule="evenodd" fill-opacity="1" /><path clip-path="url(#clip620)" d="M1687.9 249.705 Q1689.4 250.214 1690.81 251.881 Q1692.25 253.548 1693.68 256.464 L1698.43 265.909 L1693.4 265.909 L1688.98 257.043 Q1687.27 253.571 1685.65 252.436 Q1684.05 251.302 1681.28 251.302 L1676.18 251.302 L1676.18 265.909 L1671.51 265.909 L1671.51 231.349 L1682.06 231.349 Q1687.99 231.349 1690.9 233.825 Q1693.82 236.302 1693.82 241.302 Q1693.82 244.566 1692.29 246.719 Q1690.79 248.872 1687.9 249.705 M1676.18 235.191 L1676.18 247.46 L1682.06 247.46 Q1685.44 247.46 1687.15 245.909 Q1688.89 244.335 1688.89 241.302 Q1688.89 238.27 1687.15 236.742 Q1685.44 235.191 1682.06 235.191 L1676.18 235.191 Z" fill="#000000" fill-rule="evenodd" fill-opacity="1" /><path clip-path="url(#clip620)" d="M1709.12 249.404 L1709.12 262.066 L1716.62 262.066 Q1720.4 262.066 1722.2 260.515 Q1724.03 258.941 1724.03 255.723 Q1724.03 252.483 1722.2 250.955 Q1720.4 249.404 1716.62 249.404 L1709.12 249.404 M1709.12 235.191 L1709.12 245.608 L1716.04 245.608 Q1719.47 245.608 1721.14 244.335 Q1722.83 243.038 1722.83 240.399 Q1722.83 237.784 1721.14 236.487 Q1719.47 235.191 1716.04 235.191 L1709.12 235.191 M1704.45 231.349 L1716.39 231.349 Q1721.74 231.349 1724.63 233.571 Q1727.52 235.793 1727.52 239.89 Q1727.52 243.062 1726.04 244.937 Q1724.56 246.811 1721.69 247.274 Q1725.14 248.015 1727.04 250.376 Q1728.96 252.714 1728.96 256.233 Q1728.96 260.862 1725.81 263.385 Q1722.66 265.909 1716.85 265.909 L1704.45 265.909 L1704.45 231.349 Z" fill="#000000" fill-rule="evenodd" fill-opacity="1" /><path clip-path="url(#clip620)" d="M1736.97 231.349 L1758.82 231.349 L1758.82 235.284 L1741.65 235.284 L1741.65 245.515 L1758.1 245.515 L1758.1 249.45 L1741.65 249.45 L1741.65 261.973 L1759.24 261.973 L1759.24 265.909 L1736.97 265.909 L1736.97 231.349 Z" fill="#000000" fill-rule="evenodd" fill-opacity="1" /><path clip-path="url(#clip620)" d="M1800.42 252.969 Q1800.42 248.27 1798.47 245.608 Q1796.55 242.923 1793.17 242.923 Q1789.79 242.923 1787.85 245.608 Q1785.93 248.27 1785.93 252.969 Q1785.93 257.668 1787.85 260.353 Q1789.79 263.015 1793.17 263.015 Q1796.55 263.015 1798.47 260.353 Q1800.42 257.668 1800.42 252.969 M1785.93 243.918 Q1787.27 241.603 1789.31 240.492 Q1791.37 239.358 1794.21 239.358 Q1798.94 239.358 1801.88 243.108 Q1804.84 246.858 1804.84 252.969 Q1804.84 259.08 1801.88 262.83 Q1798.94 266.58 1794.21 266.58 Q1791.37 266.58 1789.31 265.469 Q1787.27 264.335 1785.93 262.02 L1785.93 265.909 L1781.64 265.909 L1781.64 229.89 L1785.93 229.89 L1785.93 243.918 Z" fill="#000000" fill-rule="evenodd" fill-opacity="1" /><path clip-path="url(#clip620)" d="M1823.68 252.876 Q1818.52 252.876 1816.53 254.057 Q1814.54 255.237 1814.54 258.085 Q1814.54 260.353 1816.02 261.696 Q1817.52 263.015 1820.09 263.015 Q1823.64 263.015 1825.76 260.515 Q1827.92 257.992 1827.92 253.825 L1827.92 252.876 L1823.68 252.876 M1832.18 251.117 L1832.18 265.909 L1827.92 265.909 L1827.92 261.973 Q1826.46 264.335 1824.28 265.469 Q1822.11 266.58 1818.96 266.58 Q1814.98 266.58 1812.62 264.358 Q1810.28 262.112 1810.28 258.362 Q1810.28 253.987 1813.2 251.765 Q1816.14 249.543 1821.95 249.543 L1827.92 249.543 L1827.92 249.126 Q1827.92 246.187 1825.97 244.589 Q1824.05 242.969 1820.56 242.969 Q1818.33 242.969 1816.23 243.501 Q1814.12 244.034 1812.18 245.099 L1812.18 241.163 Q1814.52 240.261 1816.71 239.821 Q1818.91 239.358 1821 239.358 Q1826.62 239.358 1829.4 242.274 Q1832.18 245.191 1832.18 251.117 Z" fill="#000000" fill-rule="evenodd" fill-opacity="1" /><path clip-path="url(#clip620)" d="M1862.5 250.261 L1862.5 265.909 L1858.24 265.909 L1858.24 250.399 Q1858.24 246.719 1856.81 244.89 Q1855.37 243.062 1852.5 243.062 Q1849.05 243.062 1847.06 245.261 Q1845.07 247.46 1845.07 251.256 L1845.07 265.909 L1840.79 265.909 L1840.79 239.983 L1845.07 239.983 L1845.07 244.011 Q1846.6 241.673 1848.66 240.515 Q1850.74 239.358 1853.45 239.358 Q1857.92 239.358 1860.21 242.136 Q1862.5 244.89 1862.5 250.261 Z" fill="#000000" fill-rule="evenodd" fill-opacity="1" /><path clip-path="url(#clip620)" d="M1888.06 243.918 L1888.06 229.89 L1892.32 229.89 L1892.32 265.909 L1888.06 265.909 L1888.06 262.02 Q1886.71 264.335 1884.65 265.469 Q1882.62 266.58 1879.75 266.58 Q1875.05 266.58 1872.08 262.83 Q1869.14 259.08 1869.14 252.969 Q1869.14 246.858 1872.08 243.108 Q1875.05 239.358 1879.75 239.358 Q1882.62 239.358 1884.65 240.492 Q1886.71 241.603 1888.06 243.918 M1873.54 252.969 Q1873.54 257.668 1875.46 260.353 Q1877.41 263.015 1880.79 263.015 Q1884.17 263.015 1886.11 260.353 Q1888.06 257.668 1888.06 252.969 Q1888.06 248.27 1886.11 245.608 Q1884.17 242.923 1880.79 242.923 Q1877.41 242.923 1875.46 245.608 Q1873.54 248.27 1873.54 252.969 Z" fill="#000000" fill-rule="evenodd" fill-opacity="1" /><path clip-path="url(#clip620)" d="M1926.39 229.937 Q1923.29 235.261 1921.78 240.469 Q1920.28 245.677 1920.28 251.024 Q1920.28 256.372 1921.78 261.626 Q1923.31 266.858 1926.39 272.159 L1922.69 272.159 Q1919.21 266.719 1917.48 261.464 Q1915.76 256.21 1915.76 251.024 Q1915.76 245.862 1917.48 240.631 Q1919.19 235.4 1922.69 229.937 L1926.39 229.937 Z" fill="#000000" fill-rule="evenodd" fill-opacity="1" /><path clip-path="url(#clip620)" d="M1934.65 239.983 L1938.91 239.983 L1938.91 265.909 L1934.65 265.909 L1934.65 239.983 M1934.65 229.89 L1938.91 229.89 L1938.91 235.284 L1934.65 235.284 L1934.65 229.89 Z" fill="#000000" fill-rule="evenodd" fill-opacity="1" /><path clip-path="url(#clip620)" d="M1969.38 250.261 L1969.38 265.909 L1965.12 265.909 L1965.12 250.399 Q1965.12 246.719 1963.68 244.89 Q1962.25 243.062 1959.38 243.062 Q1955.93 243.062 1953.94 245.261 Q1951.94 247.46 1951.94 251.256 L1951.94 265.909 L1947.66 265.909 L1947.66 239.983 L1951.94 239.983 L1951.94 244.011 Q1953.47 241.673 1955.53 240.515 Q1957.62 239.358 1960.32 239.358 Q1964.79 239.358 1967.08 242.136 Q1969.38 244.89 1969.38 250.261 Z" fill="#000000" fill-rule="evenodd" fill-opacity="1" /><path clip-path="url(#clip620)" d="M1982.08 232.622 L1982.08 239.983 L1990.86 239.983 L1990.86 243.293 L1982.08 243.293 L1982.08 257.367 Q1982.08 260.538 1982.94 261.441 Q1983.82 262.344 1986.48 262.344 L1990.86 262.344 L1990.86 265.909 L1986.48 265.909 Q1981.55 265.909 1979.68 264.08 Q1977.8 262.228 1977.8 257.367 L1977.8 243.293 L1974.68 243.293 L1974.68 239.983 L1977.8 239.983 L1977.8 232.622 L1982.08 232.622 Z" fill="#000000" fill-rule="evenodd" fill-opacity="1" /><path clip-path="url(#clip620)" d="M2018.63 251.881 L2018.63 253.964 L1999.05 253.964 Q1999.33 258.362 2001.69 260.677 Q2004.07 262.969 2008.31 262.969 Q2010.76 262.969 2013.06 262.367 Q2015.37 261.765 2017.64 260.561 L2017.64 264.589 Q2015.35 265.561 2012.94 266.071 Q2010.53 266.58 2008.06 266.58 Q2001.85 266.58 1998.22 262.969 Q1994.61 259.358 1994.61 253.2 Q1994.61 246.835 1998.03 243.108 Q2001.48 239.358 2007.31 239.358 Q2012.55 239.358 2015.58 242.737 Q2018.63 246.094 2018.63 251.881 M2014.38 250.631 Q2014.33 247.136 2012.41 245.052 Q2010.51 242.969 2007.36 242.969 Q2003.8 242.969 2001.64 244.983 Q1999.51 246.997 1999.19 250.654 L2014.38 250.631 Z" fill="#000000" fill-rule="evenodd" fill-opacity="1" /><path clip-path="url(#clip620)" d="M2040.65 243.964 Q2039.93 243.548 2039.07 243.362 Q2038.24 243.154 2037.22 243.154 Q2033.61 243.154 2031.67 245.515 Q2029.75 247.853 2029.75 252.251 L2029.75 265.909 L2025.46 265.909 L2025.46 239.983 L2029.75 239.983 L2029.75 244.011 Q2031.09 241.649 2033.24 240.515 Q2035.39 239.358 2038.47 239.358 Q2038.91 239.358 2039.44 239.427 Q2039.98 239.474 2040.62 239.589 L2040.65 243.964 Z" fill="#000000" fill-rule="evenodd" fill-opacity="1" /><path clip-path="url(#clip620)" d="M2049.24 262.02 L2049.24 275.77 L2044.95 275.77 L2044.95 239.983 L2049.24 239.983 L2049.24 243.918 Q2050.58 241.603 2052.62 240.492 Q2054.68 239.358 2057.52 239.358 Q2062.25 239.358 2065.19 243.108 Q2068.15 246.858 2068.15 252.969 Q2068.15 259.08 2065.19 262.83 Q2062.25 266.58 2057.52 266.58 Q2054.68 266.58 2052.62 265.469 Q2050.58 264.335 2049.24 262.02 M2063.73 252.969 Q2063.73 248.27 2061.78 245.608 Q2059.86 242.923 2056.48 242.923 Q2053.1 242.923 2051.16 245.608 Q2049.24 248.27 2049.24 252.969 Q2049.24 257.668 2051.16 260.353 Q2053.1 263.015 2056.48 263.015 Q2059.86 263.015 2061.78 260.353 Q2063.73 257.668 2063.73 252.969 Z" fill="#000000" fill-rule="evenodd" fill-opacity="1" /><path clip-path="url(#clip620)" d="M2085.25 242.969 Q2081.83 242.969 2079.84 245.654 Q2077.85 248.316 2077.85 252.969 Q2077.85 257.622 2079.81 260.307 Q2081.81 262.969 2085.25 262.969 Q2088.66 262.969 2090.65 260.284 Q2092.64 257.598 2092.64 252.969 Q2092.64 248.362 2090.65 245.677 Q2088.66 242.969 2085.25 242.969 M2085.25 239.358 Q2090.81 239.358 2093.98 242.969 Q2097.15 246.58 2097.15 252.969 Q2097.15 259.335 2093.98 262.969 Q2090.81 266.58 2085.25 266.58 Q2079.68 266.58 2076.5 262.969 Q2073.36 259.335 2073.36 252.969 Q2073.36 246.58 2076.5 242.969 Q2079.68 239.358 2085.25 239.358 Z" fill="#000000" fill-rule="evenodd" fill-opacity="1" /><path clip-path="url(#clip620)" d="M2104.21 229.89 L2108.47 229.89 L2108.47 265.909 L2104.21 265.909 L2104.21 229.89 Z" fill="#000000" fill-rule="evenodd" fill-opacity="1" /><path clip-path="url(#clip620)" d="M2129.17 252.876 Q2124 252.876 2122.01 254.057 Q2120.02 255.237 2120.02 258.085 Q2120.02 260.353 2121.5 261.696 Q2123.01 263.015 2125.58 263.015 Q2129.12 263.015 2131.25 260.515 Q2133.4 257.992 2133.4 253.825 L2133.4 252.876 L2129.17 252.876 M2137.66 251.117 L2137.66 265.909 L2133.4 265.909 L2133.4 261.973 Q2131.94 264.335 2129.77 265.469 Q2127.59 266.58 2124.44 266.58 Q2120.46 266.58 2118.1 264.358 Q2115.76 262.112 2115.76 258.362 Q2115.76 253.987 2118.68 251.765 Q2121.62 249.543 2127.43 249.543 L2133.4 249.543 L2133.4 249.126 Q2133.4 246.187 2131.46 244.589 Q2129.54 242.969 2126.04 242.969 Q2123.82 242.969 2121.71 243.501 Q2119.61 244.034 2117.66 245.099 L2117.66 241.163 Q2120 240.261 2122.2 239.821 Q2124.4 239.358 2126.48 239.358 Q2132.11 239.358 2134.88 242.274 Q2137.66 245.191 2137.66 251.117 Z" fill="#000000" fill-rule="evenodd" fill-opacity="1" /><path clip-path="url(#clip620)" d="M2150.65 232.622 L2150.65 239.983 L2159.42 239.983 L2159.42 243.293 L2150.65 243.293 L2150.65 257.367 Q2150.65 260.538 2151.5 261.441 Q2152.38 262.344 2155.05 262.344 L2159.42 262.344 L2159.42 265.909 L2155.05 265.909 Q2150.12 265.909 2148.24 264.08 Q2146.37 262.228 2146.37 257.367 L2146.37 243.293 L2143.24 243.293 L2143.24 239.983 L2146.37 239.983 L2146.37 232.622 L2150.65 232.622 Z" fill="#000000" fill-rule="evenodd" fill-opacity="1" /><path clip-path="url(#clip620)" d="M2187.2 251.881 L2187.2 253.964 L2167.62 253.964 Q2167.89 258.362 2170.25 260.677 Q2172.64 262.969 2176.87 262.969 Q2179.33 262.969 2181.62 262.367 Q2183.93 261.765 2186.2 260.561 L2186.2 264.589 Q2183.91 265.561 2181.5 266.071 Q2179.1 266.58 2176.62 266.58 Q2170.42 266.58 2166.78 262.969 Q2163.17 259.358 2163.17 253.2 Q2163.17 246.835 2166.6 243.108 Q2170.05 239.358 2175.88 239.358 Q2181.11 239.358 2184.14 242.737 Q2187.2 246.094 2187.2 251.881 M2182.94 250.631 Q2182.89 247.136 2180.97 245.052 Q2179.07 242.969 2175.93 242.969 Q2172.36 242.969 2170.21 244.983 Q2168.08 246.997 2167.75 250.654 L2182.94 250.631 Z" fill="#000000" fill-rule="evenodd" fill-opacity="1" /><path clip-path="url(#clip620)" d="M2211.25 243.918 L2211.25 229.89 L2215.51 229.89 L2215.51 265.909 L2211.25 265.909 L2211.25 262.02 Q2209.91 264.335 2207.85 265.469 Q2205.81 266.58 2202.94 266.58 Q2198.24 266.58 2195.28 262.83 Q2192.34 259.08 2192.34 252.969 Q2192.34 246.858 2195.28 243.108 Q2198.24 239.358 2202.94 239.358 Q2205.81 239.358 2207.85 240.492 Q2209.91 241.603 2211.25 243.918 M2196.74 252.969 Q2196.74 257.668 2198.66 260.353 Q2200.6 263.015 2203.98 263.015 Q2207.36 263.015 2209.3 260.353 Q2211.25 257.668 2211.25 252.969 Q2211.25 248.27 2209.3 245.608 Q2207.36 242.923 2203.98 242.923 Q2200.6 242.923 2198.66 245.608 Q2196.74 248.27 2196.74 252.969 Z" fill="#000000" fill-rule="evenodd" fill-opacity="1" /><path clip-path="url(#clip620)" d="M2223.61 229.937 L2227.31 229.937 Q2230.79 235.4 2232.5 240.631 Q2234.24 245.862 2234.24 251.024 Q2234.24 256.21 2232.5 261.464 Q2230.79 266.719 2227.31 272.159 L2223.61 272.159 Q2226.69 266.858 2228.19 261.626 Q2229.72 256.372 2229.72 251.024 Q2229.72 245.677 2228.19 240.469 Q2226.69 235.261 2223.61 229.937 Z" fill="#000000" fill-rule="evenodd" fill-opacity="1" /></svg>
